<?xml version="1.0" encoding="UTF-8" standalone="no"?><svg xmlns="http://www.w3.org/2000/svg" width="50" height="50" viewBox="0 0 50 50"><path d="M34.26,43.26a1.09,1.09,0,0,1-.65-.2L9.34,25.85a1.14,1.14,0,0,1,0-1.85L33.49,6.94A1.13,1.13,0,0,1,35,7.09c3.87,4.07,6.17,10.79,6.17,18s-2.26,13.76-6,17.84A1.11,1.11,0,0,1,34.26,43.26ZM12,24.93,34.08,40.61c3-3.72,4.79-9.44,4.79-15.55S37.05,13.1,34,9.38Z" fill="#333332"/><path d="M25.84,28.69a1.31,1.31,0,0,1-.43-.08L19.23,26.1a1.12,1.12,0,0,1-.62-1.47A1.13,1.13,0,0,1,20.08,24l5.24,2.12,2.09-3.91a1.14,1.14,0,0,1,1.52-.48l4.81,2.47a1.13,1.13,0,1,1-1,2l-3.82-1.95-2.05,3.83A1.13,1.13,0,0,1,25.84,28.69Z" fill="#f63"/></svg>