<?xml version="1.0" encoding="UTF-8" standalone="no"?><svg id="Layer_1" data-name="Layer 1" xmlns="http://www.w3.org/2000/svg" width="50" height="50" viewBox="0 0 50 50"><polyline points="33.5 12.5 48.5 12.5 48.5 39.5 27.5 39.5" fill="none" stroke="#333332" stroke-linecap="round" stroke-linejoin="round" stroke-width="3"/><circle cx="43.5" cy="17.5" r="1.5" fill="#f63"/><circle cx="38.5" cy="17.5" r="1.5" fill="#f63"/><circle cx="33.5" cy="17.5" r="1.5" fill="#f63"/><path d="M32.5,27.75c0,7.15-3.95,12.43-15.5,20.4C5.45,40.18,1.5,34.9,1.5,27.75V9.6C7.24,9,11.84,7,17,3,22.16,7,26.76,9,32.5,9.6Z" fill="none" stroke="#333332" stroke-linecap="round" stroke-linejoin="round" stroke-width="3"/><path d="M27,27c0,4.61-2.55,8-10,13.16C9.55,35,7,31.58,7,27V15.26A18.48,18.48,0,0,0,17,11a18.52,18.52,0,0,0,10,4.29Z" fill="#f63"/><line x1="33.5" y1="22.5" x2="48.5" y2="22.5" fill="none" stroke="#333332" stroke-linecap="round" stroke-linejoin="round" stroke-width="3"/></svg>