<?xml version="1.0" encoding="UTF-8"?><svg id="a" xmlns="http://www.w3.org/2000/svg" viewBox="0 0 90 80"><defs><style>.b{fill:#7f85a7;}.c{fill:#fff;}.d{fill:#f63;}</style></defs><path class="d" d="M85.172,27.0784l-28.9463-16.9221c-6.0668-3.5466-16.0253-3.6006-22.1302-.12L4.9676,26.6432c-3.0525,1.7406-4.5865,4.0479-4.599,6.3637-.0126,2.3158,1.4964,4.6399,4.5298,6.4132l28.9463,16.9221c6.0668,3.5466,16.0253,3.6006,22.1302.1203l29.1278-16.6072c3.0525-1.7403,4.5865-4.0479,4.599-6.3637s-1.4964-4.6399-4.5298-6.4132Z"/><path class="b" d="M89.6658,33.024c.0129.1559.0369.3116.0359.4675-.0081,1.5035-.6687,3.0007-1.9585,4.3442v8.4574c0,1.9976-1.4102,3.9121-3.9697,5.3901l-28.4355,16.417c-5.6045,3.2358-15.0742,3.2349-20.6768,0L6.2266,51.6833c-2.5596-1.4775-3.9697-3.3921-3.9697-5.3901v-8.944c-1.2607-1.3514-1.8964-2.8474-1.8882-4.3423.0002-.0714.0154-.1424.0187-.2137-.076.1411-.1305.2947-.1305.4663v13.0337c0,2.7427,1.7646,5.272,4.9697,7.1226l28.4346,16.417c3.126,1.8042,7.2324,2.7065,11.3389,2.7065s8.2119-.9023,11.3379-2.7065l28.4355-16.417c3.2051-1.8511,4.9697-4.3804,4.9697-7.1226v-12.8857c0-.136-.0282-.2652-.0774-.3834Z"/><path class="c" d="M61.3958,24.8066c3.5557,2.3706,5.3458,5.3183,5.3617,8.2628.0159,2.9425-1.7404,5.8848-5.274,8.2426l2.9637,1.7111c.6234.3599.6266.9412.007,1.2989s-1.628.3568-2.2514-.0031l-2.9637-1.7111c-4.0838,2.0401-9.1783,3.0531-14.2766,3.045-5.1-.0092-10.2056-1.0427-14.3099-3.0966l-2.9452,1.7004c-.6195.3577-1.6281.3549-2.2515-.0051s-.6265-.9412-.007-1.2989l2.9452-1.7004c-3.5592-2.3706-5.3492-5.3183-5.3635-8.2618-.0159-2.9445,1.7422-5.8858,5.2723-8.2436l-2.9637-1.7111c-.6234-.3599-.6249-.9422-.0053-1.2999s1.6263-.3559,2.2497.0041l2.9637,1.7111c4.0855-2.0391,9.18-3.0541,14.2783-3.0439,5.0983.0082,10.2038,1.0417,14.3116,3.0956l2.9435-1.6994c.6212-.3587,1.628-.3569,2.2514.0031s.6283.9422.0071,1.3009l-2.9435,1.6994ZM39.4719,31.1951c-.6234-.3599-.6248-.9422-.0053-1.2998s1.6263-.3559,2.2497.004l3.1709,1.8307,3.1511-1.8193c.6195-.3577,1.6263-.3559,2.2497.004s.6283.9422.0088,1.2999l-3.1511,1.8193,3.1692,1.8297c.6234.3599.6266.9412.007,1.2989s-1.628.3568-2.2514-.0031l-3.1692-1.8297-3.1494,1.8183c-.6195.3577-1.628.3548-2.2514-.0051s-.6266-.9412-.007-1.2988l3.1494-1.8183-3.1709-1.8307ZM36.2277,26.7304c.6234.3599.6265.9412.007,1.2989s-1.628.3568-2.2514-.0031l-3.4147-1.9715c-2.9159,1.9972-4.3675,4.4679-4.3558,6.9404.0134,2.4734,1.4919,4.9496,4.4329,6.9573l3.3917-1.9582c.6195-.3576,1.628-.3568,2.2514.0031s.6265.9432.0071,1.3009l-3.3917,1.9582c3.4757,1.697,7.7644,2.5506,12.0486,2.5583,4.2824.0067,8.562-.8314,12.0211-2.5148l-3.413-1.9705c-.6251-.3609-.6266-.9432-.0071-1.3009s1.6263-.3558,2.2515.0051l3.413,1.9705c2.9175-1.9981,4.3692-4.4689,4.3558-6.9404-.0134-2.4734-1.4919-4.9495-4.4294-6.9572l-3.3934,1.9592c-.6195.3577-1.628.3549-2.2515-.0051s-.6265-.9412-.007-1.2989l3.3934-1.9592c-3.4792-1.697-7.7679-2.5506-12.0521-2.5584-4.2807-.0077-8.5602.8304-12.0211,2.5148l3.4147,1.9715Z"/></svg>