<?xml version="1.0" encoding="UTF-8" standalone="no"?><svg xmlns="http://www.w3.org/2000/svg" width="50" height="50" viewBox="0 0 50 50"><path d="M20.26,22.72a1,1,0,0,1-.68-.29L14,16.89a3.16,3.16,0,0,1-1.56.41,3.27,3.27,0,1,1,.07-6.54,3.26,3.26,0,0,1,6.21,1.4,3.19,3.19,0,0,1-.44,1.63l4.95,4.95a1,1,0,0,1,0,1.37L21,22.43A1,1,0,0,1,20.26,22.72Zm-6.13-8.08a1,1,0,0,1,.68.28l5.45,5.45.95-.95-4.87-4.87a1,1,0,0,1,0-1.41,1.3,1.3,0,0,0,.44-1A1.32,1.32,0,0,0,14.19,12a1,1,0,0,1-.46.7.92.92,0,0,1-.82.09,1.46,1.46,0,0,0-.43-.08,1.33,1.33,0,0,0,0,2.66,1.28,1.28,0,0,0,.94-.42,1,1,0,0,1,.69-.3Z" fill="#333332"/><path d="M30,22.72a1,1,0,0,1-.69-.29L27,20.11a1,1,0,0,1,0-1.37l4.95-4.95a3.19,3.19,0,0,1-.44-1.63,3.26,3.26,0,0,1,6.21-1.4h.08a3.27,3.27,0,0,1,0,6.54,3.17,3.17,0,0,1-1.57-.41l-5.54,5.54A1,1,0,0,1,30,22.72ZM29,19.42l.95.95,5.45-5.45a1.07,1.07,0,0,1,.7-.28,1,1,0,0,1,.69.3,1.29,1.29,0,0,0,.95.42,1.33,1.33,0,0,0,0-2.66,1.47,1.47,0,0,0-.44.08,1,1,0,0,1-.82-.09.93.93,0,0,1-.45-.7,1.33,1.33,0,0,0-2.64.17,1.3,1.3,0,0,0,.44,1,1,1,0,0,1,0,1.41Z" fill="#333332"/><path d="M15.49,40.83A3.26,3.26,0,0,1,12.55,39a3.27,3.27,0,1,1-.07-6.53,3.23,3.23,0,0,1,1.56.4l5.54-5.54a1,1,0,0,1,.68-.28h0a1,1,0,0,1,.69.28l2.32,2.33a1,1,0,0,1,0,1.37l-4.95,4.95a3.18,3.18,0,0,1,.44,1.62A3.26,3.26,0,0,1,15.49,40.83Zm-2.27-3.94a1,1,0,0,1,.51.14,1,1,0,0,1,.46.7,1.31,1.31,0,0,0,1.3,1.16,1.32,1.32,0,0,0,.89-2.31.94.94,0,0,1-.32-.69,1,1,0,0,1,.28-.72l4.87-4.87-.95-.95L14.81,34.8a1,1,0,0,1-.7.29,1,1,0,0,1-.69-.31,1.27,1.27,0,0,0-.94-.41,1.33,1.33,0,1,0,0,2.65,1.2,1.2,0,0,0,.43-.08A1.12,1.12,0,0,1,13.22,36.89Z" fill="#333332"/><path d="M34.74,40.83a3.26,3.26,0,0,1-3.27-3.27,3.18,3.18,0,0,1,.44-1.62L27,31a1,1,0,0,1,0-1.37l2.32-2.33a1,1,0,0,1,1.37,0l5.54,5.54A3.27,3.27,0,1,1,37.68,39,3.26,3.26,0,0,1,34.74,40.83ZM29,30.3l4.87,4.87a1,1,0,0,1,.29.72,1,1,0,0,1-.33.69,1.32,1.32,0,1,0,2.2,1.15,1,1,0,0,1,.45-.7,1,1,0,0,1,.82-.09,1.21,1.21,0,0,0,.44.08,1.33,1.33,0,0,0,0-2.65,1.28,1.28,0,0,0-.95.41,1,1,0,0,1-.69.31h0a1,1,0,0,1-.68-.29L30,29.35Z" fill="#333332"/><path d="M35.14,23.34C34,18,30.15,15.25,25,15.16h.65c-5.73.09-9.55,2.87-10.72,8.18-.86,3.89,1,7.28,5.65,8.66l.17,3h8.56l.17-3C34.18,30.62,36,27.23,35.14,23.34Z" fill="#fff"/><path d="M29.32,35.94H20.76a1,1,0,0,1-1-.91l-.14-2.31C15.19,31.14,13,27.52,14,23.13c1.19-5.39,5-8.52,10.76-8.9a.54.54,0,0,1,.22,0h.69a.92.92,0,0,1,.29,0,10.71,10.71,0,0,1,10.14,8.9h0c1,4.39-1.2,8-5.67,9.59L30.29,35A1,1,0,0,1,29.32,35.94ZM21.68,34H28.4l.12-2.06a1,1,0,0,1,.7-.87c4-1.17,5.77-3.91,5-7.53h0c-1-4.59-4.16-7.21-8.89-7.4-5.14.2-8.39,2.76-9.41,7.4-.8,3.62,1,6.36,5,7.53a1,1,0,0,1,.69.87Z" fill="#333332"/><path d="M23.9,26c-.08.92-2.3,1.92-4.07,1.76a2.23,2.23,0,0,1-2.25-2.65,2.26,2.26,0,0,1,2.69-2.25C22,23,24,25.09,23.9,26Z" fill="#f63"/><path d="M26.18,26c.08.92,2.3,1.92,4.07,1.76a2.23,2.23,0,0,0,2.25-2.65,2.26,2.26,0,0,0-2.69-2.25C28,23,26.1,25.09,26.18,26Z" fill="#f63"/><path d="M27.15,29.08a2.83,2.83,0,0,0-1.47-1.67.81.81,0,0,0-.74,0,2.87,2.87,0,0,0-1.48,1.67c-.31.9-.22,1.77.31,1.9s.65-.55,1.57-.59h0c.86.07,1.12.69,1.51.59S27.47,30,27.15,29.08Z" fill="#f63"/></svg>