<?xml version="1.0" encoding="UTF-8" standalone="no"?><svg id="Layer_1" data-name="Layer 1" xmlns="http://www.w3.org/2000/svg" width="50" height="50" viewBox="0 0 50 50"><path d="M25.87,7.32s-6.1.79-6.42,1.74a20.67,20.67,0,0,1-2.45,5c-1.51,2.3-1.51,4.28-2.14,6.89s-1.19,4.68-1.19,4.68L36.33,26s.08-7-2.06-10.45-3-7.29-5.07-7.93A6.76,6.76,0,0,0,25.87,7.32Z" fill="#f63"/><line x1="4.39" y1="25.5" x2="46.39" y2="25.5" fill="#fff" stroke="#333332" stroke-linecap="round" stroke-linejoin="round" stroke-width="2.79"/><path d="M43.35,26.38a60,60,0,0,1-3,12.05,16.34,16.34,0,0,1-15,10.07h-.7a16.34,16.34,0,0,1-15-10.07,60,60,0,0,1-3-12" fill="none" stroke="#333332" stroke-linecap="round" stroke-linejoin="round" stroke-width="2.76"/><path d="M24.4,26.29A53.7,53.7,0,0,0,31.25,37.6a51.43,51.43,0,0,0,5.64,5.88" fill="none" stroke="#333332" stroke-linecap="round" stroke-linejoin="round" stroke-width="2.76"/><path d="M12.45,26.29A53.39,53.39,0,0,0,19.29,37.6a58.75,58.75,0,0,0,10,9.54" fill="none" stroke="#333332" stroke-linecap="round" stroke-linejoin="round" stroke-width="2.76"/><path d="M36.36,27.06a52.88,52.88,0,0,0,4.88,8.67" fill="none" stroke="#333332" stroke-linecap="round" stroke-linejoin="round" stroke-width="2.76"/><path d="M25.22,26.29A53.7,53.7,0,0,1,18.37,37.6,53.18,53.18,0,0,1,13,43.34" fill="none" stroke="#333332" stroke-linecap="round" stroke-linejoin="round" stroke-width="2.76"/><path d="M37.17,26.29A53.39,53.39,0,0,1,30.33,37.6,56.65,56.65,0,0,1,21,46.74" fill="none" stroke="#333332" stroke-linecap="round" stroke-linejoin="round" stroke-width="2.76"/><path d="M13.26,27.06a41,41,0,0,1-4.5,8.25" fill="none" stroke="#333332" stroke-linecap="round" stroke-linejoin="round" stroke-width="2.76"/><path d="M36.57,26.63c-.4-5.67-2-10.64-4.39-14A12.56,12.56,0,0,1,25,14.92a12.58,12.58,0,0,1-7.19-2.29c-2.33,3.32-4,8.21-4.37,13.79" fill="none" stroke="#333332" stroke-linecap="round" stroke-linejoin="round" stroke-width="2.76"/><path d="M18.63,12c0-3.29,2.85-5.1,6.37-5.1s6.37,1.81,6.37,5.1" fill="none" stroke="#333332" stroke-linecap="round" stroke-linejoin="round" stroke-width="2.76"/><line x1="25.39" y1="15.5" x2="25.39" y2="27.5" fill="none" stroke="#333332" stroke-linecap="round" stroke-linejoin="round" stroke-width="3"/><line x1="21.47" y1="7.16" x2="19.53" y2="2.24" fill="none" stroke="#333332" stroke-linecap="round" stroke-linejoin="round" stroke-width="3"/><line x1="28.53" y1="7.16" x2="30.47" y2="2.24" fill="none" stroke="#333332" stroke-linecap="round" stroke-linejoin="round" stroke-width="3"/><polyline points="33.64 14.76 36.85 10.61 41.58 11.85" fill="none" stroke="#333332" stroke-linecap="round" stroke-linejoin="round" stroke-width="3"/><polyline points="36.77 19.21 40.55 18.41 44.36 18.96" fill="none" stroke="#333332" stroke-linecap="round" stroke-linejoin="round" stroke-width="3"/><polyline points="16.36 14.76 13.15 10.61 8.42 11.85" fill="none" stroke="#333332" stroke-linecap="round" stroke-linejoin="round" stroke-width="3"/><polyline points="13.23 19.21 9.45 18.41 5.64 18.96" fill="none" stroke="#333332" stroke-linecap="round" stroke-linejoin="round" stroke-width="3"/></svg>