<?xml version="1.0" encoding="UTF-8" standalone="no"?><svg xmlns="http://www.w3.org/2000/svg" width="50" height="50" viewBox="0 0 50 50"><rect x="10.69" y="15.83" width="29.67" height="12.28" fill="#f63"/><rect x="15.3" y="10.37" width="5.93" height="4.77" fill="#f63"/><rect x="28.49" y="10.37" width="5.93" height="4.77" fill="#f63"/><path d="M40,14.5H35.74V10.71a1,1,0,0,0-1-1H28.82a1,1,0,0,0-1,1V14.5H22.55V10.71a1,1,0,0,0-1-1H15.63a1,1,0,0,0-1,1V14.5H10.36a1,1,0,0,0-1,1V40a1,1,0,0,0,1,1H40a1,1,0,0,0,1-1V15.48A1,1,0,0,0,40,14.5ZM29.81,11.7h3.95v2.8H29.81Zm-13.19,0h4v2.8h-4Zm-5.28,4.77H39v10.3H11.34ZM39,39.05H11.34V28.75H39Z" fill="#333332"/></svg>