<?xml version="1.0" encoding="UTF-8" standalone="no"?><svg xmlns="http://www.w3.org/2000/svg" width="50" height="50" viewBox="0 0 50 50"><polygon points="39.03 17.97 29.22 10.86 29.22 14.92 11.22 14.92 17.2 21.03 29.22 21.03 29.22 25.09 39.03 17.97" fill="#f63"/><path d="M29.22,26a.92.92,0,0,1-.92-.91V22H17.2a.92.92,0,0,1-.66-.28l-6-6.11a.92.92,0,0,1-.19-1,.9.9,0,0,1,.84-.56H28.3V10.86a.92.92,0,0,1,1.46-.74l9.81,7.11a.93.93,0,0,1,.37.74,1,1,0,0,1-.37.75l-9.81,7.11A1,1,0,0,1,29.22,26ZM17.58,20.11H29.22a.92.92,0,0,1,.92.92v2.26L37.47,18l-7.33-5.31v2.26a.92.92,0,0,1-.92.92H13.4Z" fill="#333332"/><path d="M20.67,40.06a.9.9,0,0,1-.54-.18l-9.81-7.11A.94.94,0,0,1,9.94,32a1,1,0,0,1,.38-.75l9.81-7.11a.92.92,0,0,1,1.45.74v3.14H32.69a.92.92,0,0,1,.66.28l6,6.11A.92.92,0,0,1,38.67,36H21.58v3.14a.93.93,0,0,1-.5.82A1,1,0,0,1,20.67,40.06Zm-8.25-8,7.33,5.31V35.08a.92.92,0,0,1,.92-.92H36.49l-4.18-4.27H20.67a.92.92,0,0,1-.92-.92V26.71Z" fill="#333332"/></svg>