<?xml version="1.0" encoding="UTF-8" standalone="no"?><svg xmlns="http://www.w3.org/2000/svg" width="50" height="50" viewBox="0 0 50 50"><path d="M30.29,42.46a1,1,0,0,1-1.05-1.05V35.55a1.07,1.07,0,0,1,.56-.93L39,29.68v-17L34.82,10.5V24.77a3.73,3.73,0,0,1-3.73,3.73H19a3.73,3.73,0,0,1-3.73-3.73V10.5L11.1,12.65v17l9.22,4.94a1.06,1.06,0,0,1,.55.93v5.86a1,1,0,1,1-2.09,0V36.17L9.56,31.23A1.06,1.06,0,0,1,9,30.31V12a1.05,1.05,0,0,1,.57-.94l6.28-3.21a1,1,0,0,1,1,0,1,1,0,0,1,.5.89v16A1.64,1.64,0,0,0,19,26.41H31.09a1.63,1.63,0,0,0,1.64-1.64v-16a1.05,1.05,0,0,1,1.53-.93l6.27,3.21a1.05,1.05,0,0,1,.57.94v18.3a1.06,1.06,0,0,1-.55.92l-9.21,4.94v5.24A1,1,0,0,1,30.29,42.46Z" fill="#333332"/><path d="M20.05,15.68a1.09,1.09,0,0,1-.73-.29,1.05,1.05,0,0,1,0-1.48l2.44-2.53a1,1,0,0,1,.75-.32h3.75l3-3.09a1,1,0,0,1,1.51,1.45l-3.3,3.42a1.07,1.07,0,0,1-.76.32H22.93l-2.13,2.2A1,1,0,0,1,20.05,15.68Z" fill="#333332"/><path d="M21.22,25a1,1,0,0,1-1-1.05V18.39a1,1,0,1,1,2.1,0V24A1,1,0,0,1,21.22,25Z" fill="#f63"/><path d="M24.71,25A1,1,0,0,1,23.66,24V16.29a1.05,1.05,0,0,1,2.1,0V24A1,1,0,0,1,24.71,25Z" fill="#f63"/><path d="M28.89,25a1,1,0,0,1-1-1.05V14.2a1,1,0,0,1,2.09,0V24A1,1,0,0,1,28.89,25Z" fill="#f63"/><path d="M25.41,42.46a1,1,0,0,1-1.05-1.05V39.32a1,1,0,1,1,2.09,0v2.09A1,1,0,0,1,25.41,42.46Z" fill="#333332"/></svg>