<?xml version="1.0" encoding="UTF-8"?><svg id="a" xmlns="http://www.w3.org/2000/svg" viewBox="0 0 90 80"><defs><style>.b{fill:#7f85a7;}.c{fill:#f63;}</style></defs><path class="b" d="M18.2669,79.3386c-.1689,0-.3398-.043-.4961-.1328l-4.9619-2.8428c-1.5488-.4951-2.4678-2.1123-2.4678-4.3623v-39.1738c0-.1426.0303-.2842.0898-.4141l7.1641-15.7539c.0869-.1904.2305-.3486.4121-.4531L44.9066.7604c1.1562-.666,2.3193-.792,3.3066-.3662.1035.0205.2051.0566.2988.1113l5.6582,3.3145c.4766.2793.6357.8926.3574,1.3691-.2803.4756-.8916.6357-1.3691.3574l-5.4521-3.1943c-.0693-.0186-.1367-.0449-.2012-.0801-.5156-.2822-1.1553-.0352-1.6016.2217l-26.6211,15.2861-6.9414,15.2637v38.957c0,1.3359.4316,2.2832,1.126,2.4717.082.0225.1611.0547.2354.0977l5.0625,2.9014c.4795.2744.6455.8857.3701,1.3643-.1846.3223-.5215.5029-.8682.5029Z"/><path class="b" d="M19.345,79.696c-.5439,0-1.0605-.1348-1.5303-.4053-1.1992-.6924-1.8867-2.1914-1.8867-4.1113v-39.1738c0-.1426.0303-.2842.0898-.4141l7.1641-15.7539c.0869-.1904.2305-.3486.4121-.4531L50.4925,3.9401c1.2871-.7422,2.5752-.8164,3.624-.21,1.1992.6914,1.8867,2.1904,1.8867,4.1104v34.4385c0,.5527-.4473,1-1,1s-1-.4473-1-1V7.8405c0-1.1689-.3311-2.0586-.8867-2.3789-.5205-.3018-1.1729-.0508-1.626.2119l-26.6211,15.2852-6.9414,15.2637v38.957c0,1.1689.332,2.0586.8867,2.3789.5205.3008,1.1719.0518,1.626-.2119l15.6611-9.042c.4766-.2764,1.0889-.1133,1.3662.3662.2764.4785.1123,1.0898-.3662,1.3662l-15.6611,9.042c-.7119.4111-1.4238.6172-2.0957.6172Z"/><path class="c" d="M23.8001,37.7927c-.3486,0-.6865-.1816-.8711-.5068-.2725-.4805-.1035-1.0908.377-1.3633l17.5078-9.9346c.4795-.2705,1.0898-.1035,1.3633.377.2725.4805.1035,1.0898-.377,1.3633l-17.5078,9.9346c-.1553.0879-.3252.1299-.4922.1299Z"/><path class="c" d="M23.8001,44.9098c-.3486,0-.6865-.1816-.8711-.5068-.2725-.4805-.1035-1.0908.377-1.3633l25.2764-14.3418c.4795-.2715,1.0898-.1035,1.3633.377.2725.4805.1035,1.0908-.377,1.3633l-25.2764,14.3418c-.1553.0879-.3252.1299-.4922.1299Z"/><path class="c" d="M23.8001,52.028c-.3486,0-.6865-.1816-.8711-.5068-.2725-.4805-.1035-1.0908.377-1.3633l13.4961-7.6582c.4795-.2725,1.0908-.1035,1.3633.377s.1035,1.0908-.377,1.3633l-13.4961,7.6582c-.1553.0879-.3252.1299-.4922.1299Z"/><path class="c" d="M23.8001,59.1452c-.3486,0-.6865-.1816-.8711-.5068-.2725-.4805-.1035-1.0908.377-1.3633l10.2471-5.8145c.4795-.2715,1.0898-.1035,1.3633.377.2725.4805.1035,1.0908-.377,1.3633l-10.2471,5.8145c-.1553.0879-.3252.1299-.4922.1299Z"/><path class="c" d="M23.8001,66.2624c-.3486,0-.6865-.1816-.8711-.5068-.2725-.4805-.1035-1.0908.377-1.3633l7.7119-4.376c.4795-.2705,1.0898-.1045,1.3633.377.2725.4805.1035,1.0908-.377,1.3633l-7.7119,4.376c-.1553.0879-.3252.1299-.4922.1299Z"/><path class="c" d="M45.3322,42.5412l-3.6785,2.1303c-.3114.1803-.5032.5129-.5033.8728l-.0069,28.628c0,.3605.1922.6937.5044.8739l3.6846,2.1273c.3121.1802.6967.1802,1.0088,0l3.6848-2.1274c.3121-.1802.5044-.5133.5044-.8737v-28.6313c0-.3604-.1923-.6935-.5044-.8737l-3.684-2.1269c-.3125-.1804-.6977-.1802-1.01.0007Z"/><path class="c" d="M57.6933,47.3861l-3.6786,2.1303c-.3114.1803-.5031.5128-.5033.8726l-.0067,16.628c-.0001.3606.1922.6938.5044.8741l3.6845,2.1273c.3121.1802.6967.1802,1.0088,0l3.6849-2.1275c.3121-.1802.5044-.5133.5044-.8737v-16.6312c0-.3604-.1923-.6935-.5044-.8737l-3.6841-2.127c-.3125-.1804-.6977-.1802-1.01.0007Z"/><path class="c" d="M70.0549,27.1496l-3.6848,2.1274c-.3121.1802-.5044.5133-.5044.8737v29.6313c0,.3604.1923.6935.5044.8737l3.6848,2.1274c.3121.1802.6967.1802,1.0088,0l3.6848-2.1274c.3121-.1802.5044-.5133.5044-.8737v-29.6313c0-.3604-.1923-.6935-.5044-.8737l-3.6848-2.1274c-.3121-.1802-.6967-.1802-1.0088,0Z"/></svg>