<?xml version="1.0" encoding="UTF-8" standalone="no"?><svg xmlns="http://www.w3.org/2000/svg" width="50" height="50" viewBox="0 0 50 50"><polygon points="33.5 12.31 31.53 10.5 31.58 18.25 39.44 18.23 33.5 12.31" fill="#f63"/><path d="M40,17.54,32.45,10a.86.86,0,0,0-.63-.26H11.17a.89.89,0,0,0-.89.89V39.43a.89.89,0,0,0,1.78,0V11.49H30.51v7.08a.9.9,0,0,0,.9.9h7.08v20a.9.9,0,0,0,1.79,0V18.17A.92.92,0,0,0,40,17.54Zm-7.71-5.19,5.32,5.32H32.31Z" fill="#333332"/><path d="M35.09,37.28H27.73a.92.92,0,0,1,0-1.84h7.36a.92.92,0,1,1,0,1.84Z" fill="#f63"/><path d="M21.27,38.45v0H16.4V33h3.81l1.87-1.88H15.46a.94.94,0,0,0-.93.94v7.36a.94.94,0,0,0,.93.94h6.75a.94.94,0,0,0,.94-.94v-2.8Z" fill="#333332"/><path d="M20.15,37.45a.94.94,0,0,1-.65-.26L17.91,35.6a.92.92,0,0,1,1.3-1.3l.94.93,4-4a.92.92,0,0,1,1.3,1.3L20.8,37.19A1,1,0,0,1,20.15,37.45Z" fill="#f63"/><path d="M35.09,25H27.73a.92.92,0,0,1,0-1.84h7.36a.92.92,0,1,1,0,1.84Z" fill="#f63"/><path d="M21.27,26.18v0H16.4V20.74h3.81l1.87-1.88H15.46a.94.94,0,0,0-.93.94v7.36a.94.94,0,0,0,.93.94h6.75a.94.94,0,0,0,.94-.94v-2.8Z" fill="#333332"/><path d="M20.15,25.19a.91.91,0,0,1-.65-.27l-1.59-1.59a.92.92,0,0,1,1.3-1.3l.94.94,4-4a.92.92,0,0,1,1.3,1.3L20.8,24.92A.92.92,0,0,1,20.15,25.19Z" fill="#f63"/></svg>