<?xml version="1.0" encoding="UTF-8" standalone="no"?><svg xmlns="http://www.w3.org/2000/svg" width="50" height="50" viewBox="0 0 50 50"><path d="M25.22,35.4h0a6.12,6.12,0,0,1-6.15-6.1h0V24.81a3.27,3.27,0,0,1,3.25-3.28l5.72,0a3.26,3.26,0,0,1,3.27,3.26l0,4.49A6.12,6.12,0,0,1,25.22,35.4Z" fill="#f63"/><path d="M23.66,18.26h3A1.36,1.36,0,0,1,28,19.61h0v1.91H22.31v-1.9A1.36,1.36,0,0,1,23.66,18.26Z" fill="#f63"/><path d="M35.58,27.93l-3.35-.65V24.76a5.09,5.09,0,0,0,0-.56l2.89-1.95a.92.92,0,1,0-1-1.52L31.5,22.44a4.17,4.17,0,0,0-2.56-1.74V19.61A2.26,2.26,0,0,0,28.27,18a2.34,2.34,0,0,0-.89-.54,4.31,4.31,0,0,1,2.32-3.12l.35-.17a.92.92,0,0,0-.83-1.64l-.35.17a6.16,6.16,0,0,0-3.34,4.64h-.75a6.15,6.15,0,0,0-3.37-4.61l-.35-.18a.92.92,0,0,0-.82,1.65l.35.17a4.3,4.3,0,0,1,2.34,3.11,2.23,2.23,0,0,0-.88.54,2.21,2.21,0,0,0-.66,1.61v1.09a4.22,4.22,0,0,0-2.55,1.76l-2.55-1.69a.92.92,0,0,0-1,1.53l2.91,1.92a5.46,5.46,0,0,0,0,.57v2.51L14.81,28a.93.93,0,0,0-.72,1.09.92.92,0,0,0,.9.73.55.55,0,0,0,.18,0l3-.6v.1a7.23,7.23,0,0,0,.68,3L16,34.74a.92.92,0,1,0,1.21,1.38l2.59-2.28a7,7,0,0,0,5.36,2.48h0a7,7,0,0,0,5.36-2.52l2.61,2.26a.85.85,0,0,0,.6.23.92.92,0,0,0,.6-1.61l-2.81-2.45a7,7,0,0,0,.66-3v-.1l3,.59h.18a.92.92,0,0,0,.18-1.82Zm-12.36-8.3a.44.44,0,0,1,.45-.45h3a.43.43,0,0,1,.31.13.46.46,0,0,1,.13.32v1H23.23Zm2,14.85h0A5.21,5.21,0,0,1,20,29.3V28.08h0V24.81a2.34,2.34,0,0,1,2.34-2.36h0l5.7,0h0a2.35,2.35,0,0,1,2.34,2.34V28h0v1.22A5.21,5.21,0,0,1,25.21,34.48Z" fill="#333332"/><path d="M11.42,15.82a.92.92,0,0,1-.92-.92V10.61a.92.92,0,0,1,.92-.92H15.7a.92.92,0,0,1,0,1.84H12.34V14.9A.92.92,0,0,1,11.42,15.82Z" fill="#333332"/><path d="M39.58,15.82a.92.92,0,0,1-.92-.92V11.53H35.3a.92.92,0,0,1,0-1.84h4.28a.92.92,0,0,1,.92.92V14.9A.92.92,0,0,1,39.58,15.82Z" fill="#333332"/><path d="M39.58,40.31H35.3a.92.92,0,0,1,0-1.84h3.36V35.1a.92.92,0,0,1,1.84,0v4.29A.92.92,0,0,1,39.58,40.31Z" fill="#333332"/><path d="M15.7,40.31H11.42a.92.92,0,0,1-.92-.92V35.1a.92.92,0,1,1,1.84,0v3.37H15.7a.92.92,0,1,1,0,1.84Z" fill="#333332"/><rect x="10.81" y="21.94" width="29.39" height="6.12" fill="#fff"/><path d="M39,25.92H12a.92.92,0,1,1,0-1.84H39a.92.92,0,0,1,0,1.84Z" fill="#f63"/></svg>