<?xml version="1.0" encoding="UTF-8" standalone="no"?><svg id="Layer_1" data-name="Layer 1" xmlns="http://www.w3.org/2000/svg" width="50" height="50" viewBox="0 0 50 50"><path d="M1.85,23V49h26V23Zm15,14.22v3.86a1.5,1.5,0,0,1-3,0V37.22a4.57,4.57,0,0,1-2.69-6.08,4.25,4.25,0,0,1,2.25-2.33,4.55,4.55,0,1,1,3.44,8.41Z" fill="#f63"/><rect x="2.35" y="22.5" width="26" height="26" stroke-width="2.72" stroke="#333332" stroke-linecap="round" stroke-linejoin="round" fill="none"/><path d="M22.35,21.5V9.93a7.5,7.5,0,0,0-7.5-7.5h0a7.5,7.5,0,0,0-7.5,7.5V21.5" fill="none" stroke="#333332" stroke-linecap="round" stroke-linejoin="round" stroke-width="2.76"/><line x1="28.35" y1="8.5" x2="40.35" y2="8.5" fill="none" stroke="#333332" stroke-linecap="round" stroke-linejoin="round" stroke-width="2.72"/><line x1="47.35" y1="8.5" x2="48.35" y2="8.5" fill="none" stroke="#333332" stroke-linecap="round" stroke-linejoin="round" stroke-width="2.72"/><line x1="32.35" y1="24.5" x2="34.35" y2="24.5" fill="none" stroke="#333332" stroke-linecap="round" stroke-linejoin="round" stroke-width="2.72"/><line x1="39.35" y1="24.5" x2="48.35" y2="24.5" fill="none" stroke="#333332" stroke-linecap="round" stroke-linejoin="round" stroke-width="2.72"/><line x1="47.35" y1="41.5" x2="48.35" y2="41.5" fill="none" stroke="#333332" stroke-linecap="round" stroke-linejoin="round" stroke-width="2.72"/><line x1="32.35" y1="41.5" x2="40.35" y2="41.5" fill="none" stroke="#333332" stroke-linecap="round" stroke-linejoin="round" stroke-width="2.72"/><line x1="35.35" y1="33.5" x2="48.35" y2="33.5" fill="none" stroke="#333332" stroke-linecap="round" stroke-linejoin="round" stroke-width="2.72"/><line x1="39.35" y1="16.5" x2="47.35" y2="16.5" fill="none" stroke="#333332" stroke-linecap="round" stroke-linejoin="round" stroke-width="2.72"/><line x1="28.35" y1="16.5" x2="32.35" y2="16.5" fill="none" stroke="#333332" stroke-linecap="round" stroke-linejoin="round" stroke-width="2.72"/></svg>