<?xml version="1.0" encoding="UTF-8" standalone="no"?><svg width="594" height="100" viewBox="0 0 594 100" fill="none" xmlns="http://www.w3.org/2000/svg">
<g clip-path="url(#clip0_288_4074)">
<path d="M50 100C59.8891 100 69.556 97.0675 77.7785 91.5735C86.0009 86.0794 92.4096 78.2705 96.194 69.1342C99.9783 59.9979 100.968 49.9445 99.0392 40.2455C97.11 30.5464 92.3479 21.6373 85.3553 14.6447C78.3627 7.65206 69.4535 2.89002 59.7545 0.960758C50.0555 -0.968502 40.0021 0.0216641 30.8658 3.80604C21.7295 7.59043 13.9206 13.9991 8.42652 22.2215C2.93245 30.444 0 40.1109 0 50C0 63.2608 5.26784 75.9785 14.6447 85.3553C24.0215 94.7322 36.7392 100 50 100Z" fill="#868FAC"/>
<path d="M49.51 49.44L28 78H61.32C65.102 78 68.7291 76.4976 71.4033 73.8233C74.0776 71.149 75.58 67.522 75.58 63.74C75.58 59.958 74.0776 56.3309 71.4033 53.6566C68.7291 50.9824 65.102 49.48 61.32 49.48C65.102 49.48 68.7291 47.9776 71.4033 45.3033C74.0776 42.629 75.58 39.002 75.58 35.22C75.58 31.438 74.0776 27.8109 71.4033 25.1366C68.7291 22.4624 65.102 20.96 61.32 20.96H28L49.51 49.43V49.44Z" fill="white"/>
<path d="M28 26.5996V32.2896L40.91 49.4396L28 66.5596V72.3396L45.22 49.4396L28 26.5996Z" fill="white"/>
<path d="M28 55.15V60.85L36.62 49.44L28 38V43.79L32.32 49.49L28 55.15Z" fill="white"/>
<path d="M144.731 21C149.221 21 153.871 21 157.781 23.5C159.956 24.7632 161.752 26.5862 162.983 28.7794C164.214 30.9725 164.835 33.4555 164.781 35.97C164.781 42.46 160.451 46.77 154.461 48.27V48.44C161.531 49.85 166.351 55.26 166.351 62.65C166.351 67.65 163.351 72.05 159.351 74.95C155.201 77.95 149.631 77.95 144.731 77.95H119.211V21H144.731ZM132.511 43.61H141.571C143.901 43.61 146.641 43.77 148.641 42.28C149.405 41.6613 150.017 40.8771 150.433 39.9866C150.849 39.0961 151.057 38.1227 151.041 37.14C151.059 36.112 150.808 35.0971 150.313 34.1957C149.819 33.2942 149.097 32.5374 148.221 32C146.311 30.92 142.811 31.17 140.571 31.17H132.511V43.61ZM132.511 67.47H141.731C144.151 67.47 147.231 67.63 149.301 66.22C150.245 65.5566 151.012 64.6719 151.535 63.6434C152.058 62.6148 152.321 61.4737 152.301 60.32C152.266 59.205 151.95 58.1169 151.382 57.1569C150.814 56.197 150.012 55.3965 149.051 54.83C147.141 53.75 144.481 53.75 142.321 53.75H132.511V67.47Z" fill="#868FAC"/>
<path d="M181.89 59.0004L181.8 61.0804C181.8 66.0804 184.63 70.0804 189.95 70.0804C193.69 70.0804 197.43 67.3404 197.43 63.4304L208.74 64.2604C208.74 66.3404 203.83 78.8204 189.53 78.8204C176.9 78.8204 168.67 70.0004 168.67 57.4504C168.67 44.9004 176.07 35.0004 189.2 35.0004C192.181 34.9649 195.13 35.6232 197.813 36.9231C200.496 38.223 202.84 40.1289 204.66 42.4904C208.16 47.3104 209.07 53.2804 208.98 59.0304L181.89 59.0004ZM196.77 51.7604C196.52 47.1904 195 43.0004 189.7 43.0004C184.4 43.0004 182.22 47.0004 181.8 51.8104L196.77 51.7604Z" fill="#868FAC"/>
<path d="M224.271 35.8004V42.9404H224.431C226.931 37.5304 230.431 34.9404 236.571 34.9404C240.571 34.9404 244.471 36.1904 246.961 39.6004C249.291 42.7604 249.291 48.0804 249.291 51.9004V78.0004H237.071V55.3304C237.071 50.9904 237.651 44.6804 231.501 44.6804C230.435 44.6907 229.393 44.9912 228.485 45.5498C227.578 46.1083 226.84 46.9037 226.351 47.8504C225.26 50.1859 224.772 52.7576 224.931 55.3304V78.0004H212.711V35.8004H224.271Z" fill="#868FAC"/>
<path d="M279.62 78V71.46H279.45C277.13 75.95 273.64 78.86 268.23 78.86C256.34 78.86 253 67.21 253 57.41C253 47.34 256.17 35 268.47 35C273.22 35 276.38 36.42 279.04 40.32V21H291.26V78H279.62ZM279 54.58C279 50.5 278.66 43.52 273.09 43.52C266.09 43.52 265.86 52.66 265.86 57.74C265.86 62.31 266.52 70.04 272.59 70.04C273.716 70.0147 274.814 69.6841 275.767 69.0835C276.72 68.483 277.491 67.6349 278 66.63C278.828 64.6601 279.171 62.5201 279 60.39V54.58Z" fill="#868FAC"/>
<path d="M308.45 77.9999H296.23V35.7999H308.45V77.9999ZM308.45 31.9999H296.23V20.1699H308.45V31.9999Z" fill="#868FAC"/>
<path d="M327.001 60.5604C326.407 60.836 325.899 61.2685 325.533 61.8112C325.166 62.3539 324.954 62.9863 324.921 63.6404C324.862 64.3817 325.074 65.1192 325.517 65.7166C325.96 66.314 326.604 66.7309 327.331 66.8904C330.325 67.4234 333.359 67.6978 336.401 67.7104L341.721 67.9604C349.121 68.3804 357.431 69.9604 357.431 79.1804C357.431 84.8304 353.361 88.6604 348.541 90.6504C344.001 92.5704 338.001 92.9104 333.001 92.9104C326.261 92.9104 311.221 92.6603 311.221 83.1003C311.221 78.7703 314.711 76.2803 318.531 75.4503C315.291 73.8603 313.131 71.6203 313.131 67.8803C313.131 62.6403 317.371 60.2304 321.611 58.4904C317.031 56.7404 314.131 53.2404 314.131 48.1804C314.091 38.0004 325.221 35.0004 333.461 35.0004C337.272 34.9912 341.06 35.6095 344.671 36.8304C345.511 30.4304 347.921 28.6104 354.241 28.6104L357.651 28.9304V36.8304C356.578 36.6188 355.492 36.4818 354.401 36.4203C352.081 36.4203 349.831 37.5104 349.501 40.0704C350.604 41.1299 351.47 42.4111 352.042 43.8297C352.615 45.2482 352.88 46.7719 352.821 48.3004C352.821 58.3004 342.101 61.1903 334.041 61.1903L327.001 60.5604ZM326.561 48.0004C326.561 52.1504 329.221 54.4004 333.291 54.4004C337.361 54.4004 340.601 52.2403 340.601 47.9203C340.601 43.6003 337.111 41.6903 333.291 41.6903C329.471 41.6903 326.561 44.0004 326.561 48.0004ZM324.721 77.7604C323.978 77.9797 323.322 78.4268 322.847 79.0386C322.371 79.6504 322.1 80.3961 322.071 81.1703C322.071 83.1703 323.391 84.0704 325.141 84.5804C328.145 85.231 331.218 85.5098 334.291 85.4104C337.291 85.4104 345.751 85.6603 345.751 81.3403C345.751 79.0903 343.021 78.6004 341.271 78.4304L324.721 77.7604Z" fill="#868FAC"/>
<path d="M396.21 57.24C396.21 69.3 388.31 78.86 375.84 78.86C362.84 78.86 355.84 69.04 355.84 56.86C355.84 44.68 363 35 375.84 35C389.06 35 396.21 44.81 396.21 57.28M369 55.58C369 60.39 368.91 70.71 375.89 70.71C382.87 70.71 383.12 62.4 383.12 57.32C383.12 53.99 382.96 50 381.79 46.85C380.79 44.11 378.79 43.02 375.98 43.02C369.41 43.02 368.98 50.76 368.98 55.58" fill="#868FAC"/>
<path d="M441.001 21C445.491 21 450.151 21 454.061 23.5C456.234 24.7677 458.026 26.5976 459.247 28.7973C460.468 30.997 461.074 33.4851 461.001 36C461.001 42.49 456.681 46.8 450.691 48.3V48.47C457.761 49.88 462.571 55.29 462.571 62.68C462.571 67.68 459.571 72.08 455.571 74.98C451.571 77.88 445.891 77.98 441.001 77.98H415.461V21H441.001ZM428.761 43.61H437.831C440.151 43.61 442.901 43.77 444.891 42.28C445.656 41.6623 446.271 40.8785 446.689 39.988C447.106 39.0974 447.316 38.1235 447.301 37.14C447.319 36.112 447.068 35.0971 446.573 34.1957C446.079 33.2942 445.358 32.5374 444.481 32C442.571 30.92 439.081 31.17 436.831 31.17H428.761V43.61ZM428.761 67.47H438.001C440.421 67.47 443.481 67.63 445.561 66.22C446.505 65.5566 447.272 64.6719 447.795 63.6434C448.318 62.6148 448.581 61.4737 448.561 60.32C448.53 59.2042 448.216 58.1146 447.647 57.154C447.078 56.1935 446.274 55.3936 445.311 54.83C443.401 53.75 440.741 53.75 438.581 53.75H428.771L428.761 67.47Z" fill="#868FAC"/>
<path d="M492.69 78C492.199 75.8498 492.001 73.6432 492.1 71.44C488.61 76.44 484.96 78.84 478.64 78.84C471.15 78.84 465.33 74.84 465.33 66.84C465.33 60.6 469.24 56.36 474.81 54.28C479.63 52.45 486.36 52.11 491.52 51.62V50.62C491.52 48.78 491.69 46.62 490.44 45.04C489.805 44.3595 489.028 43.8275 488.163 43.4818C487.299 43.1361 486.369 42.9852 485.44 43.04C481.54 43.04 478.13 45.04 478.13 49.19L466.57 48.11C467.83 38 477.8 35 486.69 35C491.03 35 496.69 36 500.08 38.83C504.4 42.28 504 46.93 504 52V71.7C503.943 73.8379 504.227 75.9712 504.84 78.02L492.69 78ZM491.52 57.8C486.87 58.3 478.3 59.38 478.3 65.53C478.3 68.85 480.3 71.1 483.71 71.1C484.946 71.0814 486.157 70.7519 487.232 70.142C488.307 69.532 489.21 68.6613 489.86 67.61C491.61 64.95 491.52 62.46 491.52 59.46V57.8Z" fill="#868FAC"/>
<path d="M521.349 35.8004V42.9404H521.509C524.019 37.5304 527.509 34.9404 533.649 34.9404C537.649 34.9404 541.549 36.1904 544.039 39.6004C546.369 42.7604 546.369 48.0804 546.369 51.9004V78.0004H534.149V55.3304C534.149 50.9904 534.729 44.6804 528.579 44.6804C527.514 44.6907 526.471 44.9912 525.564 45.5498C524.656 46.1083 523.918 46.9037 523.429 47.8504C522.33 50.1835 521.838 52.7565 521.999 55.3304V78.0004H509.789V35.8004H521.349Z" fill="#868FAC"/>
<path d="M593.08 78H579.36L570.47 58.9L563.65 67.21V78H551.43V21H563.65V55.16L567.65 49.59L579.36 35.8H591.42L579.36 50.17L593.08 78Z" fill="#868FAC"/>
</g>
<defs>
<clipPath id="clip0_288_4074">
<rect width="593.08" height="100" fill="white"/>
</clipPath>
</defs>
</svg>
