<?xml version="1.0" encoding="UTF-8" standalone="no"?><svg xmlns="http://www.w3.org/2000/svg" width="989.93" height="421.67" viewBox="0 0 989.93 421.67"><circle cx="88.32" cy="315.81" r="85.32" fill="#fff" stroke="#f63" stroke-linecap="round" stroke-linejoin="round" stroke-width="6"/><circle cx="769.53" cy="81.12" r="78.26" fill="#fff" stroke="#f63" stroke-linecap="round" stroke-linejoin="round" stroke-width="5.73"/><circle cx="786.39" cy="349.82" r="68.85" fill="#fff" stroke="#f63" stroke-linecap="round" stroke-linejoin="round" stroke-width="6"/><path d="M118.82,319.89a4.61,4.61,0,0,1-.92,3.08,3.4,3.4,0,0,1-4.8.28l-.28-.28a5.57,5.57,0,0,1,0-6.12,3.4,3.4,0,0,1,4.81-.28l.28.28a4.53,4.53,0,0,1,.92,3.07Zm3,6.31V313.58h-2.24l-.52,1.46h0a5.89,5.89,0,0,0-1.94-1.38,5.45,5.45,0,0,0-2.29-.45,5.54,5.54,0,0,0-4.3,1.84,6.61,6.61,0,0,0-1.71,4.7v.43a6.32,6.32,0,0,0,1.71,4.6,5.59,5.59,0,0,0,4.17,1.8,5.77,5.77,0,0,0,2.39-.48,4.17,4.17,0,0,0,1.72-1.42h0l.48,1.54h2.5Zm11.87-6.31a4.67,4.67,0,0,1-.91,3.08,3.08,3.08,0,0,1-2.54,1.14,3.13,3.13,0,0,1-2.55-1.14,4.66,4.66,0,0,1-.92-3.06,4.72,4.72,0,0,1,.92-3.06,3.41,3.41,0,0,1,5.09,0,4.58,4.58,0,0,1,.92,3.07Zm3,6.31V308.66h-3.07v5.88h0a3.83,3.83,0,0,0-1.54-1.07,6.48,6.48,0,0,0-2.14-.34,6,6,0,0,0-4.5,1.84,6.76,6.76,0,0,0-1.71,4.7v.47a6.19,6.19,0,0,0,1.77,4.56,5.52,5.52,0,0,0,4.21,1.8,6,6,0,0,0,2.44-.43,4.86,4.86,0,0,0,1.8-1.37H134l.43,1.39h2.3v.07ZM53.57,313.87v7.4a5.07,5.07,0,0,0,1.54,3.85,6.08,6.08,0,0,0,7.89,0,5.15,5.15,0,0,0,1.53-3.87v-7.41h-3v7.24a3.54,3.54,0,0,1-.61,2.19,2.24,2.24,0,0,1-1.84.75,2.37,2.37,0,0,1-1.84-.75,3.42,3.42,0,0,1-.62-2.19v-7.24h-3Zm16-3.49a7.82,7.82,0,0,1-1.45,2.35,6,6,0,0,1-2,1.45v1.48h1.71v6.56a4.51,4.51,0,0,0,1,3.21,4.1,4.1,0,0,0,3.07,1,6.47,6.47,0,0,0,2.54-.61v-2.51h-.43a3.92,3.92,0,0,1-.89.45,3.13,3.13,0,0,1-.86.12,1.49,1.49,0,0,1-1.07-.35,1.42,1.42,0,0,1-.34-1v-6.87h3.21v-2.38H70.9v-2.84H69.59Zm16,9.51a4.55,4.55,0,0,1-.92,3A3,3,0,0,1,82.17,324a3.07,3.07,0,0,1-2.5-1.13,4.67,4.67,0,0,1-.88-3,4.94,4.94,0,0,1,.88-3,3.3,3.3,0,0,1,4.65-.35,3.85,3.85,0,0,1,.35.35,4.29,4.29,0,0,1,.93,3Zm3.07.22v-.45a6.15,6.15,0,0,0-1.88-4.7,6.52,6.52,0,0,0-4.65-1.8,6.37,6.37,0,0,0-4.6,1.8,6.2,6.2,0,0,0-1.84,4.7v.43a6.31,6.31,0,0,0,1.85,4.68,6.84,6.84,0,0,0,9.25,0,6.1,6.1,0,0,0,1.88-4.68Zm3.47,6.09h3.21v-14H100v-2.75H87.16v2.76h4.9v14Zm12.19-9a3.41,3.41,0,0,1,2.46-.75h1.12v-3h-.43c-.17,0-.39-.07-.57-.07a3.62,3.62,0,0,0-2.29.71,2.9,2.9,0,0,0-1.23,1.84h0l-.65-2.41h-2.29v12.64h3.08v-6a4.27,4.27,0,0,1,.75-2.86Zm43.7,1.18h-6a3.73,3.73,0,0,1,1.13-2,3.24,3.24,0,0,1,2.07-.7,2.62,2.62,0,0,1,2,.75,2.86,2.86,0,0,1,.8,2Zm3.15,1.71v-.61a6.42,6.42,0,0,0-1.71-4.6,5.82,5.82,0,0,0-4.35-1.75,5.93,5.93,0,0,0-4.47,1.84,6.52,6.52,0,0,0-1.8,4.64V320a6.38,6.38,0,0,0,1.8,4.66,6,6,0,0,0,4.51,1.84,6.8,6.8,0,0,0,3.85-1.05,4.75,4.75,0,0,0,1.89-2.59h-3.1a2.62,2.62,0,0,1-.8.79,3.34,3.34,0,0,1-1.75.4,3.13,3.13,0,0,1-2.25-.88,4,4,0,0,1-1-2.42h9.17a3.42,3.42,0,0,1,0-.64Zm5.92-2.89a3.4,3.4,0,0,1,2.45-.75h1.14v-3h-.45c-.17,0-.4-.07-.58-.07a3.72,3.72,0,0,0-2.28.71,2.92,2.92,0,0,0-1.22,1.84h0l-.64-2.41h-2.2v12.64h3.07v-6a4,4,0,0,1,.75-2.86ZM46.86,319.33H42.12l1.5-4c.21-.51.4-1,.56-1.57a4.35,4.35,0,0,0,.27-1h0a3.57,3.57,0,0,0,.17.66c0,.23.32.88.66,1.88l1.53,4Zm5.83,6.85v-.41l-6.47-16H42.88l-6.47,16v.39h3l1.26-3.31.27-.72h6.79l.27.71,1.28,3.31h3.32v.07ZM32.18,323a5,5,0,0,1-4.48,3.15H12.81l2.74-6.79h18L32.11,323Z" fill="#313c53"/><path d="M37.42,309.78l-2.7,6.8h-18l1.45-3.64a5,5,0,0,1,4.47-3.16Z" fill="#ff4436"/><circle cx="182.08" cy="107.85" r="66.63" fill="#fff" stroke="#f63" stroke-linecap="round" stroke-linejoin="round" stroke-width="6"/><ellipse cx="481.23" cy="184.42" rx="84.42" ry="84.46" fill="none" stroke="#ebf0f2" stroke-linecap="round" stroke-linejoin="round" stroke-width="5.48"/><ellipse cx="481.21" cy="184.4" rx="84.44" ry="45.75" transform="translate(10.66 394.52) rotate(-45.03)" stroke-width="5.48" stroke="#ebf0f2" stroke-linecap="round" stroke-linejoin="round" fill="none"/><path d="M396.91,180.1c18.93,1,40.91,11.27,59.14,29.51s28.53,40.24,29.49,59.17" fill="none" stroke="#ebf0f2" stroke-linecap="round" stroke-linejoin="round" stroke-width="5.48"/><path d="M476.91,100.07c1,18.93,11.26,40.93,29.49,59.16s40.21,28.55,59.13,29.51" fill="none" stroke="#ebf0f2" stroke-linecap="round" stroke-linejoin="round" stroke-width="5.48"/><line x1="421.53" y1="124.69" x2="540.92" y2="244.15" fill="none" stroke="#ebf0f2" stroke-linecap="round" stroke-linejoin="round" stroke-width="5.48"/><line x1="421.53" y1="244.15" x2="540.92" y2="124.69" fill="none" stroke="#ebf0f2" stroke-linecap="round" stroke-linejoin="round" stroke-width="5.48"/><path d="M397.55,268.13a118.36,118.36,0,0,0,167.36-167.4" fill="none" stroke="#ebf0f2" stroke-linecap="round" stroke-linejoin="round" stroke-width="5.48"/><line x1="481.23" y1="302.81" x2="481.23" y2="340.38" fill="none" stroke="#ebf0f2" stroke-linecap="round" stroke-linejoin="round" stroke-width="5.48"/><line x1="440.13" y1="340.38" x2="522.32" y2="340.38" fill="none" stroke="#ebf0f2" stroke-linecap="round" stroke-linejoin="round" stroke-width="5.48"/><circle cx="434.36" cy="167.9" r="8.54" fill="#fff" stroke="#f63" stroke-linecap="round" stroke-linejoin="round" stroke-width="5.48"/><circle cx="443.48" cy="223.16" r="8.54" fill="#fff" stroke="#f63" stroke-linecap="round" stroke-linejoin="round" stroke-width="5.48"/><circle cx="513.1" cy="216.93" r="8.54" transform="translate(116.33 607.96) rotate(-67.5)" fill="#fff" stroke="#f63" stroke-linecap="round" stroke-linejoin="round" stroke-width="5.48"/><circle cx="506.38" cy="159.34" r="8.54" transform="translate(165.39 566.2) rotate(-67.5)" fill="#fff" stroke="#f63" stroke-linecap="round" stroke-linejoin="round" stroke-width="5.48"/><circle cx="484.02" cy="126.6" r="8.54" fill="#fff" stroke="#f63" stroke-linecap="round" stroke-linejoin="round" stroke-width="5.48"/><rect x="377.05" y="261.94" width="43.19" height="9.64" transform="translate(-71.9 359.85) rotate(-44.98)" stroke-width="5.48" stroke="#ebf0f2" stroke-linecap="round" stroke-linejoin="round" fill="#fff"/><rect x="542.43" y="95.94" width="43.19" height="9.64" transform="translate(93.83 428.17) rotate(-44.98)" stroke-width="5.48" stroke="#ebf0f2" stroke-linecap="round" stroke-linejoin="round" fill="#fff"/><circle cx="937.77" cy="229.95" r="49.15" fill="#fff" stroke="#f63" stroke-linecap="round" stroke-linejoin="round" stroke-width="6"/><path d="M822.74,111h-4.93v1.22h5.45V114h-8.18v-7.71h8.11V108h-5.38v1.25h4.93Zm-32.59-4.55a7.47,7.47,0,0,0-2.85-.44c-2,0-3.46.62-4.29,1.79a4,4,0,0,0-.7,2.42,3.61,3.61,0,0,0,.75,2.28c.81,1.17,2.24,1.74,4.31,1.74a5.64,5.64,0,0,0,3.69-1l.91-1a3.7,3.7,0,0,0,.57-2.07,3.59,3.59,0,0,0-2.39-3.64Zm-.44,3.69a2.16,2.16,0,0,1-1.17,2.15,1.88,1.88,0,0,1-1.06.26,2.09,2.09,0,0,1-1.79-.78,2.37,2.37,0,0,1-.55-1.63,2.42,2.42,0,0,1,.52-1.61,2.14,2.14,0,0,1,1.82-.83,2.28,2.28,0,0,1,1.82.91,2.84,2.84,0,0,1,.41,1.53Zm-8.83,1.06h-4.36V114h-2.73v-7.71h7.48V108h-4.75v1.48h4.36Zm26.72-2.88a2.26,2.26,0,0,0-.7,1.82,2.39,2.39,0,0,0,.52,1.58,2.06,2.06,0,0,0,1.74.78,2.53,2.53,0,0,0,1.56-.52,1.86,1.86,0,0,0,.55-.78l2.59.26-.41,1c-.76,1.22-2.21,1.82-4.34,1.82L806.9,114a3.66,3.66,0,0,1-2.85-3.79,4,4,0,0,1,.91-2.65,5.29,5.29,0,0,1,4.2-1.51c2.47,0,4,.81,4.57,2.42l-2.54.47a1.62,1.62,0,0,0-.65-.81,2.57,2.57,0,0,0-1.3-.36,2.36,2.36,0,0,0-1.64.62Zm-4.85.42a2.27,2.27,0,0,0-.91-2,3.64,3.64,0,0,0-2.16-.52h-5.63v7.71h2.73v-2.8h1.5l1.56,2.8h3l-1.9-3.06a2.7,2.7,0,0,0,1.25-.76,2.06,2.06,0,0,0,.52-1.42Zm-2.78,0c0,.49-.39.7-1.12.7h-2.07v-1.38h2.33a1.15,1.15,0,0,1,.7.16l.16.52Zm-61.94.91a1.77,1.77,0,0,1,1.39,1.81,2.39,2.39,0,0,1-.39,1.35c-.59.91-1.94,1.38-4,1.38a4.66,4.66,0,0,1-3.17-.86,2.81,2.81,0,0,1-.8-1.63l2.72-.11c.08.57.65.89,1.69.89l.94-.19c.26-.18.38-.33.38-.57s-.15-.46-.54-.59l-3.3-.73a2,2,0,0,1-1.5-2,2.39,2.39,0,0,1,.59-1.53,4.53,4.53,0,0,1,3.25-.94l2.34.29a2.46,2.46,0,0,1,1.68,2l-2.67.13c-.13-.47-.57-.68-1.35-.68s-1.22.21-1.22.6l.1.26c.13.18.55.34,1.38.52l2.54.6ZM739.9,112h2.52v2H739.9v-2ZM726,110.29a5.09,5.09,0,0,1-.47,2.52c-.62,1-2,1.43-4.07,1.43a6.62,6.62,0,0,1-3.25-.6,2.52,2.52,0,0,1-1.3-2.44v-4.93h2.73v4.39a2.36,2.36,0,0,0,.2,1.11,1.79,1.79,0,0,0,1.62.78,1.85,1.85,0,0,0,1.29-.46,2,2,0,0,0,.47-1.48v-4.34H726v4Zm.47,1.69h2.46v2h-2.46Zm39.86-5.71h-5.61V114h2.75v-2.8h1.43l1.61,2.8h3l-1.95-3.06a2.34,2.34,0,0,0,1.3-.76,2.29,2.29,0,0,0,.47-1.42,2.39,2.39,0,0,0-.86-2,3.8,3.8,0,0,0-2.18-.52Zm-.78,3.17h-2.08v-1.38h2.26a1,1,0,0,1,.7.16.73.73,0,0,1,.21.52c0,.49-.34.7-1.09.7Zm-9.63-3.17h2.75V114h-2.75ZM750,108.4l.91,2.6h-1.77l.86-2.6Zm-1.56-2.13L745.15,114h3l.39-1.24h3L752,114h3l-3.32-7.71Z" fill="#2d2e58" fill-rule="evenodd"/><path d="M800.62,37.3,792,55.3,804.83,46l-4.21-8.7Zm5,10.07L770.19,73.13l2.13,6.44,27.35-19.86,6-12.34Zm-7.4,15.4L772.84,81.21h11l8.39-6.1,6-12.34ZM773.29,85.94a3.91,3.91,0,0,1-3.87,3.81,3.73,3.73,0,0,1-2.73-1.14,3.67,3.67,0,0,1-1.12-2.67,3.73,3.73,0,0,1,1.12-2.73,3.78,3.78,0,0,1,2.73-1.12,3.71,3.71,0,0,1,2.72,1.12A3.66,3.66,0,0,1,773.29,85.94ZM775,87.7l2.63,8.16L786,89.75l-6.93-5-4.11,3ZM734.1,46l12.83,9.29-8.63-18L734.1,46Zm5.06,13.71,27.4,19.86,2.13-6.44L733.28,47.37l5.92,12.34Zm7.4,15.4,8.42,6.1h11L740.61,62.77l5.92,12.34Zm13.22,9.6-6.93,5,8.44,6.11,2.65-8.16-4.16-3Zm9.64,17.07,6.93-5-6.93-5-6.91,5Z" fill="#2d2e58" fill-rule="evenodd"/><path d="M935.28,262.49a30.17,30.17,0,1,0-30.17-30.17h0a30.16,30.16,0,0,0,30.15,30.17Z" fill="#2e3191" fill-rule="evenodd"/><path d="M935,243.51a11.29,11.29,0,0,1-2.39-1.73l-.56.52s1.28,1.48,2,2.52l.9-1.31Z" fill="#fff" fill-rule="evenodd"/><path d="M926.72,249.66a.35.35,0,0,0,.41-.3.35.35,0,0,0-.29-.41h-.12a.36.36,0,0,0-.3.41A.37.37,0,0,0,926.72,249.66Z" fill="#fff" fill-rule="evenodd"/><path d="M927.05,252.42a.27.27,0,1,0-.27-.27.27.27,0,0,0,.27.27Z" fill="#fff" fill-rule="evenodd"/><path d="M939.55,249.78a.25.25,0,1,0-.25-.25A.25.25,0,0,0,939.55,249.78Z" fill="#fff" fill-rule="evenodd"/><path d="M948,244.66a.16.16,0,0,0,.17-.15v0a.18.18,0,0,0-.17-.17h0a.17.17,0,0,0,0,.34Z" fill="#fff" fill-rule="evenodd"/><path d="M948.25,248a.18.18,0,0,0,.17-.17h0a.18.18,0,0,0-.17-.17.18.18,0,0,0-.18.17.18.18,0,0,0,.17.17Z" fill="#fff" fill-rule="evenodd"/><path d="M949.83,254.33a.36.36,0,0,0,.3-.41.37.37,0,0,0-.3-.3.35.35,0,0,0-.41.3.35.35,0,0,0,.29.41Z" fill="#fff" fill-rule="evenodd"/><path d="M950.18,243.2a.36.36,0,0,0,.36-.36h0a.38.38,0,0,0-.3-.43.38.38,0,0,0-.43.31.24.24,0,0,0,0,.12.36.36,0,0,0,.35.37Z" fill="#fff" fill-rule="evenodd"/><path d="M950.28,245.26a.18.18,0,0,0,.18-.18h0a.18.18,0,1,0-.19.19Z" fill="#fff" fill-rule="evenodd"/><path d="M953.72,241.35a.19.19,0,0,0,.18-.19.18.18,0,0,0-.18-.18h0a.18.18,0,0,0-.19.17h0A.2.2,0,0,0,953.72,241.35Z" fill="#fff" fill-rule="evenodd"/><path d="M957.08,245.19a.23.23,0,0,0,0-.46.24.24,0,0,0-.22.23.23.23,0,0,0,.23.23Z" fill="#fff" fill-rule="evenodd"/><path d="M958.58,244.48a.31.31,0,1,0,.11-.61h-.11a.31.31,0,0,0-.25.36A.3.3,0,0,0,958.58,244.48Z" fill="#fff" fill-rule="evenodd"/><path d="M954.27,247.71a.31.31,0,0,0,.29-.3.29.29,0,0,0-.29-.29.28.28,0,0,0-.29.28h0a.31.31,0,0,0,.29.3Z" fill="#fff" fill-rule="evenodd"/><path d="M957.36,249.11a.16.16,0,1,0-.16-.16.16.16,0,0,0,.16.16Z" fill="#fff" fill-rule="evenodd"/><path d="M937.73,209.74a.37.37,0,1,0-.37-.37h0a.36.36,0,0,0,.35.37Z" fill="#fff" fill-rule="evenodd"/><path d="M936.27,205.9a.21.21,0,0,0,.21-.21h0a.2.2,0,0,0-.2-.2h0a.21.21,0,0,0-.25.16.21.21,0,0,0,.16.25Z" fill="#fff" fill-rule="evenodd"/><path d="M935.92,210.66a.12.12,0,1,0-.12-.12h0A.12.12,0,0,0,935.92,210.66Z" fill="#fff" fill-rule="evenodd"/><path d="M930.18,211.21a.27.27,0,1,0-.27-.27.27.27,0,0,0,.27.27Z" fill="#fff" fill-rule="evenodd"/><path d="M929.69,210.59a.13.13,0,0,0,.12-.13.13.13,0,0,0-.12-.12.13.13,0,0,0-.13.12.13.13,0,0,0,.13.13Z" fill="#fff" fill-rule="evenodd"/><path d="M941.6,216.09a.26.26,0,1,0-.26-.26.26.26,0,0,0,.26.26Z" fill="#fff" fill-rule="evenodd"/><path d="M944.73,231.13s4.54,1.39,3,5.3c0,0-2,4-7.82,2l-1.2,1.07v-3.78l1.71,1.29s3.91,1.06,4-1.18c0,0-.2-.83-3.21-1.75,0,0-3.49-1.07-2.7-4.15,0,0,.56-4.8,7.5-2.86l1.21-.66v3.67l-1.49-1.47s-3.14-1-3.6.51,1.53,1.55,2.67,2Z" fill="#fff" fill-rule="evenodd"/><polygon points="951.54 226.88 956.77 226.88 960.99 237.05 962.38 238.4 955.24 238.4 956.38 237.26 955.8 235.73 951.95 235.73 951.5 237.32 952.3 238.4 948.91 238.4 950.07 237.24 952.87 228.31 951.54 226.88 951.54 226.88" fill="#fff" fill-rule="evenodd"/><polygon points="955.28 234.14 953.65 230.19 952.4 234.14 955.28 234.14 955.28 234.14" fill="#2e3191" fill-rule="evenodd"/><path d="M934.32,208.94a.37.37,0,1,0-.37-.37h0A.38.38,0,0,0,934.32,208.94Z" fill="#fff" fill-rule="evenodd"/><path d="M924.93,217.1a.26.26,0,1,0-.26-.26.26.26,0,0,0,.26.26Z" fill="#fff" fill-rule="evenodd"/><path d="M925.71,218.4a.26.26,0,1,0-.26-.26A.26.26,0,0,0,925.71,218.4Z" fill="#fff" fill-rule="evenodd"/><path d="M928,221.33a.12.12,0,1,0-.12-.12h0A.12.12,0,0,0,928,221.33Z" fill="#fff" fill-rule="evenodd"/><path d="M930.81,211.42a.12.12,0,1,0-.12-.12A.12.12,0,0,0,930.81,211.42Z" fill="#fff" fill-rule="evenodd"/><path d="M930.47,212.89a.21.21,0,0,0,.25-.16.21.21,0,0,0-.16-.25h-.09a.21.21,0,0,0-.21.21h0a.2.2,0,0,0,.2.2Z" fill="#fff" fill-rule="evenodd"/><path d="M934.8,211.42a.21.21,0,0,0,.25-.16.21.21,0,0,0-.16-.25h-.09a.2.2,0,0,0-.21.19h0a.21.21,0,0,0,.21.21Z" fill="#fff" fill-rule="evenodd"/><path d="M937.42,213a.21.21,0,0,0,.21-.21h0a.23.23,0,0,0-.21-.21.21.21,0,0,0-.21.21h0a.21.21,0,0,0,.21.21Z" fill="#fff" fill-rule="evenodd"/><path d="M955.14,249.46a.46.46,0,1,0-.45-.47h0A.46.46,0,0,0,955.14,249.46Z" fill="#fff" fill-rule="evenodd"/><polygon points="954.87 248.62 955.15 247.84 955.4 248.61 954.87 248.62 954.87 248.62" fill="#fff" fill-rule="evenodd"/><polygon points="954.87 249.34 955.15 250.12 955.4 249.35 954.87 249.34 954.87 249.34" fill="#fff" fill-rule="evenodd"/><polygon points="954.77 249.28 954 249 954.77 248.75 954.77 249.28 954.77 249.28" fill="#fff" fill-rule="evenodd"/><polygon points="955.51 249.28 956.29 249 955.52 248.75 955.51 249.28 955.51 249.28" fill="#fff" fill-rule="evenodd"/><path d="M954.32,243.1a.29.29,0,0,0,0-.58h0a.29.29,0,0,0,0,.58Z" fill="#fff" fill-rule="evenodd"/><path d="M944.84,255.09a.29.29,0,1,0-.29-.29.29.29,0,0,0,.29.29Z" fill="#fff" fill-rule="evenodd"/><path d="M933.93,251.89a.31.31,0,0,0,.3-.29.32.32,0,0,0-.3-.3.31.31,0,0,0-.29.3A.29.29,0,0,0,933.93,251.89Z" fill="#fff" fill-rule="evenodd"/><path d="M923.67,252a.3.3,0,0,0,.11-.59h-.11a.3.3,0,0,0-.24.35A.3.3,0,0,0,923.67,252Z" fill="#fff" fill-rule="evenodd"/><path d="M924.84,245.26a.2.2,0,0,0,.2-.2h0a.19.19,0,0,0-.19-.19h0a.18.18,0,0,0-.19.17v0a.19.19,0,0,0,.18.2Z" fill="#fff" fill-rule="evenodd"/><path d="M921.34,247.66a.21.21,0,0,0,.19-.19.2.2,0,0,0-.19-.21.2.2,0,0,0,0,.4Z" fill="#fff" fill-rule="evenodd"/><path d="M925.58,239.66a.18.18,0,0,0,.19-.17v0a.19.19,0,0,0-.18-.2h0a.2.2,0,0,0-.2.2h0a.19.19,0,0,0,.19.19Z" fill="#fff" fill-rule="evenodd"/><path d="M913.42,245.34a.18.18,0,0,0,.19-.17v0a.19.19,0,0,0-.18-.2h0a.2.2,0,0,0-.2.2h0a.19.19,0,0,0,.19.19Z" fill="#fff" fill-rule="evenodd"/><path d="M916.7,245.66a.2.2,0,0,0,.2-.2h0a.19.19,0,0,0-.19-.19h0a.2.2,0,0,0-.19.19h0A.2.2,0,0,0,916.7,245.66Z" fill="#fff" fill-rule="evenodd"/><path d="M916.1,247.23a.39.39,0,0,0,0-.76.35.35,0,0,0-.41.29.24.24,0,0,0,0,.12.35.35,0,0,0,.35.35Z" fill="#fff" fill-rule="evenodd"/><path d="M917.22,248.58a.35.35,0,0,0,.41-.3.35.35,0,0,0-.29-.41h-.12a.36.36,0,0,0-.3.41A.37.37,0,0,0,917.22,248.58Z" fill="#fff" fill-rule="evenodd"/><path d="M962.33,215.28c5.43-4.48,9.9-8.33,11.47-11.25,0,0-3.45,11.53-19.55,23.58,0,0-24.58,16.78-31.3,21.49a60.63,60.63,0,0,0-11.46,11.17l-.07-1.11s3.94-5.8,12.91-12.14c7.9-5.57,10.84-7.44,10.84-7.44s18.75-11.74,22.63-16.85c0,0-13.45,7.72-36.65,12.21,0,0-10.74,2.7-17.75,7.08h-1s6.12-5.2,20.32-9.24c0,0,24-7.13,39.63-17.5Z" fill="#ec1c24" fill-rule="evenodd"/><polygon points="910.47 226.92 915.32 226.92 919.47 233.91 919.47 227.78 918.71 226.92 921.76 226.92 921 228.1 921 237.2 922.1 238.42 917.26 238.42 913.11 231.24 913.11 237.25 914 238.43 910.33 238.43 911.37 237.17 911.37 228.3 910.47 226.92 910.47 226.92" fill="#fff" fill-rule="evenodd"/><polygon points="926.62 226.9 931.98 226.9 935.82 237.07 937.2 238.42 930.33 238.42 931.47 237.28 930.88 235.76 927.04 235.76 926.8 237.35 927.6 238.42 923.99 238.42 925.28 237.26 927.96 228.33 926.62 226.9 926.62 226.9" fill="#fff" fill-rule="evenodd"/><polygon points="930.36 234.16 928.74 230.22 927.49 234.16 930.36 234.16 930.36 234.16" fill="#2e3191" fill-rule="evenodd"/><polygon points="928.54 230.88 928.96 230.73 929.87 232.96 927.7 233.5 928.54 230.88 928.54 230.88" fill="#ec1c24" fill-rule="evenodd"/><path d="M938.58,231.66a3.43,3.43,0,0,1,2-4.4l.38-.11s1.73-1.38,5.37,0l.79-.71v3.67s-1.66-1.74-2.87-1.92-2.43.18-2.25,1.91l-3.47,1.56Z" fill="#fff" fill-rule="evenodd"/><path d="M941.32,249a13.66,13.66,0,0,0,5,1.91,4.75,4.75,0,0,0,3.59-.71l.34-.29c4.31-4.11-.83-17.67-8.84-26.08h0s-.74-.86-1.25-1.37l.27-.27c.48.48,1.19,1.3,1.26,1.38h0c8.14,8.53,13.28,22.37,8.83,26.61a2.92,2.92,0,0,1-.38.32,5.08,5.08,0,0,1-3.86.79,14.29,14.29,0,0,1-5.15-2l.19-.33Z" fill="#fff"/><path d="M941,223.4l-.18-.21h0l-.18-.21c-3.86-4.48-7.22-7.21-10-8.63-3.29-1.66-5.86-1.54-7.69-.39-1.58,1-2.17,3.88-1.11,8.31.9,3.73,3,8.54,6.66,14.2h0s3.37,4.67,3.74,4.94l-.26.35c-.42-.32-3.82-5-3.83-5h0c-3.71-5.72-5.81-10.57-6.72-14.34-1.11-4.63-.43-7.68,1.3-8.77,2-1.23,4.67-1.37,8.12.36,2.87,1.45,6.27,4.21,10.18,8.74l.18.21h0l.18.21-.33.28Z" fill="#fff"/><path d="M934.26,245.05c.84.72,1.76,1,2.06.67s-.14-1.22-1-1.94-1.77-1-2.07-.67.14,1.21,1,1.94Z" fill="#fff" fill-rule="evenodd"/><path d="M942.16,209.86a.58.58,0,1,0-.57-.59h0a.58.58,0,0,0,.56.58Z" fill="#fff" fill-rule="evenodd"/><polygon points="941.82 208.81 942.17 206.8 942.48 208.8 941.82 208.81 941.82 208.81" fill="#fff" fill-rule="evenodd"/><polygon points="941.82 209.72 942.17 211.73 942.48 209.73 941.82 209.72 941.82 209.72" fill="#fff" fill-rule="evenodd"/><polygon points="941.7 209.63 939.6 209.29 941.69 208.97 941.7 209.63 941.7 209.63" fill="#fff" fill-rule="evenodd"/><polygon points="942.62 209.63 944.8 209.29 942.63 208.97 942.62 209.63 942.62 209.63" fill="#fff" fill-rule="evenodd"/><path d="M928.11,218a.58.58,0,1,0-.57-.59v0a.58.58,0,0,0,.57.57Z" fill="#fff" fill-rule="evenodd"/><polygon points="927.77 216.9 928.12 214.89 928.43 216.89 927.77 216.9 927.77 216.9" fill="#fff" fill-rule="evenodd"/><polygon points="927.77 217.81 928.12 219.82 928.43 217.82 927.77 217.81 927.77 217.81" fill="#fff" fill-rule="evenodd"/><polygon points="927.65 217.73 925.55 217.38 927.64 217.07 927.65 217.73 927.65 217.73" fill="#fff" fill-rule="evenodd"/><polygon points="928.57 217.73 930.75 217.38 928.58 217.07 928.57 217.73 928.57 217.73" fill="#fff" fill-rule="evenodd"/><path d="M924.93,256a.58.58,0,1,0-.57-.59v0A.59.59,0,0,0,924.93,256Z" fill="#fff" fill-rule="evenodd"/><polygon points="924.6 254.95 924.94 252.94 925.25 254.94 924.6 254.95 924.6 254.95" fill="#fff" fill-rule="evenodd"/><polygon points="924.6 255.86 924.94 257.87 925.25 255.87 924.6 255.86 924.6 255.86" fill="#fff" fill-rule="evenodd"/><polygon points="924.47 255.78 922.37 255.43 924.46 255.12 924.47 255.78 924.47 255.78" fill="#fff" fill-rule="evenodd"/><polygon points="925.39 255.78 927.58 255.43 925.4 255.12 925.39 255.78 925.39 255.78" fill="#fff" fill-rule="evenodd"/><path d="M957.92,243a.57.57,0,1,0-.58-.57.58.58,0,0,0,.58.57Z" fill="#fff" fill-rule="evenodd"/><polygon points="957.58 241.97 957.92 239.96 958.24 241.96 957.58 241.97 957.58 241.97" fill="#fff" fill-rule="evenodd"/><polygon points="957.58 242.87 957.92 244.88 958.24 242.88 957.58 242.87 957.58 242.87" fill="#fff" fill-rule="evenodd"/><polygon points="957.45 242.79 955.35 242.44 957.44 242.13 957.45 242.79 957.45 242.79" fill="#fff" fill-rule="evenodd"/><polygon points="958.37 242.79 960.56 242.44 958.38 242.13 958.37 242.79 958.37 242.79" fill="#fff" fill-rule="evenodd"/><path d="M804.25,361.9H844V345.13H804.25Zm39.34-16.33v15.89h-38.9V345.57Z" fill="#004967" fill-rule="evenodd"/><polygon points="732.94 361.9 802.5 361.9 802.5 345.13 732.94 345.13 732.94 361.9 732.94 361.9" fill="#004967" fill-rule="evenodd"/><path d="M843.59,345.57v15.89h-38.9V345.57Z" fill="#fff" fill-rule="evenodd"/><path d="M757,354.66c0,1.66-.87,2.45-2.89,2.45h-3.17V351H754c2.37,0,3,1.14,3,2.46v1.23Zm1.23,0v-1.1c0-3.42-2.63-3.51-4.39-3.51h-4.12v8h4.47c3.52,0,4-1.93,4-3.42Z" fill="#fff" fill-rule="evenodd"/><path d="M765.17,356c0,.53,0,1-.53,1.14a6.19,6.19,0,0,1-1.49.09,2.92,2.92,0,0,1-1.49-.18c-.18-.08-.26-.35-.26-.7a1,1,0,0,1,.35-.88,5.72,5.72,0,0,1,1.49-.08h1.93V356Zm1.23,2v-4.46a1.16,1.16,0,0,0-.44-.7,5.64,5.64,0,0,0-2.72-.44c-.53,0-2,0-2.55.53-.17.08-.17.26-.17.52v.62h1.23a1,1,0,0,1,.17-.7c.09-.09.35-.18,1.23-.18a4.47,4.47,0,0,1,1.85.18,1,1,0,0,1,.17.7v.57h-2.75c-.7,0-1.58,0-2,.61a2.15,2.15,0,0,0-.26,1.14c0,1.32.79,1.76,2.89,1.76a3.54,3.54,0,0,0,2.2-.53l.09.44Z" fill="#fff" fill-rule="evenodd"/><path d="M773.69,358V355c0-1.06-.09-1.32-.26-1.5a3.1,3.1,0,0,0-1.5-.26,7.42,7.42,0,0,0-1.93.26V358h-1.23v-5.62h1.14l.09.44a1.37,1.37,0,0,1,.62-.35,7,7,0,0,1,1.58-.18,5.05,5.05,0,0,1,1.84.35,1.29,1.29,0,0,1,.79,1c0,.26.09.53.09,1.14v3.25Z" fill="#fff" fill-rule="evenodd"/><path d="M782.56,357.66a6.37,6.37,0,0,1-2.63.44,11.31,11.31,0,0,1-2-.27.94.94,0,0,1-.88-.87,2.63,2.63,0,0,1,.09-.79h1.14v.49c.08.27.08.44.35.53a5.54,5.54,0,0,0,1.4.18,3.68,3.68,0,0,0,1.67-.27c.27-.08.35-.35.35-.7s-.08-.61-.52-.7h-.44c-.09-.09-.35-.09-.79-.09h-.71c-1.14-.09-2.45-.09-2.45-1.49s.79-1.76,2.89-1.76c.53,0,1.23.09,1.58.09a3.13,3.13,0,0,1,1.15.35c.26.09.35.35.35.79V354h-1.23v-.26c-.09-.27-.09-.35-.18-.35a2.36,2.36,0,0,0-1.4-.27,5.41,5.41,0,0,0-1.5.18c-.35.09-.44.35-.44.7a1,1,0,0,0,.18.62,12.11,12.11,0,0,0,2.55.17,2.68,2.68,0,0,1,1.31.18c.62.17.88.61.88,1.4a1.3,1.3,0,0,1-.7,1.32Z" fill="#fff" fill-rule="evenodd"/><polygon points="789.94 358.04 787.04 355.4 786.6 355.4 786.6 358.04 785.46 358.04 785.46 350.05 786.6 350.05 786.6 354.61 787.04 354.61 789.5 352.42 790.9 352.42 788.1 354.88 791.52 358.04 789.94 358.04 789.94 358.04" fill="#fff" fill-rule="evenodd"/><path d="M797.49,354.66h-3.86c.08-.7.17-1.05.52-1.23a3.1,3.1,0,0,1,1.5-.26c1,0,1.58.18,1.75.7a1.76,1.76,0,0,1,.09.79Zm1.14,1.58h-1.21c0,.18,0,.62-.17.79s-.53.27-1.5.27a2.48,2.48,0,0,1-1.75-.44c-.27-.18-.35-.62-.35-1.32v-.09h5v-.61c0-.88-.09-1.41-.53-1.76a3.19,3.19,0,0,0-2.45-.7c-1.59,0-2.55.35-2.9,1.05a3.57,3.57,0,0,0-.35,1.85c0,1.23.26,2,1,2.37a4.64,4.64,0,0,0,2.2.44,8.07,8.07,0,0,0,2.19-.27c.71-.26.88-.61.88-1v-.62Z" fill="#fff" fill-rule="evenodd"/><path d="M814.42,352.07c0,1.14-.62,1.4-2,1.4h-3v-2.54h3.16c1.23,0,1.85.08,1.85,1.14Zm1.58,3.69c0-1-.53-1.67-1.93-1.94h0c1-.26,1.67-.79,1.67-1.66,0-1.41-.71-2.11-2.64-2.11h-5v8h5.18c1.75,0,2.72-.79,2.72-2.28Zm-1.23.08c0,1.15-.88,1.23-2.11,1.23h-3.24v-2.72h3.43c1.49,0,1.93.53,1.93,1.49Z" fill="#004967" fill-rule="evenodd"/><path d="M822.61,356c0,.53-.09,1-.62,1.14a5.32,5.32,0,0,1-1.49.09,2.83,2.83,0,0,1-1.41-.18c-.26-.08-.26-.35-.26-.7s.09-.79.35-.88a4.76,4.76,0,0,1,1.41-.08h2V356Zm1.14,2v-4.46a1.21,1.21,0,0,0-.44-.7,5.64,5.64,0,0,0-2.72-.44c-.53,0-1.94,0-2.46.53a.51.51,0,0,0-.27.52v.62h1.23a1,1,0,0,1,.18-.7,2.58,2.58,0,0,1,1.23-.18,4.4,4.4,0,0,1,1.84.18c.27.17.27.43.27.7v.57h-2.73a2.51,2.51,0,0,0-2.1.61,2.16,2.16,0,0,0-.27,1.14c0,1.32.79,1.76,2.9,1.76a3.65,3.65,0,0,0,2.28-.53l.09.44Z" fill="#004967" fill-rule="evenodd"/><path d="M830.77,358V355c0-1.06-.08-1.32-.35-1.5a2.51,2.51,0,0,0-1.4-.26,7,7,0,0,0-1.94.26V358h-1.23v-5.62h1.06l.09.44a2.55,2.55,0,0,1,.7-.35,7,7,0,0,1,1.58-.18,5.51,5.51,0,0,1,1.84.35,1.48,1.48,0,0,1,.79,1v4.39Z" fill="#004967" fill-rule="evenodd"/><polygon points="838.59 358.04 835.69 355.4 835.25 355.4 835.25 358.04 834.02 358.04 834.02 350.05 835.25 350.05 835.25 354.61 835.69 354.61 838.06 352.42 839.47 352.42 836.66 354.88 840.17 358.04 838.59 358.04 838.59 358.04" fill="#004967" fill-rule="evenodd"/><path d="M456.73,88.59s-.51-.93-1.58-2.54" fill="none" stroke="#001350" stroke-miterlimit="10" stroke-width="2"/><path d="M451.69,81.32c-9.26-11.74-31.85-33.95-72.49-38.1-63.21-6.47-106.62,12.46-120.95,20" fill="none" stroke="#001350" stroke-miterlimit="10" stroke-width="2" stroke-dasharray="5.87 5.87"/><path d="M255.67,64.58l-2.59,1.52" fill="none" stroke="#001350" stroke-miterlimit="10" stroke-width="2"/><path d="M386.31,214.77s-32.63,43.82-70.19,66C251.7,318.66,189.64,306.1,189.64,306.1" fill="none" stroke="#001350" stroke-miterlimit="10" stroke-width="2" stroke-dasharray="6 6"/><path d="M612.42,147.88s22.66,21.33,50.66,5.33l35-20" fill="none" stroke="#001350" stroke-miterlimit="10" stroke-width="2" stroke-dasharray="6 6"/><path d="M613.42,215.38s17,33.13,92,17.34c60.35-12.72,79.59-31.34,120-29.34,31.17,1.55,53.33,25.34,53.33,25.34" fill="none" stroke="#001350" stroke-miterlimit="10" stroke-width="2" stroke-dasharray="6 6"/><path d="M573.42,276.72s52,13.33,52,64,37.33,74.66,62.67,68,30.66-12,30.66-12" fill="none" stroke="#001350" stroke-miterlimit="10" stroke-width="2" stroke-dasharray="6 6"/><circle cx="22.12" cy="182.05" r="10" fill="#f63" opacity="0.2" style="isolation:isolate"/><circle cx="302.12" cy="145.38" r="7.33" fill="#ebf0f2"/><circle cx="580.78" cy="371.38" r="7.33" fill="#ebf0f2"/><circle cx="280.78" cy="376.05" r="22" fill="#f63" opacity="0.2" style="isolation:isolate"/><circle cx="911.12" cy="135.05" r="26.33" fill="#ebf0f2"/><circle cx="515.45" cy="41.38" r="14" fill="#f63" opacity="0.2" style="isolation:isolate"/><circle cx="896.78" cy="374.71" r="11.33" fill="#f63" opacity="0.2" style="isolation:isolate"/><path d="M176.08,84.22a2.57,2.57,0,0,0,2.61.79,28.06,28.06,0,0,1,6.56-1.24,16,16,0,0,1,5.51.75c.58.28.88.7.66,1.19a2.31,2.31,0,0,0-.66,2c0,.1-.26.18-.28-.09a1,1,0,0,0-.19-.91c-.54-.54-1.88-.68-2.92-.9-3.46-.69-7.34-.25-10.75.27a1.74,1.74,0,0,1-1.52-.74c-.28-.73.46-.55.16-1.47a.58.58,0,0,1,0-.22c0-.1.15-.29.28-.31.3.11.11.39.56.85" fill="#ee3224"/><path d="M175.53,86.81c.15.13.3.09.31.17s-.28.62-.55.89a6.07,6.07,0,0,0-1.8,1c-1.46.92-3.59,0-5.37,0A2,2,0,0,0,166.41,90c-.28.28-.39.35-.68.26s0-.21,0-.28.49-.26.46-.58-.35-.61,0-1.13c1.55-1.92,5.14-.52,7.64-.74.72-.16.73-.42.53-.4-2.19.2-3.19-2-5.53-1.38-1.81.39-4.33,2.7-5.75.62-.61-1.14.94-.56.66-1.64,0-.3.52-.53.54-.17a1.53,1.53,0,0,0,1.07,1.16c2.71.25,4.85-2.36,7.59-.83.9.6,1.63,1.33,2.59,1.89" fill="#ee3224"/><path d="M172.77,105.75c0,.12.14.23.21,0"/><path d="M186.52,81.44a2.12,2.12,0,0,0-.38-.31l-.69-.4a4.17,4.17,0,0,1-1.89-1.79c0-.33.36-.36.55-.13a2.86,2.86,0,0,0,1.44,1c.76.08,1.52.24,1.79.78a2.72,2.72,0,0,1,.08,1.77c-.44.34-.5-.56-.9-1" fill="#77787b"/><path d="M178.29,79.39a2.3,2.3,0,0,1,1.49-.07c.91.4,1.39,2.08,2.7,1.34l.18-.11a.74.74,0,0,1,.94.42c.32.84.92,2,.91,2.1-.13.32-.45,0-.62-.08a7.68,7.68,0,0,0-2.17-1.23c-.57-.32-.93-.79-1.36-1-1.21-.5-3-.27-3.4-1.49a.29.29,0,0,1,.23-.34c.2,0,.52.57,1.1.47" fill="#77787b"/><path d="M189.56,81.46c.42.32,1.2.54,1.17,1s-.31.49-.6.6-.51.08-.66-.36a2,2,0,0,0-.59-1.35c-.14-.22-.15-.32,0-.5.37-.25.35.39.67.57" fill="#77787b"/><path d="M198.84,88.3c.21.48.56,1.57.17,1.87-.36,0,.11-.6-.5-.63-1.34.36-2,2.3-2.24,2.83a11.41,11.41,0,0,0-1.43,5.93c0,.17.14.54,0,.58-.71-.09-.56-2.65-.43-3.65a15.43,15.43,0,0,1,2.68-7,1.23,1.23,0,0,1,.85-.41.83.83,0,0,1,.87.45" fill="#77787b"/><path d="M185.14,88.59a.08.08,0,0,1,.06.1c0,.08-.06.06-.06.06a9.11,9.11,0,0,0-3.39.55,6.77,6.77,0,0,0-1.71.85c-.56-.14.36-.54-.1-1-.2-.3.12-.39.33-.42a10.67,10.67,0,0,1,4.87-.13" fill="#77787b"/><path d="M190.7,89.37c.12.23-.33.12-.81.31s-.69.44-.74.8c0,.18.41,0,.85.36.13.12.34.35.13.6s-.82.56-1,.21.35-.2.07-.54a.31.31,0,0,0-.28,0c-.57,1.23-.34,3-.66,4.39a2.39,2.39,0,0,1-1.21,1c-.16,0-.66-.49-1.07-.29a.92.92,0,0,1-1,.17c-.21-.12-.51-.15-.46-.42.23-.2.67.2,1.07,0a.68.68,0,0,1,.71-.18,2.55,2.55,0,0,0,1.48-.08c.56-.51.15-.84,0-3.09,0-.15-.31-2,.87-2.77a3.48,3.48,0,0,1,2.1-.42" fill="#77787b"/><path d="M185.06,90.37c.46.42-1.14-.16-1.37.12,0,.29.62.55.1.8a1.36,1.36,0,0,1-1.13.29c-.31-.36.56-.31.26-.67-.49-.4-1,.18-1.46.36-.32,0,0-.21-.09-.45s-.21-.49.13-.62c1-.23,3.09-.25,3.56.17" fill="#77787b"/><path d="M174.63,90.92c.09.14.17,0,.44.21s.13.31.23.42.37,0,.22.64a8.09,8.09,0,0,0,0,3.18c.05.19.17.43.08.52s-.18,0-.3-.27a9.38,9.38,0,0,1-1-5c.12-.11.24-.18.31.26" fill="#77787b"/><path d="M191.1,91.82a11.74,11.74,0,0,1-1.17,5.68c-.87,1.45-1.67,3-2.62,4.39-.23.25-.05.12-.23.25a2.72,2.72,0,0,1-1.9.4,9.8,9.8,0,0,1-2.36-.53,25.47,25.47,0,0,1-4.1-2.39s-.12-.11-.08-.14a.07.07,0,0,1,.08,0c2.07,1.14,4.45,2.41,7.21,2.1,1.53-.44,1.88-1.85,2.67-2.86a13.56,13.56,0,0,0,2.33-6.89c0-.14.14-.15.17,0" fill="#77787b"/><path d="M186.86,97.3c.18-.22.39-.17.48,0l.18.6c0,.07,0,.17-.12.07s-.83-.42-1.09.11c-.07,0-.07,0-.12,0-.23-.12-.57-.68-1.09-.27-.34.18-.81.6-1.41.4-.15-.08-.24-.17-.13-.24.84,0,1.33-.56,1.95-.86.5-.08.93.85,1.35.19" fill="#77787b"/><path d="M187.08,98.49s.08.05.08.05a1.22,1.22,0,0,1-.91,1.12,2,2,0,0,1-1.65-.93.34.34,0,0,1-.07-.13c0-.06.07,0,.07,0,.71.26,1.76.56,2.39,0a.36.36,0,0,1,.09-.05" fill="#77787b"/><path d="M193.8,100.42s.22.08.16.2a.26.26,0,0,1-.17.13c-1.29.62-1,2.11-1.42,3.43s-1.69,1.73-1.86,3.1c0,.09-.09.24-.22,0a2.56,2.56,0,0,1,.05-2.08c.44-1,2-1.09,1.82-2.52-.08-1.07-.22-2,.38-2.75.22-.16.55-.35.74,0,0,.41.14.36.52.47" fill="#77787b"/><path d="M195.55,101.56c.16.09-.5.48-.7.79-.3.46-.37.85-.63.69-.06-.05,0-.26-.06-.42s-.4-.05-.14-.41c.12-.13,1-.77,1.53-.65" fill="#77787b"/><path d="M195.29,103.62c0,.06-.08.1-.08.1a4.09,4.09,0,0,0-1.44,2.09s-.05.1-.11.12-.16-.13-.16-.13c0-.86-.7-.23-.57-.82a2.74,2.74,0,0,1,2.29-1.39.05.05,0,0,1,.07,0" fill="#77787b"/><path d="M173.64,92.17c0-.15-.08-.31-.2-.09v0a3.5,3.5,0,0,1-1.68,1.56c-.56.22.15.52-.39,1-.1.11-.1.62.22.42a5.09,5.09,0,0,0,2-2.88" fill="#77787b"/><path d="M173,105.76a24,24,0,0,0,.8-4.26c1.12-.52,2.13-1.45,2.19-2.3.09-1-.92-1.48-1.74-2a12,12,0,0,0-.38-2.77s0-.11-.09-.13-.12,0-.12,0a6.19,6.19,0,0,0-.9,2.26,3,3,0,0,0-1.71-.13c-.22.11-.45.32-.26.58a2.09,2.09,0,0,0,1.89,1c-.08.85-.12,1.25-.18,2.08,0,0,0,.62,0,1.18-1,.47-2,.93-2.23,1.94a1.39,1.39,0,0,0,.71,1.34c.47.39.12.91.2,1s.24,0,.47-.24c.45-.76-.27-1.23-.13-2.06a1.69,1.69,0,0,1,1-1.16c.09,1.17.09,2.43.26,3.54M174.9,99a1,1,0,0,1-.29,1.15,1.58,1.58,0,0,1-.66.49c.05-.68.12-1.52.2-2.19a1,1,0,0,1,.75.55" fill="#77787b"/><path d="M172.76,105.82c0,.13.14.24.21,0"/><path d="M220.32,111.34h-2.27l-4.59,11.54H216l.8-2.22h4.81l.82,2.22H225m-7.4-4.36,1.59-4.36,1.63,4.36Z" fill="#ee3224"/><path d="M172.07,111.9a7.41,7.41,0,0,0-3.3-.56h-4.19v11.54h4.19a7.41,7.41,0,0,0,3.3-.56c1.79-.85,2.86-2.62,2.86-5.21s-1.07-4.36-2.86-5.21m-.91,8.38a4.25,4.25,0,0,1-2.13.45h-2.09v-7.24H169a4.25,4.25,0,0,1,2.13.45,4.29,4.29,0,0,1,0,6.34" fill="#ee3224"/><polyline points="185.6 111.34 176.29 111.34 176.29 122.88 186 122.88 185.31 120.73 178.65 120.73 178.65 118.03 184.21 118.03 184.21 115.88 178.65 115.88 178.65 113.49 185.13 113.49" fill="#ee3224"/><rect x="209.79" y="111.34" width="2.35" height="11.54" fill="#ee3224"/><polyline points="234.23 120.73 228.66 120.73 228.66 111.34 226.31 111.34 226.31 122.88 234.93 122.88" fill="#ee3224"/><polyline points="197.94 111.34 195.59 111.34 195.59 118.74 189.82 111.34 187.26 111.34 187.26 122.88 189.6 122.88 189.6 114.74 195.81 122.88 197.94 122.88" fill="#ee3224"/><path d="M137.83,111.72a8.05,8.05,0,0,0-3.15-.38h-4.74v11.54h2.35v-3.83h2.39a8.05,8.05,0,0,0,3.15-.38,3.82,3.82,0,0,0,0-7m-1,5a4.67,4.67,0,0,1-1.9.22h-2.64v-3.42h2.64a4.67,4.67,0,0,1,1.9.22,1.51,1.51,0,0,1,.87,1.5,1.49,1.49,0,0,1-.87,1.48" fill="#ee3224"/><path d="M148.92,118.14v0a3,3,0,0,0,2.32-3.17,3.38,3.38,0,0,0-1.94-3.13,5.47,5.47,0,0,0-2.52-.45h-5.5v11.54h2.34v-4.09H145a3.43,3.43,0,0,1,1.39.22c1,.42,1.77,1.56,2.56,3.87h2.73c-.69-2-1.61-3.87-2.79-4.74m-.85-1.7a3,3,0,0,1-1.34.2h-3.11v-3.15h3.11a2.86,2.86,0,0,1,1.34.2,1.58,1.58,0,0,1,0,2.75" fill="#ee3224"/><polyline points="209.05 111.34 198.86 111.34 198.86 113.49 202.59 113.49 202.59 122.88 204.93 122.88 204.93 113.49 208.36 113.49" fill="#ee3224"/><path d="M157.62,123.19c2.26,0,4.13-.92,4.82-2.82a5.55,5.55,0,0,0,.27-2v-7h-2.34v7a3.35,3.35,0,0,1-.23,1.43,3,3,0,0,1-5,0,3.38,3.38,0,0,1-.22-1.43v-7h-2.35v7a5.55,5.55,0,0,0,.27,2c.69,1.9,2.57,2.82,4.83,2.82" fill="#ee3224"/></svg>