<?xml version="1.0" encoding="UTF-8" standalone="no"?><svg width="313" height="100" viewBox="0 0 313 100" fill="none" xmlns="http://www.w3.org/2000/svg">
<g clip-path="url(#clip0_288_4090)">
<path d="M75.1908 45.84C75.1908 36.19 66.3508 22.32 49.2608 22.32C33.7808 22.32 23.3208 35.59 23.3208 49.26C23.3208 65.54 34.5808 77.2 53.8808 77.2H90.4708C86.0549 84.0437 79.9807 89.6601 72.8126 93.5274C65.6445 97.3946 57.6153 99.3872 49.4708 99.32C39.6486 99.322 30.0463 96.4112 21.8785 90.9557C13.7106 85.5002 7.344 77.745 3.58382 68.671C-0.176365 59.597 -1.16122 49.6117 0.753788 39.978C2.6688 30.3442 7.39767 21.4947 14.3423 14.5486C21.287 7.60256 30.1356 2.87191 39.7689 0.954957C49.4023 -0.961996 59.3878 0.020854 68.4625 3.77921C77.5373 7.53756 85.2937 13.9026 90.7509 22.0694C96.208 30.2361 99.1208 39.8378 99.1208 49.66C99.0516 54.9079 98.2402 60.1195 96.7108 65.14H41.4208V59.71L60.9208 59.11C70.7708 58.71 75.1908 53.68 75.1908 45.84Z" fill="#868FAC"/>
<path d="M84.5303 99.3896V95.9996H83.3203V95.3096H86.5603V95.9996H85.3503V99.3896H84.5303Z" fill="#868FAC"/>
<path d="M87.0801 99.3896V95.3096H88.3201L89.0601 98.0896L89.7901 95.3096H91.0001V99.3896H90.2401V96.1696L89.4301 99.3896H88.6401L87.8301 96.1696V99.3896H87.0801Z" fill="#868FAC"/>
<path d="M141.05 24.6504C140.929 22.738 140.068 20.9479 138.649 19.6598C137.23 18.3716 135.365 17.6868 133.45 17.7504C131.394 17.7898 129.437 18.6441 128.01 20.1254C126.583 21.6067 125.803 23.594 125.84 25.6504C125.84 30.4304 129.14 33.8504 134.84 33.8504H145.58C144.286 35.8521 142.508 37.4952 140.41 38.6278C138.313 39.7604 135.964 40.346 133.58 40.3304C130.697 40.3324 127.879 39.4793 125.482 37.8791C123.084 36.2789 121.215 34.0035 120.111 31.3408C119.007 28.678 118.718 25.7477 119.279 22.9204C119.841 20.0932 121.229 17.4961 123.267 15.4579C125.306 13.4196 127.903 12.0318 130.73 11.4699C133.557 10.908 136.488 11.1974 139.15 12.3014C141.813 13.4054 144.088 15.2745 145.689 17.672C147.289 20.0696 148.142 22.8879 148.14 25.7704C148.123 27.31 147.884 28.8391 147.43 30.3104H131.15V28.7204L136.87 28.5404C139.76 28.4204 141.05 26.9504 141.05 24.6504Z" fill="#868FAC"/>
<path d="M160.161 20.2298L165.701 12.0898H173.361L163.931 25.2398L174.131 39.4498H166.001L159.931 30.5998L153.801 39.4498H146.131L156.131 25.5898L146.401 12.0898H154.531L160.161 20.2298Z" fill="#868FAC"/>
<path d="M182.559 17.4504C183.324 15.6279 184.612 14.0729 186.26 12.9818C187.908 11.8908 189.843 11.3126 191.819 11.3204C198.419 11.3204 204.439 16.9204 204.439 25.7704C204.439 34.6204 198.439 40.2104 191.819 40.2104C189.843 40.2181 187.908 39.64 186.26 38.5489C184.612 37.4579 183.324 35.9029 182.559 34.0804C182.439 33.8504 182.269 33.9004 182.269 34.1404V50.7104H175.189V12.0904H182.269V17.4004C182.269 17.6304 182.439 17.6904 182.559 17.4604M189.869 34.3804C193.999 34.3804 197.599 30.7804 197.599 25.7704C197.599 20.7604 193.999 17.1604 189.869 17.1604C185.739 17.1604 182.149 20.7604 182.149 25.7704C182.149 30.7804 185.799 34.3804 189.869 34.3804Z" fill="#868FAC"/>
<path d="M228.79 24.6503C228.667 22.7369 227.803 20.9468 226.383 19.6589C224.962 18.3711 223.096 17.6865 221.18 17.7503C219.124 17.7897 217.167 18.6439 215.74 20.1252C214.313 21.6066 213.533 23.5938 213.57 25.6503C213.57 30.4303 216.88 33.8503 222.57 33.8503H233.3C232.006 35.8519 230.228 37.495 228.13 38.6276C226.033 39.7602 223.684 40.3458 221.3 40.3303C218.415 40.3441 215.591 39.5012 213.185 37.9082C210.78 36.3152 208.902 34.044 207.788 31.3823C206.675 28.7207 206.377 25.7884 206.932 22.9573C207.487 20.1261 208.871 17.5234 210.906 15.4792C212.942 13.4349 215.539 12.0411 218.368 11.4743C221.197 10.9076 224.13 11.1934 226.796 12.2956C229.463 13.3979 231.742 15.2668 233.345 17.6657C234.947 20.0645 235.802 22.8852 235.8 25.7703C235.781 27.309 235.545 28.8373 235.1 30.3103H218.88V28.7203L224.6 28.5403C227.49 28.4203 228.79 26.9503 228.79 24.6503Z" fill="#868FAC"/>
<path d="M259.999 34.0802C259.234 35.9028 257.946 37.4577 256.298 38.5488C254.65 39.6398 252.716 40.218 250.739 40.2102C244.139 40.2102 238.119 34.6102 238.119 25.7702C238.119 16.9302 244.119 11.3202 250.739 11.3202C252.714 11.3204 254.645 11.9017 256.292 12.9917C257.938 14.0818 259.228 15.6324 259.999 17.4502C260.109 17.6902 260.289 17.6302 260.289 17.3902V0.240234H267.369V39.4502H260.289V34.1402C260.289 33.9002 260.109 33.8502 259.999 34.0802ZM252.679 17.1602C248.559 17.1602 244.959 20.7502 244.959 25.7702C244.959 30.7902 248.559 34.3702 252.679 34.3702C256.799 34.3702 260.409 30.7802 260.409 25.7702C260.409 20.7602 256.749 17.1602 252.679 17.1602Z" fill="#868FAC"/>
<path d="M271.829 4.13004C271.802 3.57125 271.888 3.01269 272.083 2.48827C272.278 1.96384 272.577 1.48447 272.963 1.07926C273.349 0.674043 273.813 0.351426 274.327 0.130985C274.841 -0.0894557 275.395 -0.203125 275.954 -0.203125C276.514 -0.203125 277.067 -0.0894557 277.582 0.130985C278.096 0.351426 278.56 0.674043 278.946 1.07926C279.331 1.48447 279.631 1.96384 279.826 2.48827C280.02 3.01269 280.107 3.57125 280.079 4.13004C280.107 4.68883 280.02 5.24738 279.826 5.77181C279.631 6.29624 279.331 6.7756 278.946 7.18082C278.56 7.58603 278.096 7.90865 277.582 8.12909C277.067 8.34953 276.514 8.4632 275.954 8.4632C275.395 8.4632 274.841 8.34953 274.327 8.12909C273.813 7.90865 273.349 7.58603 272.963 7.18082C272.577 6.7756 272.278 6.29624 272.083 5.77181C271.888 5.24738 271.802 4.68883 271.829 4.13004ZM279.489 39.45H272.419V12.09H279.489V39.45Z" fill="#868FAC"/>
<path d="M304.9 34.0804C304.136 35.9013 302.849 37.4552 301.203 38.5461C299.557 39.637 297.625 40.2161 295.65 40.2104C289 40.2104 283 34.6104 283 25.7704C283 16.9304 289 11.3204 295.62 11.3204C297.595 11.3146 299.527 11.8937 301.173 12.9846C302.819 14.0755 304.106 15.6294 304.87 17.4504C304.99 17.6904 305.17 17.6304 305.17 17.3904V12.0904H312.24V39.4504H305.2V34.1404C305.2 33.9004 305.02 33.8504 304.9 34.0804ZM297.59 17.1604C293.46 17.1604 289.87 20.7504 289.87 25.7704C289.87 30.7904 293.46 34.3704 297.59 34.3704C301.72 34.3704 305.32 30.7804 305.32 25.7704C305.32 20.7604 301.66 17.1604 297.59 17.1604Z" fill="#868FAC"/>
<path d="M143.39 82.55C143.39 82.31 143.21 82.25 143.09 82.49C142.343 84.2905 141.083 85.8317 139.467 86.9216C137.851 88.0115 135.95 88.6022 134 88.62C127.45 88.62 121.49 83.08 121.49 74.29C121.49 65.5 127.41 60 134 60C135.958 60.0095 137.869 60.5975 139.493 61.6899C141.118 62.7824 142.383 64.3306 143.13 66.14C143.25 66.37 143.43 66.31 143.43 66.08V60.73H150.51V86.5C150.51 94.1 145.26 100 136.18 100C131.48 100.087 126.923 98.3775 123.44 95.22L127.69 90.62C130.48 92.86 132.72 94 136 94C141.19 94 143.37 90.35 143.37 85.81L143.39 82.55ZM135.9 65.8C131.83 65.8 128.29 69.34 128.29 74.29C128.29 79.24 131.83 82.78 135.9 82.78C139.97 82.78 143.51 79.25 143.51 74.29C143.51 69.33 139.91 65.8 135.9 65.8Z" fill="#868FAC"/>
<path d="M162.61 60.73V66.73C162.61 66.85 162.73 66.9 162.79 66.73C163.73 61.83 165.85 60 169.51 60H170.16V67.4H167C164.11 67.4 162.64 69.63 162.64 72.82V88.09H155.57V60.73H162.61Z" fill="#868FAC"/>
<path d="M185.19 59.8497C188.07 59.8595 190.883 60.7227 193.272 62.3301C195.662 63.9375 197.522 66.2171 198.616 68.8808C199.711 71.5446 199.992 74.4731 199.423 77.2963C198.855 80.1196 197.462 82.711 195.422 84.7433C193.381 86.7755 190.784 88.1575 187.958 88.7145C185.133 89.2715 182.205 88.9786 179.546 87.8729C176.887 86.7671 174.615 84.8981 173.018 82.5018C171.42 80.1056 170.568 77.2896 170.57 74.4097C170.573 72.4933 170.953 70.5963 171.69 68.827C172.426 67.0578 173.504 65.4511 174.862 64.0988C176.22 62.7465 177.831 61.6752 179.603 60.9461C181.375 60.217 183.274 59.8444 185.19 59.8497ZM185.13 66.2697C183.503 66.1857 181.887 66.5916 180.493 67.435C179.098 68.2784 177.988 69.5206 177.307 71.001C176.626 72.4815 176.404 74.1323 176.67 75.7402C176.936 77.3481 177.678 78.8392 178.8 80.021C179.923 81.2028 181.374 82.021 182.966 82.3699C184.558 82.7188 186.218 82.5824 187.731 81.9783C189.245 81.3741 190.543 80.3301 191.457 78.9809C192.371 77.6317 192.86 76.0394 192.86 74.4097C192.894 73.366 192.719 72.3262 192.348 71.3503C191.976 70.3745 191.415 69.4822 190.696 68.725C189.977 67.9678 189.114 67.3609 188.159 66.9394C187.204 66.518 186.174 66.2903 185.13 66.2697Z" fill="#868FAC"/>
<path d="M214.381 89.0005C207.481 89.0005 203.061 84.8105 203.061 78.6805V60.7305H210.131V78.1305C210.099 78.717 210.187 79.3037 210.389 79.8552C210.591 80.4067 210.903 80.9115 211.306 81.3389C211.709 81.7663 212.194 82.1075 212.733 82.3419C213.271 82.5762 213.852 82.6988 214.439 82.7022C215.027 82.7055 215.609 82.5897 216.15 82.3616C216.691 82.1335 217.18 81.7979 217.588 81.3751C217.996 80.9524 218.314 80.4513 218.522 79.9021C218.73 79.353 218.825 78.7673 218.801 78.1805V60.7305H225.881V78.6605C225.881 84.7905 221.101 88.9805 214.381 88.9805" fill="#868FAC"/>
<path d="M238.14 66.1001C238.909 64.2832 240.199 62.7346 241.847 61.6491C243.495 60.5636 245.427 59.9899 247.4 60.0001C254 60.0001 260 65.5701 260 74.4101C260 83.2501 254 88.8601 247.39 88.8601C245.413 88.8679 243.479 88.2897 241.831 87.1987C240.183 86.1076 238.895 84.5527 238.13 82.7301C238.01 82.4901 237.83 82.5501 237.83 82.7901V99.3501H230.76V60.7301H237.83V66.0001C237.83 66.2301 238.01 66.2901 238.13 66.0601M245.45 83.0001C249.58 83.0001 253.18 79.4101 253.18 74.3901C253.18 69.3701 249.58 65.7801 245.45 65.7801C241.32 65.7801 237.73 69.3801 237.73 74.3901C237.73 79.4001 241.38 83.0001 245.45 83.0001Z" fill="#868FAC"/>
<path d="M265.23 64.8097V61.4097H264V60.7197H267.24V61.4097H266.03V64.8097H265.23Z" fill="#868FAC"/>
<path d="M267.789 64.8097V60.7197H268.999L269.739 63.5097L270.469 60.7197H271.709V64.8097H270.999V61.5897L270.189 64.8097H269.399L268.589 61.5897V64.8097H267.789Z" fill="#868FAC"/>
</g>
<defs>
<clipPath id="clip0_288_4090">
<rect width="312.27" height="100" fill="white"/>
</clipPath>
</defs>
</svg>
