<?xml version="1.0" encoding="UTF-8" standalone="no"?><svg width="100" height="100" viewBox="0 0 100 100" fill="none" xmlns="http://www.w3.org/2000/svg">
<g clip-path="url(#clip0_288_4068)">
<path d="M85.3606 14.64C84.6506 13.93 83.9206 13.25 83.1706 12.58C74.6993 5.04795 63.9118 0.631363 52.5906 0.06C52.0006 0 51.4706 0 50.9106 0C40.3899 2.42379 31.0994 8.56772 24.7506 17.3C11.7506 34.57 13.5006 54.3 13.5006 54.3C14.5006 68.5 20.6306 81.05 29.7206 89.52C33.1336 92.7236 37.0446 95.3512 41.3006 97.3C43.9062 98.4972 46.6361 99.4027 49.4406 100C50.4939 100 51.544 99.98 52.5906 99.94C63.9118 99.3686 74.6993 94.952 83.1706 87.42C83.9206 86.75 84.6506 86.07 85.3606 85.36C86.6047 84.1156 87.783 82.8072 88.8906 81.44C96.0214 72.6492 99.9404 61.6891 100.001 50.37V50C100.011 43.4322 98.7223 36.9271 96.2099 30.8588C93.6974 24.7905 90.0104 19.2786 85.3606 14.64Z" fill="url(#paint0_radial_288_4068)"/>
<path d="M9.84897e-08 50C-0.000825596 63.1644 5.19007 75.7979 14.4461 85.1588C23.7022 94.5197 36.2765 99.8526 49.44 100C28.9 95.67 13.32 74.93 13.32 50C13.32 25.07 28.9 4.33 49.44 0C36.2765 0.147441 23.7022 5.4803 14.4461 14.8412C5.19007 24.2021 -0.000825596 36.8356 9.84897e-08 50Z" fill="url(#paint1_radial_288_4068)"/>
<path fill-rule="evenodd" clip-rule="evenodd" d="M49.3001 45.4504C52.5801 37.3504 46.4401 35.1504 42.4401 35.1504H29.1801C29.5676 35.393 29.8534 35.7684 29.984 36.2065C30.1147 36.6445 30.0813 37.1152 29.8901 37.5304L22.1701 62.2204C21.7807 63.1847 21.031 63.9595 20.0801 64.3804H30.8101C30.3868 64.2443 30.0327 63.9495 29.8221 63.558C29.6114 63.1665 29.5605 62.7086 29.6801 62.2804L32.4901 53.3604C32.4901 53.3604 45.4001 55.1004 49.3001 45.4504ZM38.8701 37.4504C40.2701 37.4504 44.1701 37.6404 41.6601 45.0004C39.0001 52.6804 33.2001 51.0904 33.2001 51.0904L37.4901 37.4104L38.8701 37.4504ZM57.8701 64.4504H65.0801C62.4193 63.4626 60.004 61.9103 58.0001 59.9004C59.5966 58.382 60.564 56.3188 60.7101 54.1204H57.0001C57.2167 54.2598 57.3957 54.4504 57.5213 54.6754C57.6469 54.9004 57.7151 55.1528 57.7201 55.4104C57.6914 56.3964 57.3597 57.3496 56.7701 58.1404C55.3998 56.3143 54.4814 54.1896 54.0901 51.9404C55.9415 51.1795 57.6808 50.1702 59.2601 48.9404C59.814 48.5311 60.2738 48.0077 60.6085 47.4057C60.9431 46.8037 61.1449 46.137 61.2001 45.4504V45.3504C61.1953 44.9153 61.1044 44.4854 60.9328 44.0855C60.7612 43.6856 60.5122 43.3237 60.2001 43.0204C59.5836 42.4734 58.8458 42.0811 58.0476 41.8759C57.2495 41.6707 56.4139 41.6585 55.6101 41.8404C54.3924 42.0827 53.2586 42.6376 52.3201 43.4504C50.1401 45.4504 49.8601 48.8604 49.8601 50.3904V51.2004L49.5101 51.3404C48.0001 52.0004 43.7001 53.1004 42.1801 56.5904C41.86 57.3915 41.7003 58.2477 41.7101 59.1104C41.6925 60.168 41.9769 61.2088 42.5301 62.1104C43.6001 63.7804 45.4301 64.8404 48.3301 64.7904C51.5001 64.7904 54.6101 62.5704 55.1701 62.1804C55.9928 63.0049 56.9013 63.7391 57.8801 64.3704M57.8801 44.8504C57.5001 47.2104 54.4601 49.5804 53.7201 49.8504C53.4743 48.0832 53.8262 46.2846 54.7201 44.7404C55.4601 43.6104 56.4201 43.1104 57.2101 43.3804C57.8301 43.6004 57.9101 44.1804 57.8501 44.8004M53.6401 60.5804C52.5218 61.2384 51.285 61.6699 50.0001 61.8504C48.5401 61.9804 46.1201 61.4204 46.1301 58.5004C46.1301 56.0104 48.8401 54.1904 50.3001 53.5604C50.9848 56.0806 52.1271 58.4534 53.6701 60.5604M70.5001 48.5604C65.2801 64.7504 74.5001 62.4404 75.0001 62.3504L78.3001 51.7904C78.3717 51.5376 78.3929 51.2732 78.3623 51.0122C78.3317 50.7512 78.25 50.4988 78.1219 50.2695C77.9937 50.0401 77.8216 49.8382 77.6154 49.6753C77.4092 49.5125 77.1729 49.3919 76.9201 49.3204H88.4101C87.7808 49.502 87.2099 49.8448 86.7539 50.3148C86.2979 50.7849 85.9725 51.3659 85.8101 52.0004L82.4901 62.5004C81.9001 62.7904 73.8801 66.9304 66.6201 63.3404C59.8301 59.9904 61.1501 47.4704 66.4901 41.3404C75.1801 31.4104 87.4901 35.5704 89.1901 36.0804L88.0001 40.0004C87.6801 39.7704 84.1501 36.4204 79.8601 37.4404C74.7501 38.6704 71.6301 45.0604 70.5101 48.5404" fill="white"/>
</g>
<defs>
<radialGradient id="paint0_radial_288_4068" cx="0" cy="0" r="1" gradientUnits="userSpaceOnUse" gradientTransform="translate(56.7106 50.01) scale(46.76)">
<stop offset="1" stop-color="#868FAC"/>
</radialGradient>
<radialGradient id="paint1_radial_288_4068" cx="0" cy="0" r="1" gradientUnits="userSpaceOnUse" gradientTransform="translate(17.69 16.83) scale(82.82)">
<stop stop-color="#868FAC"/>
</radialGradient>
<clipPath id="clip0_288_4068">
<rect width="100.01" height="100" fill="white"/>
</clipPath>
</defs>
</svg>
