<?xml version="1.0" encoding="UTF-8" standalone="no"?><svg width="277" height="100" viewBox="0 0 277 100" fill="none" xmlns="http://www.w3.org/2000/svg">
<g clip-path="url(#clip0_288_4108)">
<path fill-rule="evenodd" clip-rule="evenodd" d="M191.93 95.51V94.39H192.6C192.776 94.4019 192.941 94.4777 193.064 94.603C193.188 94.7282 193.261 94.8943 193.27 95.07C193.27 95.51 193.05 95.51 192.6 95.51H191.93ZM191.93 96.41H192.38L193.27 98.21H194.4L193.27 96.21C193.95 96.21 194.4 95.98 194.4 95.09C194.4 94.2 193.72 93.74 192.6 93.74H190.81V98.23H191.93V96.41ZM196.64 95.96C196.658 95.4517 196.575 94.945 196.396 94.4688C196.218 93.9926 195.947 93.5563 195.6 93.1848C195.252 92.8133 194.835 92.5139 194.372 92.3037C193.909 92.0936 193.409 91.9767 192.9 91.96H192.64C191.57 91.96 190.544 92.3851 189.787 93.1418C189.031 93.8985 188.605 94.9248 188.605 95.995C188.605 97.0651 189.031 98.0914 189.787 98.8481C190.544 99.6048 191.57 100.03 192.64 100.03C193.15 100.046 193.658 99.9614 194.135 99.781C194.612 99.6007 195.048 99.3281 195.42 98.979C195.791 98.6298 196.09 98.2108 196.3 97.7459C196.509 97.2811 196.625 96.7796 196.64 96.27V96V95.96ZM195.51 95.96C195.577 96.7207 195.34 97.4769 194.851 98.0633C194.362 98.6498 193.661 99.0189 192.9 99.09H192.6C190.81 99.09 189.69 97.97 189.69 95.95C189.658 95.573 189.699 95.1933 189.813 94.8325C189.927 94.4717 190.111 94.1369 190.354 93.8471C190.597 93.5574 190.895 93.3184 191.231 93.1439C191.567 92.9693 191.934 92.8627 192.31 92.83H192.6C193.394 92.8535 194.147 93.191 194.692 93.7684C195.238 94.3457 195.532 95.1159 195.51 95.91V95.96Z" fill="#868FAC"/>
<path fill-rule="evenodd" clip-rule="evenodd" d="M163.229 17.94L169.279 0.23H146.409V0L140.359 17.94H163.229Z" fill="#868FAC"/>
<path fill-rule="evenodd" clip-rule="evenodd" d="M11.4407 40.3605H34.7507L40.3607 23.9905H50.4507L58.5207 0.230469H10.5407L2.4707 23.9905H17.0407L11.4407 40.3605Z" fill="#868FAC"/>
<path fill-rule="evenodd" clip-rule="evenodd" d="M10.54 42.8301L0 74.2201H23.32L34.08 42.8301H10.54Z" fill="#868FAC"/>
<path fill-rule="evenodd" clip-rule="evenodd" d="M46.4104 42.8301L35.6504 74.2201H58.7404L69.2804 42.8301H46.4104Z" fill="#868FAC"/>
<path fill-rule="evenodd" clip-rule="evenodd" d="M47.3105 40.3605H95.0705L99.0705 28.2505C101.071 21.7505 96.8305 17.4905 89.8805 17.4905C84.9505 17.4905 79.7905 18.8305 74.1905 28.4905L83.8605 0.230469H60.7605L47.3105 40.3605Z" fill="#868FAC"/>
<path fill-rule="evenodd" clip-rule="evenodd" d="M71.7509 42.8301L61.2109 74.2201H83.4109L94.1709 42.8301H71.7509Z" fill="#868FAC"/>
<path fill-rule="evenodd" clip-rule="evenodd" d="M130.49 40.3595L138.12 17.2695C127.8 17.2695 125.12 21.5295 120.85 27.3595L123.32 20.1795H104.26L97.2598 40.3595H130.49Z" fill="#868FAC"/>
<path fill-rule="evenodd" clip-rule="evenodd" d="M96.6391 42.8301L85.8691 74.2201H108.739L119.279 42.8301H96.6391Z" fill="#868FAC"/>
<path fill-rule="evenodd" clip-rule="evenodd" d="M155.6 40.3597L162.56 20.1797H139.69L132.74 40.3597H155.6Z" fill="#868FAC"/>
<path fill-rule="evenodd" clip-rule="evenodd" d="M144.171 74.2201L154.711 42.8301H132.061L121.301 74.2201H144.171Z" fill="#868FAC"/>
<path fill-rule="evenodd" clip-rule="evenodd" d="M188.79 40.3605L195.51 20.1805H184.51C184.06 20.1805 182.51 20.6305 182.51 19.5105C182.51 18.3905 182.96 17.9405 184.51 17.9405H198.86L204.71 0.230469H181.84C173.54 0.230469 170.18 5.38047 167.71 11.8805L158.07 40.3605H188.79Z" fill="#868FAC"/>
<path fill-rule="evenodd" clip-rule="evenodd" d="M180.271 42.8301H157.181L146.631 74.2201H169.511L180.271 42.8301Z" fill="#868FAC"/>
<path fill-rule="evenodd" clip-rule="evenodd" d="M208.74 74.2201L219.28 42.8301H195.51L184.98 74.2201H208.74Z" fill="#868FAC"/>
<path fill-rule="evenodd" clip-rule="evenodd" d="M238.34 40.3605L237 20.1805H225.78L232.51 0.230469H232.74H211.21L204.26 20.1805H197.98L191.25 40.3605H238.34Z" fill="#868FAC"/>
<path fill-rule="evenodd" clip-rule="evenodd" d="M219.28 42.8301L220.85 66.8201L199.1 99.7801H222.42L260.99 42.8301H219.28Z" fill="#868FAC"/>
<path fill-rule="evenodd" clip-rule="evenodd" d="M251.79 20.1797L238.34 40.3597H262.78L276.23 20.1797H251.79Z" fill="#868FAC"/>
</g>
<defs>
<clipPath id="clip0_288_4108">
<rect width="276.23" height="100" fill="white"/>
</clipPath>
</defs>
</svg>
