<?xml version="1.0" encoding="UTF-8" standalone="no"?><svg xmlns="http://www.w3.org/2000/svg" width="399.28" height="370.05" viewBox="0 0 399.28 370.05"><title>dev-teams-icons</title><path d="M237.81,338.15a15.18,15.18,0,0,1-4-.56,28,28,0,0,1-12.14-7.41h0c-7.68-7.68-8.44-19.62-5.59-22.47s14.79-2.09,22.47,5.59c7.87,7.86,10.33,17.73,5.59,22.47A8.72,8.72,0,0,1,237.81,338.15Zm-16.14-30c-2.06,0-3.59.39-4.15.95-1.69,1.7-1.79,12.26,5.59,19.64h0a26,26,0,0,0,11.24,6.9c3.62,1,6.6.5,8.41-1.31,3.87-3.87,1.37-12.68-5.59-19.64A22.7,22.7,0,0,0,221.67,308.17Z" fill="#ebf0f2"/><path d="M232.83,336.56a11.54,11.54,0,0,1,3.4-8.33,11.66,11.66,0,0,1,9.13-3.38l-.16,2a9.64,9.64,0,0,0-7.55,2.79,9.53,9.53,0,0,0-2.82,6.9Z" fill="#ebf0f2"/><rect x="225.78" y="304.4" width="2" height="28.74" transform="translate(-158.99 253.73) rotate(-45)" fill="#ebf0f2"/><polygon points="240.72 317.56 239.81 315.79 245.94 312.62 250.37 312 250.65 313.98 246.56 314.55 240.72 317.56" fill="#ebf0f2"/><polygon points="244.75 323.45 243.89 321.64 249.81 318.81 254.47 320.26 253.88 322.18 249.96 320.95 244.75 323.45" fill="#ebf0f2"/><polygon points="254.13 329.31 251.37 327.51 245.7 328.89 245.22 326.95 251.74 325.36 255.22 327.64 254.13 329.31" fill="#ebf0f2"/><rect x="249.84" y="330.48" width="2" height="15.07" transform="translate(-167.93 380.54) rotate(-59.22)" fill="#ebf0f2"/><polygon points="222.15 342.47 220.17 342.2 220.79 337.77 223.96 331.63 225.74 332.55 222.72 338.38 222.15 342.47" fill="#ebf0f2"/><polygon points="228.44 346.3 226.99 341.63 229.82 335.72 231.62 336.58 229.13 341.79 230.35 345.7 228.44 346.3" fill="#ebf0f2"/><polygon points="235.81 347.05 233.54 343.56 235.12 337.05 237.06 337.52 235.69 343.19 237.49 345.95 235.81 347.05" fill="#ebf0f2"/><rect x="245.19" y="335.13" width="2" height="15.07" transform="translate(-140.69 174.27) rotate(-30.78)" fill="#ebf0f2"/><path d="M161.75,338.4a8.83,8.83,0,0,1-6.41-2.4c-4.74-4.74-2.28-14.61,5.59-22.47,7.67-7.68,19.62-8.45,22.47-5.59,1.53,1.52,2,5.28,1.15,9.57a25.25,25.25,0,0,1-6.74,12.9C172.65,335.57,166.62,338.4,161.75,338.4Zm16.09-30a22.65,22.65,0,0,0-15.5,6.54c-7,7-9.46,15.77-5.59,19.64S169.44,336,176.39,329a23.2,23.2,0,0,0,6.2-11.86c.75-3.91.25-6.93-.6-7.78C181.43,308.79,179.9,308.4,177.84,308.4Z" fill="#ebf0f2"/><path d="M166.25,337.18l-2-.15a9.64,9.64,0,0,0-9.7-10.38l0-2a11.63,11.63,0,0,1,11.71,12.53Z" fill="#ebf0f2"/><rect x="157.96" y="317.61" width="28.74" height="2" transform="translate(-174.81 215.18) rotate(-45)" fill="#ebf0f2"/><polygon points="177.13 342.47 176.56 338.38 173.54 332.55 175.32 331.63 178.49 337.77 179.11 342.2 177.13 342.47" fill="#ebf0f2"/><polygon points="170.84 346.3 168.93 345.7 170.15 341.79 167.66 336.58 169.46 335.72 172.29 341.63 170.84 346.3" fill="#ebf0f2"/><polygon points="163.47 347.05 161.79 345.95 163.59 343.19 162.22 337.52 164.16 337.05 165.74 343.56 163.47 347.05" fill="#ebf0f2"/><rect x="145.56" y="341.67" width="15.07" height="2" transform="translate(-219.66 298.89) rotate(-59.23)" fill="#ebf0f2"/><polygon points="158.56 317.56 152.72 314.55 148.63 313.98 148.91 312 153.34 312.62 159.47 315.79 158.56 317.56" fill="#ebf0f2"/><polygon points="154.53 323.45 149.32 320.95 145.41 322.18 144.81 320.26 149.47 318.81 155.39 321.64 154.53 323.45" fill="#ebf0f2"/><polygon points="145.16 329.31 144.06 327.64 147.55 325.36 154.06 326.95 153.59 328.89 147.91 327.51 145.16 329.31" fill="#ebf0f2"/><rect x="140.91" y="337.01" width="15.07" height="2" transform="translate(-152.04 123.53) rotate(-30.77)" fill="#ebf0f2"/><path d="M152.71,30.39H83.83v-8.5h68.88Zm-66.88-2h64.88v-4.5H85.83Z" fill="#ebf0f2"/><path d="M152.71,101.6H83.83V93.1h68.88Zm-66.88-2h64.88V95.1H85.83Z" fill="#ebf0f2"/><rect x="87.57" y="29.55" width="2" height="64.64" fill="#ebf0f2"/><rect x="146.93" y="29.55" width="2" height="64.64" fill="#ebf0f2"/><path d="M137,94.09c-.23-21-16.78-30.07-19.11-31.24l-.25-.11c-.21-.1-20.31-9.47-20.56-33.18l2,0c.22,21,16.83,30.09,19.12,31.25l.24.11c.21.09,20.31,9.46,20.56,33.17Z" fill="#ebf0f2"/><path d="M99.07,94.09l-2,0C97.32,70.36,117.42,61,117.63,60.9l.25-.12c2.32-1.18,18.88-10.3,19.11-31.24l2,0c-.25,23.71-20.35,33.08-20.56,33.18l-.25.11C115.86,64,99.29,73.15,99.07,94.09Z" fill="#ebf0f2"/><path d="M118,55.66l-.42-.2A23.34,23.34,0,0,1,108.13,46l-.78-1.47h21.43L128,46a22.26,22.26,0,0,1-9.57,9.47Zm-7.26-9.12a22.13,22.13,0,0,0,7.29,6.89,21.07,21.07,0,0,0,7.35-6.89Z" fill="#ebf0f2"/><path d="M108.36,94.27l-1.93-.52a21.89,21.89,0,0,1,11.18-13.59L118,80l.42.18a22,22,0,0,1,11.18,13.55l-1.93.53a20.19,20.19,0,0,0-9.66-12A20.22,20.22,0,0,0,108.36,94.27Z" fill="#ebf0f2"/><rect x="117.03" y="54.56" width="2" height="12.51" fill="#ebf0f2"/><rect x="117.03" y="70.55" width="2" height="5.38" fill="#ebf0f2"/><path d="M315.45,101.6H246.57V93.1h68.88Zm-66.88-2h64.88V95.1H248.57Z" fill="#ebf0f2"/><path d="M315.45,30.39H246.57v-8.5h68.88Zm-66.88-2h64.88v-4.5H248.57Z" fill="#ebf0f2"/><rect x="250.31" y="29.3" width="2" height="64.64" fill="#ebf0f2"/><rect x="309.68" y="29.3" width="2" height="64.64" fill="#ebf0f2"/><path d="M261.81,94l-2,0c.26-23.71,20.36-33.08,20.56-33.18l.25-.11c2.32-1.18,18.89-10.3,19.11-31.24l2,0c-.25,23.71-20.35,33.08-20.55,33.17l-.25.12C278.6,63.88,262,73,261.81,94Z" fill="#ebf0f2"/><path d="M299.73,94c-.22-21-16.83-30.09-19.12-31.25l-.24-.11c-.2-.09-20.3-9.46-20.56-33.17l2,0c.23,21,16.78,30.07,19.11,31.24l.26.11c.2.1,20.3,9.47,20.55,33.18Z" fill="#ebf0f2"/><path d="M291.52,79H270.09l.78-1.47A23.34,23.34,0,0,1,280.34,68l.42-.2.43.19a22.19,22.19,0,0,1,9.57,9.47Zm-18-2h14.63a20.88,20.88,0,0,0-7.35-6.89A21.92,21.92,0,0,0,273.51,77Z" fill="#ebf0f2"/><path d="M280.77,43.51l-.42-.18a22,22,0,0,1-11.18-13.59l1.93-.52a20.25,20.25,0,0,0,9.67,12.07,20.26,20.26,0,0,0,9.66-12l1.93.53a22,22,0,0,1-11.18,13.55Z" fill="#ebf0f2"/><rect x="279.78" y="56.42" width="2" height="12.51" fill="#ebf0f2"/><rect x="279.78" y="47.55" width="2" height="5.38" fill="#ebf0f2"/><path d="M330.12,353.15A56.15,56.15,0,1,1,386.26,297,56.21,56.21,0,0,1,330.12,353.15Zm0-110.29A54.15,54.15,0,1,0,384.26,297,54.21,54.21,0,0,0,330.12,242.86Z" fill="#ebf0f2"/><path d="M330.12,347.75A50.75,50.75,0,1,1,380.86,297,50.8,50.8,0,0,1,330.12,347.75Zm0-99.49A48.75,48.75,0,1,0,378.86,297,48.81,48.81,0,0,0,330.12,248.26Z" fill="#ebf0f2"/><path d="M330.17,351.7v-4c.65,0,1.3,0,1.94,0l.16,4C331.56,351.68,330.87,351.7,330.17,351.7Zm-6.27-.35c-.7-.08-1.39-.17-2.08-.28l.61-3.95c.63.09,1.27.18,1.92.25Zm14.61-.29-.61-4c.64-.1,1.27-.21,1.91-.33l.76,3.93C339.89,350.83,339.2,351,338.51,351.06Zm-22.83-1.29c-.68-.18-1.34-.38-2-.59l1.2-3.82c.62.2,1.24.38,1.86.55Zm31-.62-1.2-3.81c.62-.2,1.23-.41,1.84-.63l1.35,3.77C348,348.71,347.32,348.94,346.65,349.15ZM307.8,347c-.64-.29-1.28-.59-1.9-.9l1.77-3.58c.58.29,1.17.56,1.76.83Zm46.62-.94-1.78-3.58c.58-.29,1.15-.58,1.71-.89l1.92,3.51C355.66,345.38,355,345.7,354.42,346Zm-54-3.06q-.88-.57-1.74-1.17l2.3-3.27c.53.37,1.07.73,1.61,1.08Zm61.16-1.22-2.31-3.27c.53-.37,1-.76,1.57-1.15l2.42,3.18C362.73,340.91,362.17,341.33,361.6,341.73Zm-67.82-3.85c-.52-.47-1-.94-1.54-1.42l2.77-2.89c.47.45.94.89,1.43,1.32Zm74.27-1.48-2.78-2.88c.47-.45.93-.91,1.37-1.37l2.89,2.77C369.05,335.42,368.55,335.92,368.05,336.4ZM288,331.86c-.45-.54-.88-1.09-1.31-1.64l3.18-2.43c.39.52.8,1,1.21,1.52Zm85.64-1.7-3.17-2.43c.39-.52.77-1,1.14-1.57l3.28,2.31C374.45,329,374,329.6,373.61,330.16ZM283.14,325c-.36-.6-.7-1.21-1-1.82l3.51-1.92c.31.57.63,1.13,1,1.69Zm95-1.89-3.51-1.92c.31-.57.61-1.15.9-1.73l3.58,1.78C378.83,321.9,378.51,322.52,378.17,323.14Zm-98.76-5.6q-.39-1-.75-2l3.76-1.37c.22.61.46,1.22.7,1.82Zm102.19-2.05-3.76-1.35c.21-.61.42-1.23.62-1.85l3.81,1.21C382.06,314.17,381.84,314.83,381.6,315.49Zm-104.73-5.93c-.15-.67-.3-1.36-.44-2l3.93-.77c.12.64.26,1.27.41,1.9Zm106.94-2.15-3.92-.75q.18-1,.33-1.92l3.95.61C384.06,306,384,306.73,383.81,307.41ZM275.59,301.3c0-.7-.09-1.39-.12-2.09l4-.16c0,.65.06,1.29.11,1.94Zm109.17-2.2-4-.15c0-.64,0-1.29,0-1.94v-.21h4V297C384.8,297.71,384.79,298.41,384.76,299.1Zm-105.2-5.87-4-.3c.05-.7.11-1.39.19-2.08l4,.44C279.67,291.93,279.61,292.58,279.56,293.23ZM380.45,291c-.07-.65-.16-1.29-.26-1.93l3.95-.62c.11.69.2,1.38.28,2.08Zm-99.73-5.44-3.89-.9q.23-1,.51-2l3.86,1.06C281,284.3,280.87,284.92,280.72,285.56ZM379,283.39c-.18-.62-.36-1.24-.56-1.86l3.81-1.22c.21.66.41,1.33.6,2Zm-95.91-5.23-3.72-1.49c.26-.65.54-1.3.82-1.94l3.65,1.64C283.54,277,283.29,277.56,283.05,278.16Zm93.25-2.06c-.26-.59-.54-1.17-.83-1.75l3.58-1.79q.46.93.9,1.89Zm-89.82-4.9-3.44-2c.36-.61.72-1.2,1.1-1.79l3.36,2.17C287.15,270.09,286.81,270.64,286.48,271.2Zm86.1-1.89c-.36-.54-.72-1.08-1.1-1.6l3.26-2.32c.41.57.8,1.14,1.18,1.73Zm-81.64-4.47-3.09-2.54c.44-.54.89-1.07,1.36-1.59l3,2.66Q291.55,264.09,290.94,264.84Zm76.91-1.68c-.43-.48-.88-1-1.33-1.42L369.4,259c.48.5,1,1,1.42,1.53Zm-71.55-3.92-2.66-3c.52-.47,1-.92,1.58-1.37l2.56,3.08Zm65.94-1.44c-.5-.41-1-.81-1.52-1.21l2.42-3.18c.55.42,1.1.85,1.64,1.29Zm-59.78-3.28-2.18-3.35q.87-.57,1.77-1.11l2.05,3.43C303.55,253.83,303,254.17,302.46,254.52Zm53.42-1.17c-.55-.33-1.12-.65-1.69-1l1.9-3.52c.62.33,1.23.68,1.83,1Zm-46.62-2.56-1.65-3.64c.63-.29,1.27-.56,1.92-.83L311,250C310.43,250.27,309.84,250.53,309.26,250.79Zm39.66-.87c-.6-.24-1.21-.47-1.82-.69l1.34-3.76c.66.23,1.32.48,2,.74Zm-32.38-1.77-1.07-3.85c.67-.19,1.35-.36,2-.52l.92,3.89C317.79,247.82,317.16,248,316.54,248.15Zm25-.55c-.62-.14-1.26-.27-1.9-.39l.75-3.93c.69.13,1.37.27,2.05.43Zm-17.36-.93-.47-4c.69-.08,1.39-.15,2.09-.2l.32,4C325.44,246.53,324.79,246.59,324.15,246.67Zm9.69-.22c-.64,0-1.29-.08-1.94-.1l.14-4c.7,0,1.4.06,2.09.11Z" fill="#ebf0f2"/><path d="M333.53,335.72h-6.41V328.1a27.52,27.52,0,0,1-8.6-2.5,16.94,16.94,0,0,1-6.46-6.2,22,22,0,0,1-3.13-10.33l-.06-.89,9.43-1.77.15,1c.56,3.83,1.52,6.65,2.88,8.39a10.19,10.19,0,0,0,5.79,3.9V297.86a32.85,32.85,0,0,1-8.94-3.52,14.92,14.92,0,0,1-5.91-5.93,18.66,18.66,0,0,1,4-22.21c2.51-2.21,6.18-3.63,10.9-4.22v-3.69h6.41V262a19,19,0,0,1,10,4,18,18,0,0,1,6.26,11.82l.13,1-9.71,1.46-.15-1a11.9,11.9,0,0,0-2.52-6.24,8.63,8.63,0,0,0-4-2.48V290a55,55,0,0,1,6.89,2.06,19.69,19.69,0,0,1,6,4,16,16,0,0,1,3.62,5.59,19.21,19.21,0,0,1-16.52,26.44Zm-4.41-2h2.41v-7.53l1,0a17,17,0,0,0,16.82-17.57,17,17,0,0,0-1.11-6.21,14.18,14.18,0,0,0-3.17-4.91,17.68,17.68,0,0,0-5.4-3.53,59.76,59.76,0,0,0-7.33-2.16l-.76-.19V268l1.2.25a11.23,11.23,0,0,1,6.31,3.41,13.1,13.1,0,0,1,2.84,6.3l5.78-.87a15.88,15.88,0,0,0-5.4-9.59c-2.39-2-5.69-3.21-9.82-3.6l-.91-.09v-3.49h-2.41v3.49l-.9.09c-4.74.47-8.33,1.76-10.68,3.83a15.31,15.31,0,0,0-5.32,12.2,15.58,15.58,0,0,0,1.81,7.55,13,13,0,0,0,5.13,5.15,30.49,30.49,0,0,0,9.14,3.47l.82.15V322L328,321.9a11.93,11.93,0,0,1-8.25-4.83c-1.47-1.88-2.49-4.61-3.13-8.32L311,309.81a19.62,19.62,0,0,0,2.75,8.52,15,15,0,0,0,5.69,5.49,26.88,26.88,0,0,0,8.8,2.42l.88.11ZM331.53,322V296.71l1.31.43c4.25,1.38,7,2.93,8.52,4.75a11.08,11.08,0,0,1,2.24,7.19,12.73,12.73,0,0,1-3.1,8.69,12.08,12.08,0,0,1-7.85,4.12Zm2-22.54v20.23a9.94,9.94,0,0,0,5.47-3.27,10.66,10.66,0,0,0,2.6-7.37,9.13,9.13,0,0,0-1.79-5.92C338.74,301.84,336.63,300.61,333.53,299.49Zm-4.41-8.3-1.29-.38c-3.59-1.08-6.2-2.58-7.75-4.45a11.4,11.4,0,0,1,.4-14.41,12.12,12.12,0,0,1,7.49-3.82l1.15-.18Zm-2-20.86a9.74,9.74,0,0,0-5.15,2.95,9.42,9.42,0,0,0-.35,11.81,12.57,12.57,0,0,0,5.5,3.38Z" fill="#ebf0f2"/><path d="M69.17,353.15A56.15,56.15,0,1,1,125.31,297,56.21,56.21,0,0,1,69.17,353.15Zm0-110.29A54.15,54.15,0,1,0,123.31,297,54.21,54.21,0,0,0,69.17,242.86Z" fill="#ebf0f2"/><path d="M69.17,347.75A50.75,50.75,0,1,1,119.91,297,50.8,50.8,0,0,1,69.17,347.75Zm0-99.49A48.75,48.75,0,1,0,117.91,297,48.81,48.81,0,0,0,69.17,248.26Z" fill="#ebf0f2"/><path d="M69.22,351.7v-4c.65,0,1.3,0,1.94,0l.16,4C70.61,351.68,69.92,351.7,69.22,351.7ZM63,351.35c-.7-.08-1.39-.17-2.08-.28l.61-3.95c.63.09,1.28.18,1.92.25Zm14.61-.29-.61-4c.64-.1,1.27-.21,1.91-.33l.76,3.93C78.94,350.83,78.25,351,77.56,351.06Zm-22.83-1.29c-.68-.18-1.34-.38-2-.59l1.2-3.82c.62.2,1.24.38,1.86.55Zm31-.62-1.21-3.82c.62-.19,1.23-.4,1.84-.62l1.35,3.77C87,348.71,86.37,348.94,85.71,349.15ZM46.85,347c-.64-.29-1.28-.59-1.9-.9l1.77-3.58c.58.29,1.17.56,1.76.83ZM93.47,346l-1.78-3.58c.58-.29,1.15-.59,1.72-.9l1.91,3.52C94.71,345.38,94.09,345.7,93.47,346Zm-54-3.06q-.89-.57-1.74-1.17l2.3-3.27c.53.37,1.07.73,1.61,1.08Zm61.16-1.22-2.3-3.27c.52-.37,1.05-.76,1.56-1.15l2.43,3.18C101.78,340.91,101.22,341.33,100.65,341.73Zm-67.82-3.85c-.52-.47-1-.94-1.54-1.42l2.77-2.89c.47.45.94.89,1.43,1.32Zm74.27-1.48-2.78-2.88c.47-.45.93-.91,1.38-1.37l2.88,2.77C108.1,335.42,107.6,335.92,107.1,336.4ZM27,331.86c-.45-.54-.88-1.08-1.31-1.64l3.18-2.43c.4.52.8,1,1.21,1.52Zm85.65-1.7-3.18-2.43c.39-.52.77-1,1.15-1.57l3.27,2.31C113.5,329,113.09,329.6,112.67,330.16ZM22.19,325c-.36-.6-.7-1.21-1-1.82l3.51-1.92c.31.57.64,1.13,1,1.69Zm95-1.89-3.51-1.92c.31-.57.61-1.15.9-1.73l3.58,1.78C117.88,321.9,117.56,322.52,117.22,323.14Zm-98.76-5.6q-.39-1-.75-2l3.76-1.37c.22.61.46,1.22.7,1.82Zm102.19-2.05-3.76-1.35c.22-.61.42-1.23.62-1.85l3.81,1.21C121.11,314.17,120.89,314.83,120.65,315.49ZM15.93,309.56c-.16-.67-.31-1.36-.44-2l3.92-.77c.13.64.26,1.27.41,1.9Zm106.94-2.15-3.93-.75q.18-1,.33-1.92l4,.61C123.12,306,123,306.73,122.87,307.41ZM14.64,301.3c-.05-.7-.09-1.39-.12-2.09l4-.16c0,.65.06,1.29.11,1.94Zm109.18-2.2-4-.15c0-.64,0-1.29,0-1.94v-.21h4V297C123.85,297.71,123.84,298.41,123.82,299.1ZM18.61,293.23l-4-.3c0-.7.11-1.39.19-2.08l4,.44C18.72,291.93,18.66,292.58,18.61,293.23ZM119.5,291c-.07-.65-.16-1.29-.26-1.93l4-.62c.11.69.2,1.38.28,2.08Zm-99.72-5.44-3.9-.9c.15-.68.33-1.36.51-2l3.86,1.06C20.08,284.3,19.92,284.92,19.78,285.56ZM118,283.39c-.18-.62-.36-1.24-.56-1.86l3.81-1.22c.21.66.41,1.33.6,2ZM22.1,278.16l-3.72-1.49c.26-.65.54-1.3.82-1.94l3.65,1.64C22.59,277,22.34,277.56,22.1,278.16Zm93.26-2.06c-.27-.59-.55-1.17-.84-1.75l3.58-1.79q.47.93.9,1.89Zm-89.83-4.9-3.44-2c.36-.61.72-1.2,1.1-1.79l3.36,2.17C26.2,270.09,25.86,270.64,25.53,271.2Zm86.1-1.89c-.36-.54-.72-1.08-1.1-1.6l3.27-2.32c.4.57.79,1.14,1.17,1.73ZM30,264.84,26.9,262.3c.44-.54.9-1.07,1.36-1.59l3,2.66Q30.61,264.09,30,264.84Zm76.91-1.68c-.43-.48-.87-1-1.32-1.42l2.87-2.78c.48.5,1,1,1.42,1.53Zm-71.54-3.92-2.67-3c.52-.47,1.05-.92,1.58-1.37L36.83,258C36.33,258.39,35.84,258.81,35.36,259.24Zm65.93-1.44c-.5-.41-1-.81-1.52-1.21l2.42-3.18c.55.42,1.1.85,1.64,1.29Zm-59.78-3.28-2.18-3.35q.87-.57,1.77-1.11l2,3.43C42.6,253.83,42.05,254.17,41.51,254.52Zm53.43-1.17c-.56-.33-1.13-.65-1.7-1l1.91-3.52c.61.33,1.22.68,1.82,1Zm-46.63-2.56-1.65-3.64c.63-.29,1.27-.56,1.92-.83l1.5,3.71C49.49,250.27,48.89,250.53,48.31,250.79ZM88,249.92c-.6-.24-1.21-.47-1.82-.69l1.34-3.76c.66.23,1.32.48,2,.74Zm-32.38-1.76-1.07-3.86c.67-.19,1.35-.36,2-.52l.92,3.89C56.84,247.82,56.22,248,55.59,248.16Zm25-.56c-.63-.14-1.26-.27-1.9-.39l.75-3.93c.69.13,1.37.27,2,.43Zm-17.36-.94-.46-4c.69-.08,1.38-.15,2.08-.2l.32,4C64.49,246.53,63.84,246.59,63.2,246.66Zm9.69-.21c-.64,0-1.29-.08-1.93-.1l.13-4c.7,0,1.4.06,2.09.11Z" fill="#ebf0f2"/><path d="M72.58,335.72H66.17V328.1a27.52,27.52,0,0,1-8.6-2.5,16.94,16.94,0,0,1-6.46-6.2A22,22,0,0,1,48,309.07l-.06-.89,9.43-1.77.15,1c.55,3.83,1.52,6.65,2.88,8.39a10.16,10.16,0,0,0,5.79,3.9V297.86a32.85,32.85,0,0,1-8.94-3.52,14.92,14.92,0,0,1-5.91-5.93,18.66,18.66,0,0,1,4-22.21c2.51-2.21,6.18-3.63,10.9-4.22v-3.69h6.41V262a19,19,0,0,1,10,4,18,18,0,0,1,6.26,11.82l.13,1-9.71,1.46-.15-1A11.9,11.9,0,0,0,76.6,273a8.63,8.63,0,0,0-4-2.48V290a55,55,0,0,1,6.89,2.06,19.69,19.69,0,0,1,6,4,16,16,0,0,1,3.62,5.59,19.21,19.21,0,0,1-16.52,26.44Zm-4.41-2h2.41v-7.53l1,0a17,17,0,0,0,16.82-17.57,17,17,0,0,0-1.11-6.21,14.33,14.33,0,0,0-3.17-4.91,17.68,17.68,0,0,0-5.4-3.53,59.76,59.76,0,0,0-7.33-2.16l-.76-.19V268l1.2.25a11.23,11.23,0,0,1,6.31,3.41,13.1,13.1,0,0,1,2.84,6.3l5.78-.87a15.88,15.88,0,0,0-5.4-9.59c-2.39-2-5.69-3.21-9.82-3.6l-.91-.09v-3.49H68.17v3.49l-.9.09c-4.74.47-8.33,1.76-10.68,3.83a15.31,15.31,0,0,0-5.32,12.2,15.58,15.58,0,0,0,1.81,7.55,13,13,0,0,0,5.13,5.15,30.49,30.49,0,0,0,9.14,3.47l.82.15V322l-1.11-.11a11.93,11.93,0,0,1-8.25-4.83c-1.47-1.88-2.49-4.61-3.13-8.32l-5.63,1.06a19.62,19.62,0,0,0,2.75,8.52,15,15,0,0,0,5.69,5.49,26.88,26.88,0,0,0,8.8,2.42l.88.11ZM70.58,322V296.71l1.31.43c4.25,1.38,7,2.93,8.52,4.75a11.08,11.08,0,0,1,2.24,7.19,12.73,12.73,0,0,1-3.1,8.69,12.08,12.08,0,0,1-7.85,4.12Zm2-22.54v20.23a9.94,9.94,0,0,0,5.47-3.27,10.66,10.66,0,0,0,2.6-7.37,9.13,9.13,0,0,0-1.79-5.92C77.79,301.84,75.68,300.61,72.58,299.49Zm-4.41-8.3-1.29-.38c-3.59-1.08-6.2-2.58-7.75-4.45a11.4,11.4,0,0,1,.4-14.41A12.12,12.12,0,0,1,67,268.13l1.15-.18Zm-2-20.86A9.74,9.74,0,0,0,61,273.28a9.42,9.42,0,0,0-.35,11.81,12.57,12.57,0,0,0,5.5,3.38Z" fill="#ebf0f2"/><path d="M314.36,206A30.5,30.5,0,0,1,296,199.88h0A30.66,30.66,0,0,1,289.91,157l13-17.37a16.82,16.82,0,0,1,23.53-3.34l22.11,16.61a16.81,16.81,0,0,1,3.34,23.53l-13.05,17.37A30.61,30.61,0,0,1,314.36,206Zm-17.16-7.73a28.67,28.67,0,0,0,40.09-5.69l13-17.37a14.81,14.81,0,0,0-2.94-20.73l-22.11-16.62a14.82,14.82,0,0,0-20.73,2.95l-13.05,17.37a28.66,28.66,0,0,0,5.69,40.09Z" fill="#ebf0f2"/><path d="M348.2,155.09l-23.71-17.82,5.35-7.11a8.89,8.89,0,0,1,12.46-1.77l9.48,7.12A8.91,8.91,0,0,1,353.55,148Zm-20.91-18.21,20.51,15.41,4.15-5.52a6.91,6.91,0,0,0-1.37-9.66L341.1,130a6.89,6.89,0,0,0-9.66,1.37Z" fill="#ebf0f2"/><path d="M352,136.9l-1.6-1.19h0a26.42,26.42,0,0,1,26-10.17l1.84.33-.36,2-1.84-.34A24.44,24.44,0,0,0,352,136.9Z" fill="#ebf0f2"/><path d="M342.5,129.78l-1.6-1.19h0a24.42,24.42,0,0,0,2.35-25.72l-.84-1.67,1.79-.9L345,102A26.4,26.4,0,0,1,342.5,129.78Z" fill="#ebf0f2"/><rect x="347.36" y="185.89" width="2" height="20.15" transform="translate(-41.99 281.88) rotate(-41.77)" fill="#ebf0f2"/><rect x="326.55" y="202.7" width="2" height="21.53" transform="translate(-36.96 72.09) rotate(-11.89)" fill="#ebf0f2"/><rect x="362.35" y="162.18" width="2" height="19.88" transform="translate(171.03 525.19) rotate(-86.77)" fill="#ebf0f2"/><rect x="284.19" y="138.42" width="2" height="20.15" transform="translate(28.01 341.48) rotate(-64.39)" fill="#ebf0f2"/><rect x="263.4" y="172.36" width="21.53" height="2" transform="translate(-12.11 20.83) rotate(-4.26)" fill="#ebf0f2"/><rect x="302.92" y="117.52" width="2" height="19.88" transform="translate(-25.08 108.14) rotate(-19.39)" fill="#ebf0f2"/><path d="M84.92,206a30.61,30.61,0,0,1-24.53-12.22l-13-17.37a16.81,16.81,0,0,1,3.34-23.53l22.11-16.61a16.82,16.82,0,0,1,23.53,3.34L109.37,157a30.66,30.66,0,0,1-6.09,42.89h0A30.5,30.5,0,0,1,84.92,206Zm-2-71.1a14.78,14.78,0,0,0-8.88,3L51.88,154.49a14.81,14.81,0,0,0-2.94,20.73L62,192.59a28.67,28.67,0,0,0,40.09,5.69h0a28.66,28.66,0,0,0,5.69-40.09l-13-17.37A14.79,14.79,0,0,0,82.87,134.91Z" fill="#ebf0f2"/><path d="M51.08,155.09,45.73,148a8.92,8.92,0,0,1,1.77-12.46L57,128.39a8.89,8.89,0,0,1,12.46,1.77l5.35,7.11ZM62.31,128.6A6.85,6.85,0,0,0,58.18,130l-9.48,7.12a6.91,6.91,0,0,0-1.37,9.66l4.15,5.52L72,136.88l-4.15-5.52a6.82,6.82,0,0,0-4.54-2.69A6.59,6.59,0,0,0,62.31,128.6Z" fill="#ebf0f2"/><path d="M47.3,136.91h0a24.44,24.44,0,0,0-24-9.41l-1.84.34-.36-2,1.84-.33a26.42,26.42,0,0,1,26,10.17Z" fill="#ebf0f2"/><path d="M56.78,129.79h0A26.39,26.39,0,0,1,54.25,102l.83-1.68,1.79.9L56,102.86a24.42,24.42,0,0,0,2.35,25.72Z" fill="#ebf0f2"/><rect x="40.85" y="194.96" width="20.15" height="2" transform="translate(-129.18 103.45) rotate(-48.25)" fill="#ebf0f2"/><rect x="60.97" y="212.46" width="21.53" height="2" transform="translate(-151.93 239.67) rotate(-78.11)" fill="#ebf0f2"/><rect x="26" y="171.11" width="19.88" height="2" transform="translate(-9.69 2.31) rotate(-3.25)" fill="#ebf0f2"/><rect x="104.02" y="147.5" width="20.15" height="2" transform="translate(-53 63.96) rotate(-25.63)" fill="#ebf0f2"/><rect x="124.11" y="162.59" width="2" height="21.53" transform="translate(-57.07 285.22) rotate(-85.73)" fill="#ebf0f2"/><rect x="85.42" y="126.46" width="19.88" height="2" transform="translate(-56.53 175.1) rotate(-70.61)" fill="#ebf0f2"/><path d="M266.89,165.77V120a67,67,0,1,0-134,0v45.76h18.65V119.9a48.37,48.37,0,1,1,96.73,0v45.87Z" fill="#fcf1e0"/><path d="M267.89,166.77H247.25V119.9a47.37,47.37,0,1,0-94.73,0v46.87H131.87V120a68,68,0,1,1,136,0Zm-18.64-2h16.64V120a66,66,0,1,0-132,0v44.76h16.65V119.9a49.37,49.37,0,1,1,98.73,0Z" fill="#4c5054"/><path d="M203.27,143.9l-.15-2a24.8,24.8,0,1,0-26.67-24.72,24.63,24.63,0,0,0,4.71,14.54l-1.62,1.18a26.8,26.8,0,1,1,23.73,11Z" fill="#4c5054"/><polygon points="208.12 134.64 209.51 135.79 203.86 142.63 211.1 147.77 210.06 149.24 201.24 142.98 208.12 134.64" fill="#4c5054"/><rect x="99.79" y="157.03" width="199.7" height="155.45" fill="#c4e6df"/><path d="M300.49,313.48H98.79V156h201.7Zm-199.7-2h197.7V158H100.79Z" fill="#4c5054"/><rect x="113.32" y="213.59" width="26.62" height="2" fill="#4c5054"/><rect x="145.64" y="213.59" width="16.31" height="2" fill="#4c5054"/><rect x="169.96" y="213.59" width="16.31" height="2" fill="#4c5054"/><rect x="226.89" y="213.59" width="10.05" height="2" fill="#4c5054"/><rect x="193.2" y="213.59" width="27.37" height="2" fill="#4c5054"/><rect x="113.32" y="228.95" width="34.43" height="2" fill="#4c5054"/><rect x="153.8" y="228.95" width="8.15" height="2" fill="#4c5054"/><rect x="169.96" y="228.95" width="8.15" height="2" fill="#4c5054"/><rect x="219.7" y="228.95" width="27.56" height="2" fill="#4c5054"/><rect x="252.58" y="228.95" width="19.46" height="2" fill="#4c5054"/><rect x="185.72" y="228.95" width="27.25" height="2" fill="#4c5054"/><rect x="113.32" y="244.3" width="21.38" height="2" fill="#4c5054"/><rect x="145.64" y="244.3" width="16.31" height="2" fill="#4c5054"/><rect x="169.96" y="244.3" width="16.31" height="2" fill="#4c5054"/><rect x="226.89" y="244.3" width="10.05" height="2" fill="#4c5054"/><rect x="243.1" y="244.3" width="8.3" height="2" fill="#4c5054"/><rect x="193.2" y="244.3" width="27.37" height="2" fill="#4c5054"/><rect x="113.32" y="259.66" width="11.66" height="2" fill="#4c5054"/><rect x="130.95" y="259.66" width="5.3" height="2" fill="#4c5054"/><rect x="142.92" y="259.66" width="33.53" height="2" fill="#4c5054"/><rect x="211.07" y="259.66" width="36.18" height="2" fill="#4c5054"/><rect x="182.72" y="259.66" width="17.46" height="2" fill="#4c5054"/><line x1="136.11" y1="303.31" x2="144.38" y2="274.79" fill="#fff"/><rect x="125.4" y="288.05" width="29.69" height="2" transform="translate(-176.43 343.26) rotate(-73.83)" fill="#4c5054"/><polygon points="148.37 297.72 147.59 295.88 162.97 289.3 147.59 282.71 148.37 280.87 168.05 289.3 148.37 297.72" fill="#4c5054"/><polygon points="132.12 297.72 112.44 289.3 132.12 280.87 132.9 282.71 117.52 289.3 132.9 295.88 132.12 297.72" fill="#4c5054"/><line x1="136.11" y1="200.46" x2="144.38" y2="171.94" fill="#fff"/><rect x="125.4" y="185.2" width="29.69" height="2" transform="translate(-77.64 269.05) rotate(-73.83)" fill="#4c5054"/><polygon points="148.37 194.86 147.59 193.03 162.97 186.44 147.59 179.85 148.37 178.02 168.05 186.44 148.37 194.86" fill="#4c5054"/><polygon points="132.12 194.86 112.44 186.44 132.12 178.02 132.9 179.85 117.52 186.44 132.9 193.03 132.12 194.86" fill="#4c5054"/></svg>