<?xml version="1.0" encoding="UTF-8" standalone="no"?><svg xmlns="http://www.w3.org/2000/svg" width="399.28" height="370.05" viewBox="0 0 399.28 370.05"><title>dev-teams-icons</title><rect x="124.2" y="343.85" width="44.87" height="7.69" fill="#fff"/><path d="M170.08,352.54H123.21v-9.69h46.87Zm-44.87-2h42.87v-5.69H125.21Z" fill="#ebf0f2"/><rect x="141.01" y="299.86" width="20.23" height="9.49" transform="translate(-169.3 190.81) rotate(-44.06)" fill="#fff"/><path d="M147.13,316.46l-8-8.26,16-15.46,8,8.26ZM142,308.25l5.2,5.38L160.27,301l-5.2-5.38Z" fill="#ebf0f2"/><rect x="157.78" y="292.85" width="4.63" height="6.3" transform="translate(480.98 397.36) rotate(135.94)" fill="#fff"/><path d="M160.6,301.29l-5.78-6,4.77-4.61,5.77,6Zm-2.95-5.92,3,3.09,1.89-1.83-3-3.09Z" fill="#ebf0f2"/><rect x="138.26" y="311.13" width="6.81" height="5.75" transform="translate(461.84 441.12) rotate(135.94)" fill="#fff"/><path d="M141.19,319.85l-5.38-5.57,6.33-6.12,5.39,5.56Zm-2.55-5.52,2.6,2.69,3.46-3.34-2.61-2.7Z" fill="#ebf0f2"/><path d="M169.08,343.85s-7.87-5-10.64-8.91-2.51-4.31-2.51-4.31" fill="#fff"/><path d="M168.54,344.69c-.33-.21-8.07-5.16-10.91-9.17-3.1-4.35-2.81-4.9-2.59-5.35l1.79.91a.87.87,0,0,0,.09-.52s.2.8,2.34,3.8c2.62,3.69,10.28,8.59,10.35,8.64Z" fill="#ebf0f2"/><path d="M146.3,337.89h-6.82L135.64,334H123.38v-6.15h21a6.69,6.69,0,0,1,6.08-3.83,6.5,6.5,0,0,1,6.49,6.49v.19l-2-.07v-.12a4.5,4.5,0,0,0-4.49-4.49,4.61,4.61,0,0,0-4.43,3.11l-.07.24-.47.47H125.38V332H146.3Zm-6-2h4V334h-5.84Z" fill="#ebf0f2"/><polyline points="131.03 332.95 138.51 340.43 145.17 340.43 145.17 343.93" fill="#fff"/><polygon points="146.17 343.93 144.17 343.93 144.17 341.43 138.1 341.43 130.33 333.66 131.74 332.25 138.93 339.43 146.17 339.43 146.17 343.93" fill="#ebf0f2"/><path d="M156.41,331.29l-1-1.72a13.88,13.88,0,0,0,1-23.18l1.17-1.62a15.88,15.88,0,0,1-1.19,26.52Z" fill="#ebf0f2"/><path d="M153.41,308.89a10.12,10.12,0,0,1,.34,17.28" fill="#fff"/><path d="M154.29,327l-1.08-1.69a9.12,9.12,0,0,0-.31-15.57l1-1.73a11.13,11.13,0,0,1,.38,19Z" fill="#ebf0f2"/><circle cx="150.44" cy="330.55" r="2.25" fill="#fff"/><path d="M150.44,333.8a3.25,3.25,0,1,1,3.25-3.25A3.24,3.24,0,0,1,150.44,333.8Zm0-4.49a1.25,1.25,0,1,0,1.25,1.24A1.25,1.25,0,0,0,150.44,329.31Z" fill="#ebf0f2"/><rect x="230.2" y="343.85" width="44.87" height="7.69" transform="translate(505.28 695.39) rotate(-180)" fill="#fff"/><path d="M276.08,352.54H229.21v-9.69h46.87Zm-44.87-2h42.87v-5.69H231.21Z" fill="#ebf0f2"/><rect x="238.04" y="299.86" width="20.23" height="9.49" transform="translate(214.66 696.06) rotate(-135.94)" fill="#fff"/><path d="M252.15,316.46l-16-15.46,8-8.26,16,15.46ZM239,301l13.1,12.68,5.2-5.38-13.1-12.68Z" fill="#ebf0f2"/><rect x="236.87" y="292.85" width="4.63" height="6.3" transform="translate(273.16 -83.04) rotate(44.06)" fill="#fff"/><path d="M238.68,301.29l-4.76-4.62,5.77-6,4.77,4.61Zm-1.93-4.66,1.89,1.83,3-3.09-1.89-1.83Z" fill="#ebf0f2"/><rect x="254.21" y="311.13" width="6.81" height="5.75" transform="translate(290.86 -90.79) rotate(44.06)" fill="#fff"/><path d="M258.09,319.85l-6.34-6.13,5.39-5.56,6.33,6.12Zm-3.51-6.17L258,317l2.6-2.69L257.19,311Z" fill="#ebf0f2"/><path d="M230.2,343.85s7.87-5,10.64-8.91,2.51-4.31,2.51-4.31" fill="#fff"/><path d="M230.74,344.69,229.67,343c.07-.05,7.73-4.95,10.35-8.64,2.14-3,2.33-3.77,2.34-3.8a.83.83,0,0,0,.1.52l1.78-.91c.22.45.51,1-2.59,5.35C238.81,339.53,231.07,344.48,230.74,344.69Z" fill="#ebf0f2"/><path d="M259.8,337.89H253V332H273.9v-2.15H253.83l-.47-.47-.09-.25a4.61,4.61,0,0,0-4.43-3.11,4.5,4.5,0,0,0-4.49,4.49v.12l-2,.07v-.19a6.5,6.5,0,0,1,6.49-6.49,6.69,6.69,0,0,1,6.08,3.83h21V334H263.65Zm-4.82-2h4l1.85-1.85H255Z" fill="#ebf0f2"/><polyline points="268.25 332.95 260.77 340.43 254.11 340.43 254.11 343.93" fill="#fff"/><polygon points="255.11 343.93 253.11 343.93 253.11 339.43 260.35 339.43 267.54 332.25 268.95 333.66 261.18 341.43 255.11 341.43 255.11 343.93" fill="#ebf0f2"/><path d="M242.87,331.29a15.88,15.88,0,0,1-1.19-26.52l1.17,1.62a13.88,13.88,0,0,0,1,23.18Z" fill="#ebf0f2"/><path d="M245.87,308.89a10.12,10.12,0,0,0-.34,17.28" fill="#fff"/><path d="M245,327a11.13,11.13,0,0,1,.38-19l1,1.73a9.12,9.12,0,0,0-.31,15.57Z" fill="#ebf0f2"/><circle cx="248.84" cy="330.55" r="2.25" fill="#fff"/><path d="M248.84,333.8a3.25,3.25,0,1,1,3.24-3.25A3.25,3.25,0,0,1,248.84,333.8Zm0-4.49a1.25,1.25,0,1,0,1.24,1.24A1.25,1.25,0,0,0,248.84,329.31Z" fill="#ebf0f2"/><circle cx="153.04" cy="71.24" r="21.56" fill="#fff"/><line x1="168.29" y1="86.48" x2="190.79" y2="108.99" fill="#fff"/><circle cx="153.04" cy="71.24" r="21.56" fill="none" stroke="#ebf0f2" stroke-miterlimit="10" stroke-width="2"/><line x1="168.29" y1="86.48" x2="190.79" y2="108.99" fill="none" stroke="#ebf0f2" stroke-miterlimit="10" stroke-width="2"/><circle cx="246.24" cy="71.24" r="21.56" fill="#fff"/><line x1="230.99" y1="86.48" x2="208.49" y2="108.99" fill="#fff"/><circle cx="246.24" cy="71.24" r="21.56" fill="none" stroke="#ebf0f2" stroke-miterlimit="10" stroke-width="2"/><line x1="230.99" y1="86.48" x2="208.49" y2="108.99" fill="none" stroke="#ebf0f2" stroke-miterlimit="10" stroke-width="2"/><path d="M346.47,347.88a18.47,18.47,0,0,1-13.15-5.44l-41-41a18.59,18.59,0,1,1,26.29-26.29l41,41a18.59,18.59,0,0,1-13.14,31.74Zm-41-76.2A16.6,16.6,0,0,0,293.72,300l41,41a16.6,16.6,0,0,0,23.47-23.47l-41-41A16.49,16.49,0,0,0,305.46,271.68Z" fill="#ebf0f2"/><path d="M305.45,347.88a18.59,18.59,0,0,1-13.14-31.74l8.06-8.07,1.41,1.42-8.06,8.06A16.6,16.6,0,0,0,317.19,341l8.06-8.06,1.42,1.41-8.07,8.07A18.47,18.47,0,0,1,305.45,347.88Zm24.85-17.14-1.41-1.41,17.67-17.68,1.41,1.42Zm21.25-21.25-1.41-1.42L358.2,300a16.6,16.6,0,0,0-23.47-23.47l-7.6,7.6-1.41-1.42,7.6-7.59a18.59,18.59,0,1,1,26.29,26.3Zm-46-3.81-1.41-1.42,17.67-17.67,1.42,1.41Z" fill="#ebf0f2"/><circle cx="325.96" cy="308.78" r="1.78" fill="#ebf0f2"/><circle cx="332.08" cy="302.66" r="1.78" fill="#ebf0f2"/><circle cx="338.21" cy="308.78" r="1.78" fill="#ebf0f2"/><circle cx="319.84" cy="302.66" r="1.78" fill="#ebf0f2"/><circle cx="332.08" cy="314.91" r="1.78" fill="#ebf0f2"/><circle cx="313.71" cy="308.78" r="1.78" fill="#ebf0f2"/><circle cx="319.84" cy="314.91" r="1.78" fill="#ebf0f2"/><circle cx="325.96" cy="321.03" r="1.78" fill="#ebf0f2"/><path d="M52.82,347.88a18.59,18.59,0,0,1-13.15-31.74l41-41A18.59,18.59,0,1,1,107,301.42l-41,41A18.5,18.5,0,0,1,52.82,347.88Zm41-76.2a16.5,16.5,0,0,0-11.74,4.86l-41,41A16.6,16.6,0,0,0,64.55,341l41-41a16.6,16.6,0,0,0-11.73-28.33Z" fill="#ebf0f2"/><path d="M93.83,347.88a18.47,18.47,0,0,1-13.15-5.44l-8.07-8.07L74,333,82.09,341a16.6,16.6,0,0,0,23.47-23.47l-8.06-8.06,1.41-1.42,8.06,8.07a18.59,18.59,0,0,1-13.14,31.74ZM69,330.74,51.31,313.07l1.41-1.42,17.67,17.68ZM47.73,309.49l-8.06-8.06A18.59,18.59,0,1,1,66,275.13l7.6,7.59-1.41,1.42-7.6-7.6A16.6,16.6,0,0,0,41.08,300l8.06,8.06Zm46-3.81L76,288l1.41-1.41,17.67,17.67Z" fill="#ebf0f2"/><circle cx="73.32" cy="308.78" r="1.78" fill="#ebf0f2"/><circle cx="67.2" cy="302.66" r="1.78" fill="#ebf0f2"/><circle cx="61.07" cy="308.78" r="1.78" fill="#ebf0f2"/><circle cx="79.44" cy="302.66" r="1.78" fill="#ebf0f2"/><circle cx="67.2" cy="314.91" r="1.78" fill="#ebf0f2"/><circle cx="85.57" cy="308.78" r="1.78" fill="#ebf0f2"/><circle cx="79.44" cy="314.91" r="1.78" fill="#ebf0f2"/><circle cx="73.32" cy="321.03" r="1.78" fill="#ebf0f2"/><rect x="167.37" y="286.09" width="3.67" height="2" fill="#ebf0f2"/><rect x="228.47" y="286.09" width="3.44" height="2" fill="#ebf0f2"/><rect x="177.12" y="263.59" width="2" height="3.74" transform="translate(-135.54 203.7) rotate(-45)" fill="#ebf0f2"/><rect x="220.26" y="306.9" width="2" height="3.39" transform="translate(-153.42 246.91) rotate(-45.01)" fill="#ebf0f2"/><rect x="198.75" y="254.68" width="2" height="3.69" fill="#ebf0f2"/><rect x="219.54" y="264.54" width="3.52" height="2" transform="translate(-122.94 234.26) rotate(-45)" fill="#ebf0f2"/><rect x="176.26" y="307.72" width="3.74" height="2" transform="translate(-166.12 216.37) rotate(-45)" fill="#ebf0f2"/><path d="M199.68,325.06H189.07v-8c0-4.07-6.33-11.72-8.78-14.33l1.47-1.37c.38.41,9.31,10,9.31,15.7v6h8.61Z" fill="#ebf0f2"/><path d="M210.07,325.06H199.46v-2h8.61v-6c0-5.68,8.94-15.29,9.32-15.7l1.46,1.37c-2.44,2.61-8.78,10.27-8.78,14.33Z" fill="#ebf0f2"/><path d="M199.57,312.07a24.51,24.51,0,1,1,24.5-24.5A24.53,24.53,0,0,1,199.57,312.07Zm0-47a22.51,22.51,0,1,0,22.5,22.51A22.53,22.53,0,0,0,199.57,265.06Z" fill="#ebf0f2"/><rect x="198.57" y="264.06" width="2" height="47" fill="#ebf0f2"/><rect x="176.07" y="286.57" width="47" height="2" fill="#ebf0f2"/><path d="M198,311.75c-7-4.33-11.53-13.86-11.53-24.27,0-10.24,4.42-19.7,11.25-24.1l1.08,1.68c-6.27,4-10.33,12.84-10.33,22.42,0,9.74,4.15,18.6,10.58,22.57Z" fill="#ebf0f2"/><path d="M201.1,311.75l-1-1.7c6.43-4,10.59-12.83,10.59-22.57,0-9.58-4.06-18.38-10.34-22.42l1.08-1.68c6.84,4.4,11.26,13.86,11.26,24.1C212.64,297.89,208.11,307.42,201.1,311.75Z" fill="#ebf0f2"/><path d="M199.68,281a25.85,25.85,0,0,1-18.76-8l1.43-1.39a24.08,24.08,0,0,0,34.36.3l1.41,1.41A25.9,25.9,0,0,1,199.68,281Z" fill="#ebf0f2"/><path d="M216.7,303.19a24.09,24.09,0,0,0-34.36-.29l-1.41-1.41a25.92,25.92,0,0,1,18.45-7.65h0a25.87,25.87,0,0,1,18.76,8Z" fill="#ebf0f2"/><rect x="188.62" y="328.69" width="21.89" height="2" fill="#ebf0f2"/><rect x="188.62" y="333.98" width="21.89" height="2" fill="#ebf0f2"/><rect x="193.02" y="339.27" width="13.23" height="2" fill="#ebf0f2"/><path d="M93.83,99.37a18.47,18.47,0,0,1-13.15-5.44l-41-41A18.6,18.6,0,1,1,66,26.62l41,41A18.59,18.59,0,0,1,93.83,99.37Zm-41-76.2A16.6,16.6,0,0,0,41.08,51.5l41,41A16.6,16.6,0,0,0,105.56,69l-41-41A16.49,16.49,0,0,0,52.82,23.17Z" fill="#ebf0f2"/><path d="M52.81,99.37A18.59,18.59,0,0,1,39.67,67.63l8.06-8.06L49.14,61,41.08,69A16.6,16.6,0,0,0,64.55,92.51l7.6-7.59,1.41,1.41L66,93.93A18.47,18.47,0,0,1,52.81,99.37Zm24.63-16.9L76,81.05,93.7,63.38l1.41,1.41ZM98.91,61,97.5,59.57l8.06-8.07A16.6,16.6,0,0,0,82.09,28L74,36.1l-1.42-1.42,8.07-8.06A18.59,18.59,0,1,1,107,52.92ZM52.72,57.4,51.31,56,69,38.31l1.41,1.42Z" fill="#ebf0f2"/><circle cx="73.32" cy="60.27" r="1.78" fill="#ebf0f2"/><circle cx="67.2" cy="66.4" r="1.78" fill="#ebf0f2"/><circle cx="61.07" cy="60.27" r="1.78" fill="#ebf0f2"/><circle cx="79.44" cy="66.4" r="1.78" fill="#ebf0f2"/><circle cx="67.2" cy="54.15" r="1.78" fill="#ebf0f2"/><circle cx="85.57" cy="60.27" r="1.78" fill="#ebf0f2"/><circle cx="79.44" cy="54.15" r="1.78" fill="#ebf0f2"/><circle cx="73.32" cy="48.02" r="1.78" fill="#ebf0f2"/><path d="M305.46,99.37a18.59,18.59,0,0,1-13.15-31.74l41-41a18.59,18.59,0,1,1,26.29,26.3l-41,41A18.46,18.46,0,0,1,305.46,99.37Zm41-76.2A16.5,16.5,0,0,0,334.73,28l-41,41a16.6,16.6,0,0,0,23.47,23.47l41-41a16.6,16.6,0,0,0-11.73-28.33Z" fill="#ebf0f2"/><path d="M346.47,99.37a18.47,18.47,0,0,1-13.15-5.44l-7.6-7.6,1.41-1.41,7.6,7.59A16.6,16.6,0,0,0,358.2,69L350.14,61l1.41-1.41,8.06,8.06a18.59,18.59,0,0,1-13.14,31.74Zm-24.63-16.9L304.17,64.79l1.41-1.41,17.68,17.67ZM300.37,61l-8.06-8.06a18.59,18.59,0,1,1,26.29-26.3l8.07,8.06-1.42,1.42L317.19,28A16.6,16.6,0,0,0,293.72,51.5l8.06,8.07Zm46.19-3.58L328.89,39.73l1.41-1.42L348,56Z" fill="#ebf0f2"/><circle cx="325.96" cy="60.27" r="1.78" fill="#ebf0f2"/><circle cx="332.08" cy="66.4" r="1.78" fill="#ebf0f2"/><circle cx="338.21" cy="60.27" r="1.78" fill="#ebf0f2"/><circle cx="319.84" cy="66.4" r="1.78" fill="#ebf0f2"/><circle cx="332.08" cy="54.15" r="1.78" fill="#ebf0f2"/><circle cx="313.71" cy="60.27" r="1.78" fill="#ebf0f2"/><circle cx="319.84" cy="54.15" r="1.78" fill="#ebf0f2"/><circle cx="325.96" cy="48.02" r="1.78" fill="#ebf0f2"/><circle cx="61.89" cy="95.65" r="1.78" fill="#ebf0f2"/><path d="M142.94,112.23h-52A71.53,71.53,0,0,0,19.4,183.76h0A71.53,71.53,0,0,0,90.93,255.3h8.55l50,28.52-8.69-28.52h2.2a71.53,71.53,0,0,0,71.53-71.54h0A71.53,71.53,0,0,0,142.94,112.23Z" fill="#edd6d6"/><path d="M151.12,285.94,99.22,256.3H90.93a72.54,72.54,0,0,1,0-145.07h52a72.54,72.54,0,0,1,0,145.07h-.85ZM90.93,113.23a70.54,70.54,0,0,0,0,141.07h8.82l48,27.4-8.35-27.4h3.55a70.54,70.54,0,0,0,0-141.07Z" fill="#4c5054"/><path d="M256.34,112.23h52a71.54,71.54,0,0,1,71.54,71.53h0a71.54,71.54,0,0,1-71.54,71.54H299.8l-50,28.52,8.69-28.52h-2.2a71.53,71.53,0,0,1-71.53-71.54h0A71.53,71.53,0,0,1,256.34,112.23Z" fill="#d0f1f7"/><path d="M248.16,285.94l9-29.64h-.85a72.54,72.54,0,0,1,0-145.07h52a72.54,72.54,0,1,1,0,145.07h-8.29Zm8.18-172.71a70.54,70.54,0,0,0,0,141.07h3.55l-8.35,27.4,48-27.4h8.82a70.54,70.54,0,1,0,0-141.07Z" fill="#4c5054"/><path d="M125.33,166.46a13.1,13.1,0,0,1,13.06,13.06v24.4c0,9.09-7.44,19.3-16.53,19.3h-8.51c-9.08,0-16.52-10.21-16.52-19.3v-24.4a13.1,13.1,0,0,1,13.06-13.06Z" fill="#d0f1f7"/><path d="M105.2,167v-5.79a8.63,8.63,0,0,1,8.6-8.6h8a8.63,8.63,0,0,1,8.6,8.6V167" fill="#d0f1f7"/><path d="M121.86,224.22h-8.51c-9.87,0-17.52-10.91-17.52-20.3v-24.4a14.08,14.08,0,0,1,14.06-14.06h15.44a14.08,14.08,0,0,1,14.06,14.06v24.4C139.39,213.31,131.73,224.22,121.86,224.22Zm-12-56.76a12.07,12.07,0,0,0-12.06,12.06v24.4c0,8.29,6.93,18.3,15.52,18.3h8.51c8.6,0,15.53-10,15.53-18.3v-24.4a12.07,12.07,0,0,0-12.06-12.06Z" fill="#4c5054"/><polygon points="96.88 210.55 86.82 200.52 77.92 209.42 76.51 208 86.82 197.69 98.29 209.13 96.88 210.55" fill="#4c5054"/><polygon points="96.19 196.18 86.13 186.15 77.23 195.05 75.82 193.64 86.13 183.33 97.6 194.76 96.19 196.18" fill="#4c5054"/><polygon points="96.19 181.81 86.13 171.78 77.23 180.68 75.82 179.27 86.13 168.96 97.6 180.4 96.19 181.81" fill="#4c5054"/><polygon points="138.21 210.64 136.8 209.22 148.39 197.63 158.7 207.94 157.29 209.35 148.39 200.46 138.21 210.64" fill="#4c5054"/><polygon points="138.91 196.27 137.49 194.85 149.09 183.26 159.4 193.57 157.98 194.99 149.09 186.09 138.91 196.27" fill="#4c5054"/><polygon points="138.91 181.9 137.49 180.49 149.09 168.89 159.4 179.21 157.98 180.62 149.09 171.72 138.91 181.9" fill="#4c5054"/><rect x="97.42" y="177.89" width="40.38" height="2" fill="#4c5054"/><rect x="116.61" y="178.89" width="2" height="44.33" fill="#4c5054"/><path d="M131.36,167h-2v-5.79a7.61,7.61,0,0,0-7.6-7.6h-8a7.61,7.61,0,0,0-7.6,7.6V167h-2v-5.79a9.61,9.61,0,0,1,9.6-9.6h8a9.62,9.62,0,0,1,9.6,9.6Z" fill="#4c5054"/><rect x="120.67" y="146.62" width="12" height="2" transform="translate(-67.28 132.81) rotate(-45)" fill="#4c5054"/><rect x="107.86" y="141.63" width="2" height="11.93" transform="translate(-72.49 120.21) rotate(-45)" fill="#4c5054"/><path d="M246.5,161.8a92.1,92.1,0,0,0,3.5,25c5.62,19.49,17.07,33.36,34,41.22,17-7.86,28.4-21.72,34-41.22a91.94,91.94,0,0,0,3.49-25c-1,.08-2.09.11-3.13.11-17.17,0-29.38-9.56-34.39-14.3-5,4.75-17.22,14.3-34.39,14.3-1,0-2.08,0-3.13-.11Z" fill="#edd6d6"/><path d="M284,229.1l-.42-.2c-17.22-8-28.85-22.07-34.57-41.86a93.19,93.19,0,0,1-3.53-25.24v-1.07l1.07.08c1,.07,2.05.1,3.06.1,17.06,0,29.25-9.81,33.7-14l.69-.65.69.65c4.45,4.21,16.64,14,33.7,14,1,0,2,0,3.07-.1l1.06-.08v1.07A93,93,0,0,1,319,187.05c-5.71,19.78-17.34,33.86-34.57,41.85Zm-36.51-66.24A91,91,0,0,0,251,186.49c5.49,19,16.62,32.63,33.06,40.4,16.45-7.77,27.57-21.36,33.07-40.4a91.09,91.09,0,0,0,3.45-23.63c-.71,0-1.42,0-2.13,0-17,0-29.28-9.27-34.39-13.93-5.11,4.66-17.42,13.93-34.39,13.93C248.93,162.91,248.22,162.9,247.51,162.86Z" fill="#4c5054"/><polygon points="277.27 201.06 260.63 184.5 262.04 183.08 277.26 198.24 306 169.5 307.42 170.91 277.27 201.06" fill="#4c5054"/></svg>