<?xml version="1.0" encoding="UTF-8" standalone="no"?><svg width="252" height="30" viewBox="0 0 252 30" fill="none" xmlns="http://www.w3.org/2000/svg">
<path d="M10.853 5.635V22.8963H6.62326V5.635C6.62326 4.75855 6.54782 4.0087 6.43343 3.40005C3.10659 3.40005 1.13775 2.66967 0.539062 1.16509H11.661C14.7615 1.20404 16.4237 2.14136 16.6525 3.96731C15.8153 3.58751 14.5717 3.39761 12.8973 3.39761L10.7581 3.34892C10.8165 4.09147 10.8554 4.8535 10.8554 5.63257L10.853 5.635ZM30.6656 10.7696C30.6656 8.08908 29.2005 6.72814 26.2923 6.72814C25.2093 6.72814 24.2674 7.00325 23.4887 7.53642C22.945 7.92076 22.5173 8.44712 22.2524 9.05805V1.16752H18.4485V22.8987H22.2524V10.7744C22.8218 9.76408 23.5909 9.25038 24.5814 9.25038C24.878 9.25282 25.1708 9.31758 25.4408 9.44047C25.7108 9.56335 25.952 9.74162 26.1487 9.96371C26.3581 10.1684 26.5248 10.4125 26.6393 10.6821C26.7537 10.9516 26.8136 11.2412 26.8155 11.534V22.8987H30.6656V10.7696ZM40.4952 20.8975C39.2784 20.3278 38.5653 19.2152 38.356 17.5231C38.7941 16.9315 39.6386 16.3326 40.8749 15.7629C42.2256 15.1348 43.3183 14.3849 44.1555 13.528C45.0681 12.5785 45.5329 11.5803 45.5329 10.5334C45.5329 9.46706 45.0584 8.56382 44.1068 7.82127C43.1771 7.06168 42.026 6.70866 40.6388 6.72814C38.4704 6.72814 36.7595 7.6119 35.5037 9.34289C34.3623 10.9595 33.7929 12.9388 33.7929 15.2395C33.7929 17.5037 34.467 19.3661 35.8372 20.8512C37.2244 22.3534 38.9742 23.0862 41.0647 23.0862C41.6561 23.057 42.2158 22.9888 42.7293 22.8963C43.9656 22.7064 44.888 22.3534 45.5329 21.8007V19.3783C44.6787 20.654 43.5933 21.2821 42.301 21.2821C41.6926 21.2821 41.0842 21.1653 40.4952 20.8975ZM38.0713 15.7629C38.0348 15.2883 38.0186 14.8123 38.0226 14.3362C38.0226 10.324 38.7941 8.24976 40.3516 8.15481C41.5514 8.04038 42.1599 8.65877 42.1599 10.01C42.1599 10.9035 41.9311 11.7507 41.493 12.5298C41.066 13.3064 40.4645 13.9731 39.7359 14.4775C38.7454 15.1835 38.1857 15.612 38.0713 15.7629ZM66.6281 20.7563H60.5925L60.6412 11.0082H63.4448C63.9851 11.0082 64.4621 11.0447 64.871 11.1031C65.9442 11.237 66.7035 11.4269 67.1513 11.6728C66.7425 9.90528 65.3455 9.01179 62.9678 9.01179H60.6388V8.15481V3.25641H63.2063C64.9172 3.29536 66.1048 3.34405 66.7717 3.40005C67.9398 3.58995 69.0058 4.0087 69.9549 4.63682C69.7943 3.3051 69.0252 2.35317 67.6259 1.78348C66.6322 1.36903 65.5654 1.15874 64.4889 1.16509H56.4091V22.8963H66.8179C67.9301 22.8963 68.7965 22.497 69.4341 21.6595C70.0036 20.9924 70.2883 20.2134 70.2883 19.2809C69.7188 20.2718 68.502 20.7563 66.6281 20.7563ZM93.1722 11.1007C93.1722 9.58148 92.6952 8.42992 91.7461 7.63137C90.9186 7.0422 89.9208 6.73057 88.7527 6.73057C86.8106 6.73057 85.4331 7.62163 84.6154 9.39158C84.1019 7.62163 82.7244 6.72814 80.4781 6.72814C79.8952 6.75296 79.3192 6.8654 78.7697 7.06168C78.1815 7.27493 77.6447 7.60944 77.194 8.04352C76.7433 8.47761 76.3888 9.00158 76.1535 9.58148L76.1048 6.87178H72.447V22.8963H76.2484L76.2971 11.5316C76.3263 11.1323 76.5356 10.7038 76.9152 10.2461C77.1237 9.94876 77.4016 9.70682 77.7248 9.54135C78.048 9.37587 78.4067 9.29187 78.7697 9.29664C79.2735 9.29664 79.748 9.53279 80.1934 10.01C80.4154 10.2068 80.5936 10.448 80.7165 10.7181C80.8393 10.9882 80.904 11.2811 80.9065 11.5778V22.8963H84.7103V11.4829C85.1849 10.0562 85.9564 9.34289 87.0393 9.34289C87.638 9.34289 88.1588 9.62044 88.6066 10.1512C89.0836 10.6649 89.3197 11.237 89.3197 11.8627V13.2894L89.3684 22.8963H93.2185L93.1698 11.1031L93.1722 11.1007ZM100.605 6.87178H96.8033V22.8963H100.605V6.87178ZM98.704 4.63682C98.954 4.64354 99.2026 4.59586 99.4324 4.49708C99.6623 4.3983 99.8679 4.25077 100.035 4.06469C100.216 3.89376 100.361 3.68729 100.459 3.45817C100.557 3.22904 100.606 2.98217 100.605 2.73297C100.606 2.49099 100.556 2.25152 100.457 2.03036C100.359 1.8092 100.215 1.61137 100.035 1.44994C99.6823 1.07014 99.2467 0.880242 98.704 0.880242C98.1613 0.880242 97.7062 1.07014 97.3265 1.44994C97.146 1.61125 97.0017 1.80899 96.9031 2.03014C96.8045 2.25129 96.7539 2.49083 96.7546 2.73297C96.7546 3.24667 96.9444 3.68489 97.3265 4.06469C97.5047 4.2493 97.719 4.39534 97.9559 4.49375C98.1928 4.59217 98.4474 4.64086 98.704 4.63682ZM113.545 7.49017C113.087 6.99351 112.364 6.72814 111.357 6.72814C110.938 6.76709 110.519 6.89856 110.12 7.10793C109.191 7.62163 108.514 8.53461 108.076 9.86633V6.87178H104.275L104.323 22.8963H108.076V12.1962C108.076 11.6265 108.373 11.0374 108.981 10.3898C109.646 9.72512 110.369 9.39158 111.167 9.39158C112.024 9.39158 112.802 9.8006 113.545 10.5797V7.49017ZM120.797 6.72814C119.276 6.72814 117.954 7.20288 116.852 8.15481V10.5797C117.1 10.0465 117.441 9.6107 117.898 9.24794C118.487 8.7732 119.142 8.53461 119.845 8.53461C120.702 8.53461 121.34 8.81215 121.795 9.34289C122.083 9.67094 122.237 10.0966 122.223 10.5334C122.223 11.1421 122.079 11.6265 121.795 12.0063C121.51 12.3667 120.996 12.7124 120.274 13.0532C118.239 13.9467 116.947 14.6114 116.377 15.0496C114.912 16.133 114.189 17.4647 114.189 19.0423C114.189 19.4075 114.209 19.7849 114.287 20.1866C114.666 22.1245 115.92 23.0837 118.088 23.0837C118.964 23.0837 119.77 22.8476 120.512 22.3728C121.177 22.032 121.654 21.5938 121.938 21.0411V22.8963H125.599V10.8183C125.622 10.2888 125.532 9.76045 125.336 9.26842C125.139 8.77639 124.839 8.33201 124.457 7.96491C123.525 7.14689 122.318 6.72814 120.797 6.72814ZM119.656 21.3747C119.41 21.3806 119.166 21.3374 118.937 21.2475C118.708 21.1576 118.5 21.0228 118.324 20.8512C117.869 20.4519 117.621 19.8798 117.565 19.1397C117.468 18.0733 117.716 17.1239 118.324 16.2864C118.726 15.7532 119.381 15.1908 120.274 14.6211C121.186 14.0514 121.719 13.6984 121.89 13.528V20.1841C121.909 20.2815 121.748 20.5006 121.366 20.8025C120.883 21.1928 120.276 21.3959 119.656 21.3747ZM135.294 8.72451C136.151 8.72451 136.94 8.89493 137.672 9.20169V6.87178H134.153V3.21015C133.642 4.10365 132.756 5.10183 131.493 6.2047C130.123 7.38548 128.83 8.23028 127.594 8.72451L130.398 8.7732V22.8938H134.153V8.7732H134.866C135.006 8.73621 135.15 8.7198 135.294 8.72451ZM145.657 20.8975C144.44 20.3278 143.727 19.2152 143.518 17.5231C143.956 16.9315 144.8 16.3326 146.037 15.7629C147.387 15.1348 148.48 14.3849 149.317 13.528C150.23 12.5785 150.695 11.5803 150.695 10.5334C150.695 9.46706 150.22 8.56382 149.269 7.82127C148.336 7.06168 147.188 6.70866 145.801 6.72814C143.632 6.72814 141.921 7.6119 140.665 9.34289C139.524 10.9595 138.955 12.9388 138.955 15.2395C138.955 17.5037 139.629 19.3661 140.999 20.8512C142.386 22.3534 144.136 23.0862 146.226 23.0862C146.815 23.057 147.378 22.9888 147.891 22.8963C149.127 22.7064 150.05 22.3534 150.695 21.8007V19.3783C149.84 20.654 148.755 21.2821 147.463 21.2821C146.854 21.2821 146.246 21.1653 145.657 20.8975ZM143.233 15.7629C143.197 15.2883 143.18 14.8123 143.184 14.3362C143.184 10.324 143.956 8.24976 145.513 8.15481C146.713 8.04038 147.322 8.65877 147.322 10.01C147.322 10.9035 147.093 11.7507 146.655 12.5298C146.227 13.3067 145.625 13.9734 144.895 14.4775C143.907 15.1835 143.347 15.612 143.233 15.7629ZM159.271 18.6625C159.271 19.5 158.994 20.1281 158.463 20.5664C157.911 21.1166 157.141 21.3649 156.134 21.326C155.467 21.326 154.82 21.1166 154.231 20.6613C153.759 20.3644 153.368 19.9555 153.092 19.4708V21.9444C154.099 22.7064 155.392 23.0862 156.988 23.0862C158.434 23.1111 159.838 22.6033 160.933 21.6595C162.094 20.5932 162.693 19.3199 162.693 17.8542C162.693 16.7903 162.418 15.8481 161.885 15.0496C161.371 14.3265 160.563 13.6229 159.461 12.9558C158.244 12.1768 157.616 11.758 157.56 11.7215C156.818 11.1494 156.465 10.5334 156.465 9.86633C156.465 9.52549 156.579 9.20169 156.847 8.91684C157.151 8.57356 157.616 8.3934 158.224 8.3934C158.414 8.3934 158.614 8.42992 158.843 8.48835C160.04 8.67825 161.028 9.29663 161.787 10.3411V7.96491C161.505 7.71658 161.001 7.47069 160.315 7.20288C159.51 6.89728 158.657 6.73656 157.796 6.72814C156.588 6.7072 155.41 7.1113 154.469 7.86996C153.52 8.62956 153.043 9.53279 153.043 10.5797C153.043 12.6539 154.099 14.29 156.229 15.5243C157.331 16.1719 158.044 16.6467 158.368 16.951C158.957 17.4647 159.271 18.0368 159.271 18.6625ZM189.653 21.1848V10.5334H185.09C185.564 11.5584 185.813 13.2334 185.852 15.573V20.4227C185.394 20.8415 184.805 21.0703 184.043 21.0898C182.486 21.0898 181.011 20.4519 179.624 19.1397C177.818 17.5231 176.915 15.3247 176.915 12.5298C176.915 9.46706 177.541 6.96673 178.813 5.06288C180.013 3.29536 181.488 2.40186 183.235 2.40186C185.613 2.40186 187.19 3.34162 187.988 5.20652L188.037 1.97338C186.896 1.2503 185.185 0.877808 182.902 0.877808C179.767 0.877808 177.2 2.06832 175.204 4.44692C173.36 6.67214 172.447 9.37211 172.447 12.5298C172.447 15.9333 173.445 18.5676 175.44 20.4714C177.341 22.2779 179.821 23.1811 182.904 23.1811C183.778 23.1811 184.625 23.1057 185.423 22.9425C187.285 22.6017 188.701 22.0198 189.653 21.1848ZM203.467 7.49017C203.009 6.99351 202.286 6.72814 201.279 6.72814C200.863 6.76709 200.444 6.89856 200.045 7.10793C199.113 7.62163 198.439 8.53461 198.001 9.86633V6.87178H194.197L194.245 22.8963H198.001V12.1962C198.001 11.6265 198.293 11.0374 198.901 10.3898C199.568 9.72512 200.291 9.39158 201.091 9.39158C201.943 9.39158 202.724 9.8006 203.467 10.5797V7.49017ZM211.612 6.72814C209.617 6.72814 207.906 7.53642 206.479 9.15299C205.073 10.7501 204.387 12.6637 204.387 14.9059C204.387 17.511 205.073 19.556 206.479 21.0411C207.811 22.4094 209.522 23.0862 211.615 23.0862C213.61 23.0862 215.292 22.3071 216.701 20.7076C218.125 19.091 218.838 17.1701 218.838 14.9059C218.838 12.3764 218.125 10.3703 216.699 8.86815C215.367 7.44147 213.666 6.72814 211.612 6.72814ZM211.566 21.231C210.673 21.231 209.911 20.6029 209.283 19.3296C208.638 18.0368 208.334 16.5055 208.334 14.716C208.334 12.9096 208.638 11.3806 209.283 10.1049C209.911 8.81215 210.67 8.15481 211.566 8.15481C212.384 8.15481 213.106 8.81215 213.751 10.1025C214.379 11.3782 214.703 12.9096 214.703 14.716C214.703 16.5055 214.379 18.0368 213.754 19.3296C213.106 20.6029 212.384 21.231 211.566 21.231ZM226.406 23.0862C227.032 23.0204 227.604 22.9158 228.117 22.7526C229.276 22.3534 230.064 21.6108 230.446 20.5664V22.8963H234.202V6.91804H230.446V18.6163C230.358 18.9495 230.195 19.2584 229.969 19.5195C229.458 20.1281 228.782 20.4519 227.925 20.469C226.501 20.469 225.759 19.6412 225.74 17.9492V6.87178H221.984L221.936 18.6163C221.936 20.2134 222.423 21.3747 223.411 22.1343C224.172 22.7819 225.17 23.0837 226.404 23.0837L226.406 23.0862ZM245.552 6.72814C244.905 6.72814 244.287 6.87178 243.698 7.15663C243.128 7.44147 242.624 7.86022 242.225 8.3934V6.87178H238.47V29.4575H242.225V22.088C243.08 22.7526 243.982 23.0862 244.934 23.0862C246.798 23.0204 248.356 22.2584 249.592 20.7563C250.884 19.1762 251.539 17.1239 251.539 14.5724C251.539 12.4811 251.018 10.6771 249.972 9.15299C248.83 7.53642 247.358 6.72814 245.552 6.72814ZM243.841 8.5833C245.075 8.5833 245.998 9.20169 246.645 10.4385C247.178 11.4634 247.453 12.8536 247.453 14.6211C247.453 16.7514 247.319 18.3314 247.073 19.3759C246.711 21.0314 245.998 21.8494 244.932 21.8494C243.603 21.8494 242.7 21.175 242.225 19.8043V9.43784C242.53 8.86815 243.08 8.5833 243.841 8.5833Z" fill="#868FAC"/>
</svg>
