<?xml version="1.0" encoding="UTF-8" standalone="no"?><svg width="92" height="26" viewBox="0 0 92 26" fill="none" xmlns="http://www.w3.org/2000/svg">
<path fill-rule="evenodd" clip-rule="evenodd" d="M48.9529 25.2688H61.5771C63.4634 25.2688 65.0114 24.4898 66.2688 22.9311C67.478 21.4219 68.107 19.6207 68.107 17.5765C68.107 13.438 62.835 10.5167 60.8026 10.5167H53.8861C53.3541 10.5167 52.9179 10.2732 52.5801 9.88412C52.2412 9.44558 52.048 8.95902 52.048 8.37446C52.048 7.69288 52.2412 7.10881 52.5801 6.62176C52.9671 6.1352 53.4504 5.84317 54.0312 5.84317H66.9942V0.633094H53.7888C51.4185 0.633094 49.5799 1.36367 48.2738 2.77534C47.1138 4.08998 46.5325 5.84268 46.5325 7.93641C46.5325 9.98114 47.1138 11.7828 48.2738 13.2425C49.5799 14.8492 51.1284 15.6778 53.0148 15.6778H60.9963C61.4792 15.6778 61.8667 15.8238 62.1563 16.2123C62.4952 16.6019 62.6402 17.0889 62.6402 17.625C62.6402 18.2581 62.3983 18.8421 62.0113 19.3292C61.5761 19.7672 61.0922 20.0108 60.4642 20.0108H47.6945L47.5013 19.6697L42.7127 4.18749L42.4707 3.70044C41.3097 1.31467 39.3752 0.14654 36.7148 0.14654C35.2637 0.14654 33.9576 0.487078 32.7966 1.21766C31.5874 1.94774 30.8134 3.01886 30.3782 4.38251L23.9446 25.2198L29.7974 25.2693L35.6984 6.71977C35.8434 6.13521 36.1823 5.84317 36.6174 5.84317C36.8594 5.84317 37.0526 5.94019 37.1977 6.0867C37.3428 6.28122 37.4397 6.47624 37.4878 6.71977L43.437 25.2693L48.9529 25.2688ZM5.41953 8.22844V25.2198H0.00195312V6.37824C0.00195312 3.94396 0.582707 2.23977 1.8401 1.21766C2.80737 0.487078 4.25852 0.0975342 6.28992 0.0975342C7.93433 0.0975342 9.33728 0.584589 10.5947 1.50969C11.8521 2.43479 12.6743 3.70044 13.11 5.25861L16.6407 17.771L17.2215 19.4752C17.2697 19.8157 17.4634 20.0593 17.6567 20.2533C17.8986 20.4488 18.14 20.5463 18.4307 20.4488C18.9146 20.4003 19.1565 20.1078 19.1565 19.6697V0.682096H24.7191V19.4262C24.7191 21.5199 24.2357 23.0786 23.2198 24.1982C22.2525 25.3179 20.8014 25.9024 18.8664 25.9024C17.1733 25.9024 15.7703 25.5614 14.658 24.9773C13.3037 24.2957 12.4328 23.2246 12.0458 21.812L7.98301 7.54687L7.69288 6.62176C7.59601 6.28122 7.40275 6.0377 7.16081 5.79417C6.91887 5.59915 6.62874 5.55064 6.33861 5.59915C6.04848 5.64815 5.85522 5.79417 5.66147 6.08621C5.50244 6.35034 5.41873 6.65345 5.41953 6.9623V8.22844ZM92.002 25.2688L85.714 4.18749L85.472 3.70044C84.311 1.31467 82.3765 0.14654 79.7161 0.14654C78.265 0.14654 76.9589 0.487078 75.7984 1.21766C74.5882 1.94774 73.8152 3.01886 73.379 4.38251L66.946 25.2198L72.7987 25.2693L78.6997 6.71977C78.8448 6.13521 79.1836 5.84317 79.6188 5.84317C79.8607 5.84317 80.054 5.94019 80.199 6.0867C80.3451 6.28122 80.441 6.47624 80.4901 6.71977L86.4393 25.2693L92.002 25.2688Z" fill="#868FAC"/>
</svg>
