<?xml version="1.0" encoding="UTF-8" standalone="no"?><svg width="56" height="30" viewBox="0 0 56 30" fill="none" xmlns="http://www.w3.org/2000/svg">
<path d="M0.461426 0.808983V15.1676V29.5247H3.26305H6.06467L6.06902 20.652C6.07479 10.719 6.06546 11.3043 6.21231 12.2831L6.28756 12.7882L8.55956 21.1555L10.833 29.5244H13.9893H17.1469V15.1673V0.808716H14.3352H11.5234V9.27612C11.5234 16.2934 11.5185 17.742 11.4959 17.742C11.4762 17.742 11.4412 17.5842 11.3714 17.1806L11.2736 16.6204L9.03526 8.71463L6.79793 0.808857H3.62873L0.461426 0.808983ZM19.3708 0.808983V15.1676V29.5261L24.4951 29.5204C29.1091 29.5144 29.6477 29.5091 29.9074 29.4784C31.0454 29.3437 31.8205 29.1362 32.6064 28.7534C34.3719 27.8932 35.495 26.2941 35.9652 23.9706C36.3378 22.1293 36.328 19.7536 35.9406 18.1951C35.5873 16.7738 34.9325 15.7827 33.9088 15.117C33.6846 14.9712 33.2129 14.7443 32.9262 14.6438C32.7008 14.5648 32.2309 14.4391 32.0709 14.4151C32.0021 14.4048 31.9783 14.391 31.9783 14.3645C31.9783 14.338 32.0367 14.307 32.204 14.2429C34.0659 13.5293 35.0799 12.1441 35.3964 9.88415C35.5392 8.8644 35.5721 7.22523 35.4688 6.22867C35.2613 4.23526 34.5708 2.84771 33.3564 1.98437C32.3909 1.2976 31.0928 0.922316 29.3613 0.831033C29.1094 0.817763 27.1707 0.810857 24.1646 0.810773L19.3708 0.808983ZM45.8926 0.808983C42.8862 0.808982 41.5975 0.816881 41.5975 0.832137C41.5975 0.844124 40.4303 7.29568 39.0027 15.1707C37.5752 23.0457 36.4066 29.4974 36.4066 29.5078C36.4066 29.5185 37.761 29.5266 39.6409 29.5266C41.4196 29.5266 42.8752 29.521 42.8752 29.515C42.8752 29.5091 43.0239 28.1067 43.2052 26.3993C43.3864 24.692 43.5337 23.2792 43.5337 23.259C43.5337 23.2242 43.6434 23.2228 45.8013 23.2228C47.5961 23.2228 48.0691 23.2285 48.0762 23.2489C48.0811 23.2631 48.2178 24.6785 48.3801 26.395L48.6753 29.515L52.0674 29.5208C53.9335 29.5237 55.4609 29.52 55.4609 29.5135C55.4609 29.4981 50.2117 0.917856 50.1977 0.857099L50.1876 0.809343L45.8926 0.808983ZM45.9027 5.1562C45.9349 5.1562 45.9404 5.19055 45.9534 5.48036C45.9624 5.68363 46.2434 8.21329 46.7059 12.2529C47.1119 15.7991 47.4389 18.7074 47.4338 18.7159C47.4194 18.7397 44.2139 18.7354 44.2139 18.7115C44.2139 18.7005 44.5748 15.7967 45.0156 12.2587C45.4564 8.72076 45.8234 5.73702 45.8303 5.62936C45.8585 5.1924 45.8641 5.1562 45.9027 5.1562ZM26.0449 5.69164H27.0941C27.6721 5.69164 28.2351 5.70154 28.3502 5.71335C28.7771 5.75716 29.1054 5.8939 29.3574 6.13302C29.6195 6.3816 29.7802 6.67528 29.8972 7.12143C30.0319 7.63493 30.0714 8.12339 30.0564 9.07653C30.0447 9.81969 30.0277 10.0201 29.9479 10.4195C29.7422 11.4478 29.2383 11.9814 28.3314 12.1285C28.1744 12.154 27.9327 12.1603 27.0913 12.1604H26.045V8.92603L26.0449 5.69164ZM26.0449 16.8331L27.2446 16.8418C28.3598 16.8496 28.4583 16.8534 28.6309 16.8924C29.5904 17.1093 30.0971 17.8407 30.2763 19.2672C30.3728 20.0351 30.3724 21.6792 30.2763 22.5218C30.1124 23.9592 29.6141 24.5132 28.3892 24.6216C28.2611 24.633 27.6819 24.6433 27.1013 24.6433H26.0449V20.7375L26.0449 16.8331Z" fill="#868FAC"/>
</svg>
