<?xml version="1.0" encoding="UTF-8" standalone="no"?><svg xmlns="http://www.w3.org/2000/svg" width="468.42" height="100" viewBox="0 0 468.42 100"><title>microsoft</title><path d="M468.37,45.22V37H458.13V24.2l-.36.09-9.61,2.94-.18.05V37H432.8V31.58c0-2.54.55-4.44,1.68-5.71a5.86,5.86,0,0,1,4.67-1.9,11.36,11.36,0,0,1,4.44,1l.36.18v-8.7l-.18-.05a17.21,17.21,0,0,0-5.66-.77A16.37,16.37,0,0,0,430,17.58a13.82,13.82,0,0,0-5.53,5.48,16.17,16.17,0,0,0-2,8V37h-7v8.25h7.11V80h10.24V45.22H448V67.29C448,76.35,452.3,81,460.73,81a20.58,20.58,0,0,0,4.35-.5,11,11,0,0,0,3.17-1l.14-.09V71.09l-.41.27a7.38,7.38,0,0,1-2,.91,7.58,7.58,0,0,1-2,.36,5.5,5.5,0,0,1-4.35-1.58c-.9-1-1.4-2.9-1.4-5.53V45.22ZM392.66,72.63A10.77,10.77,0,0,1,384,69q-3.12-3.66-3.13-10.33c0-4.53,1.05-8.11,3.13-10.6a10.77,10.77,0,0,1,8.61-3.72,10.46,10.46,0,0,1,8.39,3.5c2,2.35,3.08,5.89,3.08,10.51s-.95,8.25-2.9,10.65-4.71,3.62-8.47,3.62m.4-36.63c-7.07,0-12.68,2.08-16.72,6.16s-6,9.74-6,16.85c0,6.71,2,12.15,5.89,16.09S385.5,81,392.07,81c6.84,0,12.37-2.08,16.4-6.25s6-9.74,6-16.67-1.9-12.28-5.66-16.18-9-5.93-15.73-5.93m-39.24,0c-4.8,0-8.79,1.22-11.82,3.67a11.65,11.65,0,0,0-4.62,9.51,13.25,13.25,0,0,0,1,5.35,10.75,10.75,0,0,0,3,4,27.34,27.34,0,0,0,6.27,3.5,46.53,46.53,0,0,1,5.16,2.41,7,7,0,0,1,2.27,1.85,4.3,4.3,0,0,1,.63,2.45c0,2.9-2.17,4.31-6.61,4.31a18.31,18.31,0,0,1-5.58-1,20.51,20.51,0,0,1-5.71-2.9l-.4-.31v9.83l.13.09A25.19,25.19,0,0,0,343,80.34a28.35,28.35,0,0,0,5.8.67c5.21,0,9.42-1.22,12.5-3.67A11.91,11.91,0,0,0,366,67.6a11.35,11.35,0,0,0-2.49-7.38c-1.63-2-4.53-3.81-8.52-5.44-3.17-1.27-5.21-2.36-6.07-3.17a4.36,4.36,0,0,1-1.22-3.31,3.68,3.68,0,0,1,1.54-3.08A7,7,0,0,1,353.56,44a17.07,17.07,0,0,1,5.16.81,17.58,17.58,0,0,1,4.53,2.09l.41.27V37.83l-.18-.09a21.48,21.48,0,0,0-4.58-1.27,31,31,0,0,0-5-.49M310.78,72.63a10.84,10.84,0,0,1-8.7-3.67Q299,65.3,299,58.63c0-4.53,1-8.11,3.12-10.6a10.63,10.63,0,0,1,8.61-3.72,10.47,10.47,0,0,1,8.39,3.54c2,2.35,3.08,5.89,3.08,10.51s-1,8.25-2.9,10.65-4.76,3.62-8.48,3.62M311.24,36c-7.07,0-12.69,2.08-16.72,6.16s-6,9.74-6,16.85c0,6.71,2,12.15,5.89,16.09s9.21,5.9,15.78,5.9c6.85,0,12.37-2.08,16.41-6.25s6-9.74,6-16.67-1.9-12.28-5.66-16.18-9-5.9-15.7-5.9M273,44.45V37H262.9V80H273V58a15.25,15.25,0,0,1,2.54-9.11A7.63,7.63,0,0,1,282,45.45a10.84,10.84,0,0,1,3,.45,8.72,8.72,0,0,1,2.35,1l.41.32V36.93l-.18-.09a10.35,10.35,0,0,0-3.94-.59,10.46,10.46,0,0,0-6.75,2.4A13.66,13.66,0,0,0,273,44.4ZM244.77,36a25.13,25.13,0,0,0-12.28,2.94,19.71,19.71,0,0,0-8.11,8.34,26.31,26.31,0,0,0-2.77,12.32,22.46,22.46,0,0,0,2.72,11.06,19.24,19.24,0,0,0,7.57,7.66A22.82,22.82,0,0,0,243,81a24.08,24.08,0,0,0,12.19-2.85l.14-.1V68.78l-.41.32A19.55,19.55,0,0,1,250,71.68a14.62,14.62,0,0,1-4.85.95c-3.94,0-7.16-1.22-9.47-3.67s-3.48-5.89-3.48-10.19,1.22-7.89,3.62-10.47a12.35,12.35,0,0,1,9.47-3.9,16.24,16.24,0,0,1,9.61,3.36l.4.31V38.24l-.13-.09a17.06,17.06,0,0,0-4.67-1.58,27.61,27.61,0,0,0-5.66-.59m-30.13,1H204.53V80h10.11Zm-5-18.27a6,6,0,0,0-4.31,1.68,5.63,5.63,0,0,0-1.81,4.21,5.44,5.44,0,0,0,1.77,4.13,6.16,6.16,0,0,0,4.3,1.63A6.28,6.28,0,0,0,214,28.73a5.46,5.46,0,0,0,1.81-4.13,5.61,5.61,0,0,0-1.76-4.17,5.94,5.94,0,0,0-4.35-1.72M184.5,33.85V80h10.33V20H180.56L162.44,64.52,144.86,20H130V79.9h9.69V33.85H140L158.59,80h7.29l18.31-46.12Z" fill="#777"/><path d="M47.53,47.53H0V0H47.53Z" fill="#f35325"/><path d="M100,47.53H52.47V0H100Z" fill="#81bc06"/><path d="M47.53,100H0V52.47H47.53Z" fill="#05a6f0"/><path d="M100,100H52.47V52.47H100Z" fill="#ffba08"/></svg>