<?xml version="1.0" encoding="UTF-8"?>
<svg id="Layer_1" xmlns="http://www.w3.org/2000/svg" xmlns:xlink="http://www.w3.org/1999/xlink" viewBox="0 0 426 405">
  <defs>
    <clipPath id="clippath">
      <rect x="71.9" y="70.86" width="32.52" height="32.52" fill="none"/>
    </clipPath>
    <filter id="outer-glow-7" filterUnits="userSpaceOnUse">
      <feOffset dx="0" dy="0"/>
      <feGaussianBlur result="blur" stdDeviation="2.51"/>
      <feFlood flood-color="#ada7ff" flood-opacity=".75"/>
      <feComposite in2="blur" operator="in"/>
      <feComposite in="SourceGraphic"/>
    </filter>
    <filter id="outer-glow-8" filterUnits="userSpaceOnUse">
      <feOffset dx="0" dy="0"/>
      <feGaussianBlur result="blur-2" stdDeviation="2.51"/>
      <feFlood flood-color="#ada7ff" flood-opacity=".75"/>
      <feComposite in2="blur-2" operator="in"/>
      <feComposite in="SourceGraphic"/>
    </filter>
    <filter id="outer-glow-9" filterUnits="userSpaceOnUse">
      <feOffset dx="0" dy="0"/>
      <feGaussianBlur result="blur-3" stdDeviation="2.51"/>
      <feFlood flood-color="#ada7ff" flood-opacity=".75"/>
      <feComposite in2="blur-3" operator="in"/>
      <feComposite in="SourceGraphic"/>
    </filter>
    <filter id="outer-glow-10" filterUnits="userSpaceOnUse">
      <feOffset dx="0" dy="0"/>
      <feGaussianBlur result="blur-4" stdDeviation="2.51"/>
      <feFlood flood-color="#ada7ff" flood-opacity=".75"/>
      <feComposite in2="blur-4" operator="in"/>
      <feComposite in="SourceGraphic"/>
    </filter>
    <filter id="outer-glow-11" filterUnits="userSpaceOnUse">
      <feOffset dx="0" dy="0"/>
      <feGaussianBlur result="blur-5" stdDeviation="2.51"/>
      <feFlood flood-color="#ada7ff" flood-opacity=".75"/>
      <feComposite in2="blur-5" operator="in"/>
      <feComposite in="SourceGraphic"/>
    </filter>
    <filter id="outer-glow-12" filterUnits="userSpaceOnUse">
      <feOffset dx="0" dy="0"/>
      <feGaussianBlur result="blur-6" stdDeviation="2.51"/>
      <feFlood flood-color="#ada7ff" flood-opacity=".75"/>
      <feComposite in2="blur-6" operator="in"/>
      <feComposite in="SourceGraphic"/>
    </filter>
    <filter id="outer-glow-13" filterUnits="userSpaceOnUse">
      <feOffset dx="0" dy="0"/>
      <feGaussianBlur result="blur-7" stdDeviation="2.51"/>
      <feFlood flood-color="#ada7ff" flood-opacity=".75"/>
      <feComposite in2="blur-7" operator="in"/>
      <feComposite in="SourceGraphic"/>
    </filter>
    <filter id="outer-glow-14" filterUnits="userSpaceOnUse">
      <feOffset dx="0" dy="0"/>
      <feGaussianBlur result="blur-8" stdDeviation="2.51"/>
      <feFlood flood-color="#6c61ff" flood-opacity=".75"/>
      <feComposite in2="blur-8" operator="in"/>
      <feComposite in="SourceGraphic"/>
    </filter>
    <filter id="outer-glow-15" filterUnits="userSpaceOnUse">
      <feOffset dx="0" dy="0"/>
      <feGaussianBlur result="blur-9" stdDeviation="2.51"/>
      <feFlood flood-color="#6c61ff" flood-opacity=".75"/>
      <feComposite in2="blur-9" operator="in"/>
      <feComposite in="SourceGraphic"/>
    </filter>
    <filter id="outer-glow-16" filterUnits="userSpaceOnUse">
      <feOffset dx="0" dy="0"/>
      <feGaussianBlur result="blur-10" stdDeviation="2.51"/>
      <feFlood flood-color="#6c61ff" flood-opacity=".75"/>
      <feComposite in2="blur-10" operator="in"/>
      <feComposite in="SourceGraphic"/>
    </filter>
  </defs>
  <rect width="426" height="405" rx="25.62" ry="25.62" fill="#e5e6ed"/>
  <rect width="426" height="405" rx="25.62" ry="25.62" fill="#e5e6ed"/>
  <g>
    <path d="M140.8,75.42l5.57,15.74,5.55-15.74h5.87v21.7h-4.49v-5.93l.45-10.24-5.86,16.17h-3.07l-5.84-16.16.45,10.23v5.93h-4.47v-21.7h5.84Z" fill="#060738"/>
    <path d="M168.48,97.42c-2.37,0-4.29-.72-5.78-2.18s-2.23-3.38-2.23-5.8v-.42c0-1.62.31-3.07.94-4.35.63-1.28,1.51-2.26,2.66-2.95,1.15-.69,2.46-1.04,3.93-1.04,2.21,0,3.94.7,5.21,2.09,1.27,1.39,1.9,3.36,1.9,5.92v1.76h-10.27c.14,1.05.56,1.9,1.26,2.53.7.64,1.59.95,2.66.95,1.66,0,2.96-.6,3.89-1.8l2.12,2.37c-.65.91-1.52,1.63-2.62,2.14-1.1.51-2.33.77-3.67.77ZM167.99,84.17c-.85,0-1.55.29-2.08.87-.53.58-.87,1.41-1.02,2.49h5.99v-.34c-.02-.96-.28-1.7-.78-2.22-.5-.52-1.2-.79-2.12-.79Z" fill="#060738"/>
    <path d="M181.34,81l.13,1.8c1.14-1.4,2.69-2.1,4.64-2.1,2.08,0,3.5.82,4.28,2.46,1.13-1.64,2.75-2.46,4.84-2.46,1.75,0,3.05.51,3.91,1.53s1.28,2.55,1.28,4.6v10.3h-4.32v-10.29c0-.91-.18-1.58-.54-2-.36-.42-.99-.63-1.89-.63-1.29,0-2.19.62-2.68,1.85v11.08s-4.29,0-4.29,0v-10.27c0-.93-.18-1.61-.55-2.03-.37-.42-.99-.63-1.88-.63-1.22,0-2.11.51-2.65,1.52v11.4h-4.31v-16.13h4.04Z" fill="#060738"/>
    <path d="M202.55,88.91c0-1.6.31-3.03.92-4.28s1.5-2.22,2.66-2.91c1.16-.69,2.5-1.03,4.03-1.03,2.18,0,3.95.67,5.33,2,1.38,1.33,2.14,3.14,2.3,5.43l.03,1.1c0,2.47-.69,4.46-2.07,5.96-1.38,1.5-3.23,2.24-5.56,2.24s-4.18-.75-5.57-2.24c-1.39-1.49-2.08-3.52-2.08-6.08v-.19ZM206.86,89.22c0,1.53.29,2.7.86,3.52s1.4,1.22,2.47,1.22,1.86-.4,2.44-1.2c.59-.8.88-2.08.88-3.84,0-1.5-.29-2.67-.88-3.49-.59-.83-1.41-1.24-2.47-1.24s-1.87.41-2.44,1.23-.86,2.09-.86,3.81Z" fill="#060738"/>
    <path d="M229.14,85.04c-.59-.08-1.1-.12-1.55-.12-1.63,0-2.7.55-3.2,1.65v10.55h-4.31v-16.13h4.07l.12,1.92c.87-1.48,2.06-2.22,3.59-2.22.48,0,.92.07,1.34.19l-.06,4.14Z" fill="#060738"/>
    <path d="M237.59,91.03l2.98-10.03h4.62l-6.48,18.63-.36.85c-.96,2.11-2.55,3.16-4.77,3.16-.63,0-1.26-.09-1.91-.28v-3.26h.66c.81.01,1.42-.11,1.83-.36.4-.25.72-.66.95-1.24l.51-1.33-5.65-16.17h4.64l3,10.03Z" fill="#060738"/>
    <path d="M270.59,75.42v14.29c0,2.38-.74,4.25-2.23,5.63-1.49,1.38-3.52,2.07-6.09,2.07s-4.55-.67-6.04-2.01c-1.49-1.34-2.25-3.19-2.28-5.53v-14.46h4.47v14.32c0,1.42.34,2.46,1.02,3.11.68.65,1.62.98,2.83.98,2.51,0,3.79-1.32,3.83-3.96v-14.44h4.49Z" fill="#060738"/>
    <path d="M282.19,92.67c0-.53-.26-.94-.78-1.24-.52-.3-1.36-.57-2.51-.81-3.84-.81-5.75-2.43-5.75-4.89,0-1.43.59-2.63,1.78-3.58s2.74-1.44,4.66-1.44c2.05,0,3.68.48,4.91,1.45s1.84,2.22,1.84,3.76h-4.31c0-.62-.2-1.12-.6-1.53s-1.02-.6-1.86-.6c-.72,0-1.29.16-1.68.49s-.6.75-.6,1.25c0,.48.23.86.68,1.16.45.29,1.21.55,2.29.76s1.98.45,2.71.72c2.28.83,3.41,2.28,3.41,4.34,0,1.47-.63,2.66-1.89,3.57-1.26.91-2.89,1.36-4.89,1.36-1.35,0-2.55-.24-3.6-.72-1.05-.48-1.87-1.14-2.47-1.98-.6-.84-.89-1.75-.89-2.72h4.08c.04.77.32,1.35.85,1.76.53.41,1.23.61,2.12.61.82,0,1.45-.16,1.87-.47.42-.31.63-.72.63-1.23Z" fill="#060738"/>
    <path d="M298.02,97.13c-.2-.39-.34-.87-.43-1.45-1.04,1.16-2.4,1.74-4.07,1.74-1.58,0-2.89-.46-3.93-1.37s-1.56-2.07-1.56-3.46c0-1.71.63-3.02,1.9-3.94,1.27-.91,3.1-1.38,5.49-1.39h1.98v-.92c0-.75-.19-1.34-.57-1.79-.38-.45-.99-.67-1.81-.67-.73,0-1.29.17-1.71.52s-.62.83-.62,1.43h-4.31c0-.93.29-1.8.87-2.59.58-.79,1.39-1.42,2.44-1.87,1.05-.45,2.24-.68,3.55-.68,1.99,0,3.56.5,4.73,1.5,1.17,1,1.75,2.4,1.75,4.21v6.99c0,1.53.22,2.69.64,3.47v.25h-4.35ZM294.46,94.13c.64,0,1.22-.14,1.76-.42.54-.28.93-.66,1.19-1.14v-2.77h-1.61c-2.16,0-3.3.75-3.44,2.24v.25c-.01.54.17.98.55,1.33s.89.52,1.55.52Z" fill="#060738"/>
    <path d="M303.84,88.94c0-2.47.59-4.47,1.77-5.98,1.18-1.51,2.76-2.27,4.76-2.27,1.77,0,3.14.61,4.13,1.82l.18-1.52h3.91v15.59c0,1.41-.32,2.64-.96,3.68-.64,1.04-1.54,1.84-2.71,2.38-1.16.55-2.52.82-4.08.82-1.18,0-2.33-.24-3.46-.71-1.12-.47-1.97-1.08-2.55-1.83l1.91-2.62c1.07,1.2,2.38,1.8,3.91,1.8,1.14,0,2.03-.31,2.67-.92.64-.61.95-1.48.95-2.6v-.87c-.99,1.12-2.3,1.68-3.92,1.68-1.94,0-3.5-.76-4.7-2.27-1.2-1.52-1.8-3.53-1.8-6.03v-.18ZM308.15,89.26c0,1.46.29,2.61.88,3.44.59.83,1.39,1.25,2.42,1.25,1.31,0,2.25-.49,2.82-1.48v-6.79c-.58-.99-1.51-1.48-2.79-1.48-1.03,0-1.85.42-2.44,1.27-.59.85-.89,2.11-.89,3.79Z" fill="#060738"/>
    <path d="M328.86,97.42c-2.37,0-4.29-.72-5.78-2.18s-2.23-3.38-2.23-5.8v-.42c0-1.62.31-3.07.94-4.35.63-1.28,1.51-2.26,2.66-2.95,1.15-.69,2.46-1.04,3.93-1.04,2.21,0,3.94.7,5.21,2.09,1.27,1.39,1.9,3.36,1.9,5.92v1.76h-10.27c.14,1.05.56,1.9,1.26,2.53.7.64,1.59.95,2.66.95,1.66,0,2.96-.6,3.89-1.8l2.12,2.37c-.65.91-1.52,1.63-2.62,2.14-1.1.51-2.33.77-3.67.77ZM328.37,84.17c-.85,0-1.55.29-2.08.87-.53.58-.87,1.41-1.02,2.49h5.99v-.34c-.02-.96-.28-1.7-.78-2.22-.5-.52-1.2-.79-2.12-.79Z" fill="#060738"/>
  </g>
  <g>
    <path d="M66.15,159.01h6.77v1.54h-8.66v-14.29h1.89v12.75Z" fill="#060738"/>
    <path d="M81.23,160.55c-.1-.21-.19-.58-.25-1.12-.84.88-1.85,1.31-3.02,1.31-1.05,0-1.91-.3-2.58-.89-.67-.59-1.01-1.34-1.01-2.25,0-1.11.42-1.96,1.26-2.58.84-.61,2.02-.92,3.55-.92h1.77v-.83c0-.63-.19-1.14-.57-1.52-.38-.38-.94-.56-1.68-.56-.65,0-1.19.16-1.63.49-.44.33-.66.72-.66,1.19h-1.83c0-.53.19-1.04.56-1.54s.89-.88,1.53-1.17,1.35-.43,2.12-.43c1.22,0,2.18.31,2.88.92.69.61,1.05,1.45,1.08,2.53v4.89c0,.97.12,1.75.37,2.33v.16h-1.9ZM78.21,159.17c.57,0,1.11-.15,1.62-.44.51-.29.88-.68,1.11-1.15v-2.18h-1.42c-2.22,0-3.34.65-3.34,1.95,0,.57.19,1.01.57,1.33.38.32.87.48,1.46.48Z" fill="#060738"/>
    <path d="M87.78,147.37v2.57h1.98v1.4h-1.98v6.59c0,.43.09.75.27.96s.48.32.9.32c.21,0,.5-.04.86-.12v1.46c-.48.13-.94.2-1.39.2-.81,0-1.42-.25-1.83-.74-.41-.49-.62-1.19-.62-2.09v-6.58h-1.93v-1.4h1.93v-2.57h1.81Z" fill="#060738"/>
    <path d="M95.67,160.75c-1.44,0-2.61-.47-3.51-1.42s-1.35-2.21-1.35-3.79v-.33c0-1.05.2-1.99.6-2.82s.96-1.48,1.69-1.94c.72-.47,1.51-.7,2.35-.7,1.38,0,2.45.46,3.22,1.36s1.15,2.21,1.15,3.9v.76h-7.19c.03,1.05.33,1.89.92,2.54.58.64,1.33.97,2.23.97.64,0,1.18-.13,1.63-.39.44-.26.83-.61,1.17-1.04l1.11.86c-.89,1.37-2.22,2.05-4,2.05ZM95.44,151.23c-.73,0-1.35.27-1.84.8s-.8,1.28-.92,2.24h5.32v-.14c-.05-.92-.3-1.64-.75-2.14-.44-.51-1.05-.76-1.8-.76Z" fill="#060738"/>
    <path d="M107.76,157.74c0-.49-.18-.87-.55-1.14-.37-.27-1.01-.5-1.93-.7s-1.65-.43-2.19-.71c-.54-.27-.94-.6-1.2-.98-.26-.38-.39-.83-.39-1.35,0-.87.37-1.61,1.1-2.21.74-.6,1.68-.9,2.82-.9,1.2,0,2.18.31,2.93.93.75.62,1.12,1.42,1.12,2.38h-1.83c0-.5-.21-.93-.63-1.29s-.95-.54-1.59-.54-1.18.14-1.55.43c-.37.29-.56.66-.56,1.13,0,.44.17.77.52.99.35.22.97.44,1.88.64.91.2,1.64.44,2.2.73s.98.62,1.25,1.02.41.88.41,1.45c0,.95-.38,1.71-1.14,2.28-.76.57-1.74.86-2.95.86-.85,0-1.6-.15-2.26-.45-.65-.3-1.17-.72-1.54-1.26-.37-.54-.55-1.12-.55-1.75h1.82c.03.61.28,1.09.73,1.45.45.36,1.05.54,1.8.54.69,0,1.24-.14,1.65-.42.42-.28.62-.65.62-1.11Z" fill="#060738"/>
    <path d="M114.31,147.37v2.57h1.98v1.4h-1.98v6.59c0,.43.09.75.27.96s.48.32.9.32c.21,0,.5-.04.86-.12v1.46c-.48.13-.94.2-1.39.2-.81,0-1.42-.25-1.83-.74-.41-.49-.62-1.19-.62-2.09v-6.58h-1.93v-1.4h1.93v-2.57h1.81Z" fill="#060738"/>
    <path d="M126.49,158.09l2.63-8.15h1.85l-3.81,10.62h-1.38l-3.85-10.62h1.85l2.7,8.15Z" fill="#060738"/>
    <path d="M136.47,160.75c-1.44,0-2.61-.47-3.51-1.42s-1.35-2.21-1.35-3.79v-.33c0-1.05.2-1.99.6-2.82s.96-1.48,1.69-1.94c.72-.47,1.51-.7,2.35-.7,1.38,0,2.45.46,3.22,1.36s1.15,2.21,1.15,3.9v.76h-7.19c.03,1.05.33,1.89.92,2.54.58.64,1.33.97,2.23.97.64,0,1.18-.13,1.63-.39.44-.26.83-.61,1.17-1.04l1.11.86c-.89,1.37-2.22,2.05-4,2.05ZM136.24,151.23c-.73,0-1.35.27-1.84.8s-.8,1.28-.92,2.24h5.32v-.14c-.05-.92-.3-1.64-.75-2.14-.44-.51-1.05-.76-1.8-.76Z" fill="#060738"/>
    <path d="M147.7,151.57c-.27-.05-.57-.07-.89-.07-1.19,0-2,.51-2.42,1.52v7.54h-1.81v-10.62h1.77l.03,1.23c.6-.95,1.44-1.42,2.53-1.42.35,0,.62.05.8.14v1.69Z" fill="#060738"/>
    <path d="M155.31,157.74c0-.49-.18-.87-.55-1.14-.37-.27-1.01-.5-1.93-.7s-1.65-.43-2.19-.71c-.54-.27-.94-.6-1.2-.98-.26-.38-.39-.83-.39-1.35,0-.87.37-1.61,1.1-2.21.74-.6,1.68-.9,2.82-.9,1.2,0,2.18.31,2.93.93.75.62,1.12,1.42,1.12,2.38h-1.83c0-.5-.21-.93-.63-1.29s-.95-.54-1.59-.54-1.18.14-1.55.43c-.37.29-.56.66-.56,1.13,0,.44.17.77.52.99.35.22.97.44,1.88.64.91.2,1.64.44,2.2.73s.98.62,1.25,1.02.41.88.41,1.45c0,.95-.38,1.71-1.14,2.28-.76.57-1.74.86-2.95.86-.85,0-1.6-.15-2.26-.45-.65-.3-1.17-.72-1.54-1.26-.37-.54-.55-1.12-.55-1.75h1.82c.03.61.28,1.09.73,1.45.45.36,1.05.54,1.8.54.69,0,1.24-.14,1.65-.42.42-.28.62-.65.62-1.11Z" fill="#060738"/>
    <path d="M159.12,147.12c0-.29.09-.54.27-.75s.45-.3.8-.3.62.1.8.3c.18.2.27.45.27.75s-.09.54-.27.74c-.18.2-.45.29-.8.29s-.62-.1-.8-.29-.27-.44-.27-.74ZM161.08,160.55h-1.82v-10.62h1.82v10.62Z" fill="#060738"/>
    <path d="M163.15,155.15c0-1.04.21-1.98.61-2.81.41-.83.98-1.47,1.71-1.92.73-.45,1.56-.68,2.5-.68,1.45,0,2.62.5,3.51,1.5.89,1,1.34,2.33,1.34,3.99v.13c0,1.03-.2,1.96-.59,2.78-.4.82-.96,1.46-1.7,1.92-.74.46-1.58.69-2.54.69-1.44,0-2.61-.5-3.5-1.5-.89-1-1.34-2.33-1.34-3.97v-.13ZM164.98,155.36c0,1.18.27,2.12.82,2.84s1.28,1.07,2.19,1.07,1.65-.36,2.2-1.08.81-1.74.81-3.04c0-1.16-.28-2.11-.83-2.83-.55-.72-1.29-1.08-2.2-1.08s-1.62.36-2.17,1.07c-.55.71-.82,1.73-.82,3.06Z" fill="#060738"/>
    <path d="M176.54,149.94l.06,1.33c.81-1.02,1.87-1.53,3.18-1.53,2.24,0,3.38,1.27,3.4,3.8v7.02h-1.82v-7.03c0-.76-.18-1.33-.53-1.7-.34-.37-.88-.55-1.6-.55-.59,0-1.11.16-1.55.47-.44.31-.79.73-1.04,1.24v7.56h-1.81v-10.62h1.72Z" fill="#060738"/>
    <path d="M190.01,155.15c0-1.04.21-1.98.61-2.81.41-.83.98-1.47,1.71-1.92.73-.45,1.56-.68,2.5-.68,1.45,0,2.62.5,3.51,1.5.89,1,1.34,2.33,1.34,3.99v.13c0,1.03-.2,1.96-.59,2.78-.4.82-.96,1.46-1.7,1.92-.74.46-1.58.69-2.54.69-1.44,0-2.61-.5-3.5-1.5-.89-1-1.34-2.33-1.34-3.97v-.13ZM191.83,155.36c0,1.18.27,2.12.82,2.84s1.28,1.07,2.19,1.07,1.65-.36,2.2-1.08.81-1.74.81-3.04c0-1.16-.28-2.11-.83-2.83-.55-.72-1.29-1.08-2.2-1.08s-1.62.36-2.17,1.07c-.55.71-.82,1.73-.82,3.06Z" fill="#060738"/>
    <path d="M202.25,160.55v-9.21h-1.68v-1.4h1.68v-1.09c0-1.14.3-2.02.91-2.64.61-.62,1.47-.93,2.58-.93.42,0,.83.05,1.25.17l-.1,1.46c-.31-.06-.63-.09-.98-.09-.59,0-1.04.17-1.36.52-.32.34-.48.84-.48,1.48v1.12h2.27v1.4h-2.27v9.21h-1.82Z" fill="#060738"/>
    <path d="M213.19,160.55v-14.29h4.67c1.55,0,2.72.32,3.5.96.78.64,1.17,1.59,1.17,2.85,0,.67-.19,1.26-.57,1.77s-.9.91-1.55,1.19c.77.22,1.38.63,1.83,1.23.45.6.67,1.33.67,2.16,0,1.28-.42,2.29-1.25,3.02-.83.73-2,1.1-3.52,1.1h-4.96ZM215.07,152.36h2.85c.82,0,1.48-.21,1.98-.62.49-.41.74-.97.74-1.68,0-.79-.23-1.36-.69-1.72-.46-.36-1.15-.54-2.09-.54h-2.79v4.55ZM215.07,153.87v5.14h3.11c.88,0,1.57-.23,2.08-.68.51-.45.76-1.08.76-1.88,0-1.72-.94-2.58-2.81-2.58h-3.14Z" fill="#060738"/>
    <path d="M231.73,159.5c-.71.83-1.74,1.25-3.11,1.25-1.13,0-1.99-.33-2.58-.99-.59-.66-.89-1.63-.9-2.92v-6.91h1.82v6.86c0,1.61.65,2.41,1.96,2.41,1.39,0,2.31-.52,2.77-1.55v-7.72h1.82v10.62h-1.73l-.04-1.05Z" fill="#060738"/>
    <path d="M241.13,151.57c-.27-.05-.57-.07-.89-.07-1.19,0-2,.51-2.42,1.52v7.54h-1.81v-10.62h1.77l.03,1.23c.6-.95,1.44-1.42,2.53-1.42.35,0,.62.05.8.14v1.69Z" fill="#060738"/>
    <path d="M251.58,155.36c0,1.62-.37,2.92-1.11,3.91s-1.74,1.48-3,1.48-2.3-.41-3.04-1.23v5.11h-1.81v-14.7h1.66l.09,1.18c.74-.92,1.77-1.37,3.08-1.37s2.28.48,3.03,1.44,1.11,2.3,1.11,4.01v.17ZM249.76,155.16c0-1.2-.25-2.14-.77-2.84-.51-.69-1.21-1.04-2.1-1.04-1.1,0-1.92.49-2.47,1.46v5.07c.54.97,1.37,1.45,2.49,1.45.87,0,1.56-.34,2.08-1.04s.77-1.72.77-3.08Z" fill="#060738"/>
    <path d="M262.95,154.19c-1.62-.46-2.79-1.04-3.53-1.71-.74-.68-1.1-1.51-1.1-2.51,0-1.12.45-2.06,1.35-2.79.9-.74,2.07-1.1,3.51-1.1.98,0,1.86.19,2.62.57.77.38,1.36.9,1.79,1.57s.63,1.4.63,2.19h-1.89c0-.87-.27-1.55-.82-2.04-.55-.5-1.32-.74-2.33-.74-.93,0-1.65.21-2.17.61-.52.41-.78.98-.78,1.71,0,.58.25,1.08.74,1.48.49.4,1.33.77,2.52,1.11,1.19.33,2.12.7,2.79,1.11s1.17.87,1.49,1.41c.32.54.49,1.17.49,1.89,0,1.16-.45,2.08-1.35,2.78s-2.11,1.04-3.62,1.04c-.98,0-1.9-.19-2.75-.56-.85-.38-1.51-.89-1.97-1.54s-.69-1.4-.69-2.23h1.89c0,.86.32,1.55.96,2.05.64.5,1.49.75,2.56.75.99,0,1.76-.2,2.29-.61.53-.41.79-.96.79-1.66s-.25-1.24-.74-1.62-1.38-.76-2.67-1.13Z" fill="#060738"/>
    <path d="M276.84,159.5c-.71.83-1.74,1.25-3.11,1.25-1.13,0-1.99-.33-2.58-.99-.59-.66-.89-1.63-.9-2.92v-6.91h1.82v6.86c0,1.61.65,2.41,1.96,2.41,1.39,0,2.31-.52,2.77-1.55v-7.72h1.82v10.62h-1.73l-.04-1.05Z" fill="#060738"/>
    <path d="M281.06,147.12c0-.29.09-.54.27-.75s.45-.3.8-.3.62.1.8.3c.18.2.27.45.27.75s-.09.54-.27.74c-.18.2-.45.29-.8.29s-.62-.1-.8-.29-.27-.44-.27-.74ZM283.02,160.55h-1.82v-10.62h1.82v10.62Z" fill="#060738"/>
    <path d="M288.22,147.37v2.57h1.98v1.4h-1.98v6.59c0,.43.09.75.27.96s.48.32.9.32c.21,0,.5-.04.86-.12v1.46c-.48.13-.94.2-1.39.2-.81,0-1.42-.25-1.83-.74-.41-.49-.62-1.19-.62-2.09v-6.58h-1.93v-1.4h1.93v-2.57h1.81Z" fill="#060738"/>
    <path d="M296.11,160.75c-1.44,0-2.61-.47-3.51-1.42s-1.35-2.21-1.35-3.79v-.33c0-1.05.2-1.99.6-2.82s.96-1.48,1.69-1.94c.72-.47,1.51-.7,2.35-.7,1.38,0,2.45.46,3.22,1.36s1.15,2.21,1.15,3.9v.76h-7.19c.03,1.05.33,1.89.92,2.54.58.64,1.33.97,2.23.97.64,0,1.18-.13,1.63-.39.44-.26.83-.61,1.17-1.04l1.11.86c-.89,1.37-2.22,2.05-4,2.05ZM295.89,151.23c-.73,0-1.35.27-1.84.8s-.8,1.28-.92,2.24h5.32v-.14c-.05-.92-.3-1.64-.75-2.14-.44-.51-1.05-.76-1.8-.76Z" fill="#060738"/>
  </g>
  <g>
    <path d="M75.07,267.36c0,1.4-.24,2.62-.71,3.67-.47,1.04-1.14,1.84-2,2.39s-1.87.82-3.02.82-2.12-.28-2.99-.83-1.55-1.34-2.03-2.36c-.48-1.02-.73-2.21-.74-3.56v-1.03c0-1.37.24-2.59.72-3.64.48-1.05,1.15-1.86,2.03-2.42.87-.56,1.87-.84,3-.84s2.15.28,3.03.83c.87.55,1.54,1.35,2.02,2.4.47,1.05.71,2.27.71,3.67v.9ZM73.2,266.44c0-1.69-.34-2.99-1.02-3.9-.68-.91-1.63-1.36-2.86-1.36s-2.13.45-2.81,1.36c-.68.91-1.04,2.16-1.05,3.77v1.05c0,1.64.34,2.93,1.04,3.87.69.94,1.64,1.41,2.85,1.41s2.16-.44,2.83-1.33,1.01-2.16,1.03-3.81v-1.06Z" fill="#060738"/>
    <path d="M79.36,274.04h-1.82v-15.07h1.82v15.07Z" fill="#060738"/>
    <path d="M81.51,268.65c0-1.63.39-2.94,1.16-3.93s1.78-1.49,3.03-1.49,2.23.43,2.95,1.28v-5.53h1.81v15.07h-1.67l-.09-1.14c-.73.89-1.74,1.33-3.03,1.33s-2.23-.5-3.01-1.51c-.78-1.01-1.16-2.32-1.16-3.94v-.14ZM83.33,268.85c0,1.2.25,2.15.75,2.83.5.68,1.18,1.02,2.06,1.02,1.15,0,1.99-.52,2.52-1.55v-4.88c-.54-1-1.38-1.5-2.5-1.5-.89,0-1.58.34-2.08,1.03-.5.69-.75,1.7-.75,3.05Z" fill="#060738"/>
    <path d="M101.36,271.58l2.63-8.15h1.85l-3.81,10.62h-1.38l-3.85-10.62h1.85l2.7,8.15Z" fill="#060738"/>
    <path d="M111.35,274.24c-1.44,0-2.61-.47-3.51-1.42s-1.35-2.21-1.35-3.79v-.33c0-1.05.2-1.99.6-2.82s.96-1.48,1.69-1.94c.72-.47,1.51-.7,2.35-.7,1.38,0,2.45.46,3.22,1.36s1.15,2.21,1.15,3.9v.76h-7.19c.03,1.05.33,1.89.92,2.54.58.64,1.33.97,2.23.97.64,0,1.18-.13,1.63-.39.44-.26.83-.61,1.17-1.04l1.11.86c-.89,1.37-2.22,2.05-4,2.05ZM111.12,264.72c-.73,0-1.35.27-1.84.8s-.8,1.28-.92,2.24h5.32v-.14c-.05-.92-.3-1.64-.75-2.14-.44-.51-1.05-.76-1.8-.76Z" fill="#060738"/>
    <path d="M122.57,265.06c-.27-.05-.57-.07-.89-.07-1.19,0-2,.51-2.42,1.52v7.54h-1.81v-10.62h1.77l.03,1.23c.6-.95,1.44-1.42,2.53-1.42.35,0,.62.05.8.14v1.69Z" fill="#060738"/>
    <path d="M130.19,271.23c0-.49-.18-.87-.55-1.14-.37-.27-1.01-.5-1.93-.7s-1.65-.43-2.19-.71c-.54-.27-.94-.6-1.2-.98-.26-.38-.39-.83-.39-1.35,0-.87.37-1.61,1.1-2.21.74-.6,1.68-.9,2.82-.9,1.2,0,2.18.31,2.93.93.75.62,1.12,1.42,1.12,2.38h-1.83c0-.5-.21-.93-.63-1.29s-.95-.54-1.59-.54-1.18.14-1.55.43c-.37.29-.56.66-.56,1.13,0,.44.17.77.52.99.35.22.97.44,1.88.64.91.2,1.64.44,2.2.73s.98.62,1.25,1.02.41.88.41,1.45c0,.95-.38,1.71-1.14,2.28-.76.57-1.74.86-2.95.86-.85,0-1.6-.15-2.26-.45-.65-.3-1.17-.72-1.54-1.26-.37-.54-.55-1.12-.55-1.75h1.82c.03.61.28,1.09.73,1.45.45.36,1.05.54,1.8.54.69,0,1.24-.14,1.65-.42.42-.28.62-.65.62-1.11Z" fill="#060738"/>
    <path d="M134,260.61c0-.29.09-.54.27-.75s.45-.3.8-.3.62.1.8.3c.18.2.27.45.27.75s-.09.54-.27.74c-.18.2-.45.29-.8.29s-.62-.1-.8-.29-.27-.44-.27-.74ZM135.96,274.04h-1.82v-10.62h1.82v10.62Z" fill="#060738"/>
    <path d="M138.03,268.64c0-1.04.21-1.98.61-2.81.41-.83.98-1.47,1.71-1.92.73-.45,1.56-.68,2.5-.68,1.45,0,2.62.5,3.51,1.5.89,1,1.34,2.33,1.34,3.99v.13c0,1.03-.2,1.96-.59,2.78-.4.82-.96,1.46-1.7,1.92-.74.46-1.58.69-2.54.69-1.44,0-2.61-.5-3.5-1.5-.89-1-1.34-2.33-1.34-3.97v-.13ZM139.85,268.85c0,1.18.27,2.12.82,2.84s1.28,1.07,2.19,1.07,1.65-.36,2.2-1.08.81-1.74.81-3.04c0-1.16-.28-2.11-.83-2.83-.55-.72-1.29-1.08-2.2-1.08s-1.62.36-2.17,1.07c-.55.71-.82,1.73-.82,3.06Z" fill="#060738"/>
    <path d="M151.42,263.43l.06,1.33c.81-1.02,1.87-1.53,3.18-1.53,2.24,0,3.38,1.27,3.4,3.8v7.02h-1.82v-7.03c0-.76-.18-1.33-.53-1.7-.34-.37-.88-.55-1.6-.55-.59,0-1.11.16-1.55.47-.44.31-.79.73-1.04,1.24v7.56h-1.81v-10.62h1.72Z" fill="#060738"/>
    <path d="M164.88,268.64c0-1.04.21-1.98.61-2.81.41-.83.98-1.47,1.71-1.92.73-.45,1.56-.68,2.5-.68,1.45,0,2.62.5,3.51,1.5.89,1,1.34,2.33,1.34,3.99v.13c0,1.03-.2,1.96-.59,2.78-.4.82-.96,1.46-1.7,1.92-.74.46-1.58.69-2.54.69-1.44,0-2.61-.5-3.5-1.5-.89-1-1.34-2.33-1.34-3.97v-.13ZM166.71,268.85c0,1.18.27,2.12.82,2.84s1.28,1.07,2.19,1.07,1.65-.36,2.2-1.08.81-1.74.81-3.04c0-1.16-.28-2.11-.83-2.83-.55-.72-1.29-1.08-2.2-1.08s-1.62.36-2.17,1.07c-.55.71-.82,1.73-.82,3.06Z" fill="#060738"/>
    <path d="M177.13,274.04v-9.21h-1.68v-1.4h1.68v-1.09c0-1.14.3-2.02.91-2.64.61-.62,1.47-.93,2.58-.93.42,0,.83.05,1.25.17l-.1,1.46c-.31-.06-.63-.09-.98-.09-.59,0-1.04.17-1.36.52-.32.34-.48.84-.48,1.48v1.12h2.27v1.4h-2.27v9.21h-1.82Z" fill="#060738"/>
    <path d="M188.07,274.04v-14.29h4.67c1.55,0,2.72.32,3.5.96.78.64,1.17,1.59,1.17,2.85,0,.67-.19,1.26-.57,1.77s-.9.91-1.55,1.19c.77.22,1.38.63,1.83,1.23.45.6.67,1.33.67,2.16,0,1.28-.42,2.29-1.25,3.02-.83.73-2,1.1-3.52,1.1h-4.96ZM189.95,265.85h2.85c.82,0,1.48-.21,1.98-.62.49-.41.74-.97.74-1.68,0-.79-.23-1.36-.69-1.72-.46-.36-1.15-.54-2.09-.54h-2.79v4.55ZM189.95,267.36v5.14h3.11c.88,0,1.57-.23,2.08-.68.51-.45.76-1.08.76-1.88,0-1.72-.94-2.58-2.81-2.58h-3.14Z" fill="#060738"/>
    <path d="M206.6,272.99c-.71.83-1.74,1.25-3.11,1.25-1.13,0-1.99-.33-2.58-.99-.59-.66-.89-1.63-.9-2.92v-6.91h1.82v6.86c0,1.61.65,2.41,1.96,2.41,1.39,0,2.31-.52,2.77-1.55v-7.72h1.82v10.62h-1.73l-.04-1.05Z" fill="#060738"/>
    <path d="M216.01,265.06c-.27-.05-.57-.07-.89-.07-1.19,0-2,.51-2.42,1.52v7.54h-1.81v-10.62h1.77l.03,1.23c.6-.95,1.44-1.42,2.53-1.42.35,0,.62.05.8.14v1.69Z" fill="#060738"/>
    <path d="M226.45,268.85c0,1.62-.37,2.92-1.11,3.91s-1.74,1.48-3,1.48-2.3-.41-3.04-1.23v5.11h-1.81v-14.7h1.66l.09,1.18c.74-.92,1.77-1.37,3.08-1.37s2.28.48,3.03,1.44,1.11,2.3,1.11,4.01v.17ZM224.64,268.65c0-1.2-.25-2.14-.77-2.84-.51-.69-1.21-1.04-2.1-1.04-1.1,0-1.92.49-2.47,1.46v5.07c.54.97,1.37,1.45,2.49,1.45.87,0,1.56-.34,2.08-1.04s.77-1.72.77-3.08Z" fill="#060738"/>
    <path d="M237.82,267.68c-1.62-.46-2.79-1.04-3.53-1.71-.74-.68-1.1-1.51-1.1-2.51,0-1.12.45-2.06,1.35-2.79.9-.74,2.07-1.1,3.51-1.1.98,0,1.86.19,2.62.57.77.38,1.36.9,1.79,1.57s.63,1.4.63,2.19h-1.89c0-.87-.27-1.55-.82-2.04-.55-.5-1.32-.74-2.33-.74-.93,0-1.65.21-2.17.61-.52.41-.78.98-.78,1.71,0,.58.25,1.08.74,1.48.49.4,1.33.77,2.52,1.11,1.19.33,2.12.7,2.79,1.11s1.17.87,1.49,1.41c.32.54.49,1.17.49,1.89,0,1.16-.45,2.08-1.35,2.78s-2.11,1.04-3.62,1.04c-.98,0-1.9-.19-2.75-.56-.85-.38-1.51-.89-1.97-1.54s-.69-1.4-.69-2.23h1.89c0,.86.32,1.55.96,2.05.64.5,1.49.75,2.56.75.99,0,1.76-.2,2.29-.61.53-.41.79-.96.79-1.66s-.25-1.24-.74-1.62-1.38-.76-2.67-1.13Z" fill="#060738"/>
    <path d="M251.71,272.99c-.71.83-1.74,1.25-3.11,1.25-1.13,0-1.99-.33-2.58-.99-.59-.66-.89-1.63-.9-2.92v-6.91h1.82v6.86c0,1.61.65,2.41,1.96,2.41,1.39,0,2.31-.52,2.77-1.55v-7.72h1.82v10.62h-1.73l-.04-1.05Z" fill="#060738"/>
    <path d="M255.93,260.61c0-.29.09-.54.27-.75s.45-.3.8-.3.62.1.8.3c.18.2.27.45.27.75s-.09.54-.27.74c-.18.2-.45.29-.8.29s-.62-.1-.8-.29-.27-.44-.27-.74ZM257.89,274.04h-1.82v-10.62h1.82v10.62Z" fill="#060738"/>
    <path d="M263.09,260.86v2.57h1.98v1.4h-1.98v6.59c0,.43.09.75.27.96s.48.32.9.32c.21,0,.5-.04.86-.12v1.46c-.48.13-.94.2-1.39.2-.81,0-1.42-.25-1.83-.74-.41-.49-.62-1.19-.62-2.09v-6.58h-1.93v-1.4h1.93v-2.57h1.81Z" fill="#060738"/>
    <path d="M270.99,274.24c-1.44,0-2.61-.47-3.51-1.42s-1.35-2.21-1.35-3.79v-.33c0-1.05.2-1.99.6-2.82s.96-1.48,1.69-1.94c.72-.47,1.51-.7,2.35-.7,1.38,0,2.45.46,3.22,1.36s1.15,2.21,1.15,3.9v.76h-7.19c.03,1.05.33,1.89.92,2.54.58.64,1.33.97,2.23.97.64,0,1.18-.13,1.63-.39.44-.26.83-.61,1.17-1.04l1.11.86c-.89,1.37-2.22,2.05-4,2.05ZM270.76,264.72c-.73,0-1.35.27-1.84.8s-.8,1.28-.92,2.24h5.32v-.14c-.05-.92-.3-1.64-.75-2.14-.44-.51-1.05-.76-1.8-.76Z" fill="#060738"/>
  </g>
  <g>
    <rect x="62.68" y="61.63" width="50.97" height="50.97" rx="10.8" ry="10.8" fill="#060738"/>
    <g clip-path="url(#clippath)">
      <g>
        <path d="M73.93,93.22c-1.12,0-2.03-.91-2.03-2.03v-14.23c0-1.12.91-2.03,2.03-2.03h28.45c1.12,0,2.03.91,2.03,2.03v14.23c0,1.12-.91,2.03-2.03,2.03h-.68v2.71c0,1.14-.93,2.03-2.04,2.03h-23.02c-1.11,0-2.04-.9-2.04-2.03v-2.71h-.68ZM74.61,90.51h.68c1.12,0,2.03.91,2.03,2.03v2.71h21.68v-2.71c0-1.12.91-2.03,2.03-2.03h.68v-12.87h-27.1v12.87Z" fill="#e5e6ed" fill-rule="evenodd"/>
        <path d="M80.03,96.6c-.75,0-1.35-.61-1.35-1.35v-2.71c0-.75.61-1.35,1.35-1.35s1.35.61,1.35,1.35v2.71c0,.75-.61,1.35-1.35,1.35Z" fill="#e5e6ed" fill-rule="evenodd"/>
        <path d="M84.1,96.6c-.75,0-1.35-.61-1.35-1.35v-2.71c0-.75.61-1.35,1.35-1.35s1.35.61,1.35,1.35v2.71c0,.75-.61,1.35-1.35,1.35Z" fill="#e5e6ed" fill-rule="evenodd"/>
        <path d="M88.16,96.6c-.75,0-1.36-.61-1.36-1.35v-2.71c0-.75.61-1.35,1.36-1.35s1.35.61,1.35,1.35v2.71c0,.75-.61,1.35-1.35,1.35Z" fill="#e5e6ed" fill-rule="evenodd"/>
        <path d="M92.23,96.6c-.75,0-1.36-.61-1.36-1.35v-2.71c0-.75.61-1.35,1.36-1.35s1.35.61,1.35,1.35v2.71c0,.75-.61,1.35-1.35,1.35Z" fill="#e5e6ed" fill-rule="evenodd"/>
        <path d="M96.29,96.6c-.75,0-1.36-.61-1.36-1.35v-2.71c0-.75.61-1.35,1.36-1.35s1.35.61,1.35,1.35v2.71c0,.75-.61,1.35-1.35,1.35Z" fill="#e5e6ed" fill-rule="evenodd"/>
        <path d="M78,87.12c-.37,0-.68-.3-.68-.68v-5.42c0-.37.3-.68.68-.68h2.71c.37,0,.68.3.68.68v5.42c0,.37-.3.68-.68.68h-2.71Z" fill="#e5e6ed"/>
        <path d="M83.42,87.12c-.37,0-.68-.3-.68-.68v-5.42c0-.37.3-.68.68-.68h2.71c.37,0,.68.3.68.68v5.42c0,.37-.3.68-.68.68h-2.71Z" fill="#e5e6ed"/>
        <path d="M90.19,87.12c-.37,0-.68-.3-.68-.68v-5.42c0-.37.3-.68.68-.68h2.71c.37,0,.68.3.68.68v5.42c0,.37-.3.68-.68.68h-2.71Z" fill="#e5e6ed"/>
        <path d="M95.61,87.12c-.37,0-.68-.3-.68-.68v-5.42c0-.37.3-.68.68-.68h2.71c.37,0,.68.3.68.68v5.42c0,.37-.3.68-.68.68h-2.71Z" fill="#e5e6ed"/>
      </g>
    </g>
  </g>
  <g>
    <rect x="62.68" y="284.71" width="300.65" height="59.65" rx="12.56" ry="12.56" fill="#060738"/>
    <rect x="70.76" y="291.36" width="26.38" height="45.25" rx="8.37" ry="8.37" fill="#ada7ff" filter="url(#outer-glow-7)"/>
    <rect x="103.02" y="291.36" width="26.38" height="45.25" rx="8.37" ry="8.37" fill="#ada7ff" filter="url(#outer-glow-8)"/>
    <rect x="135.29" y="291.36" width="26.38" height="45.25" rx="8.37" ry="8.37" fill="#ada7ff" filter="url(#outer-glow-9)"/>
    <rect x="167.55" y="291.36" width="26.38" height="45.25" rx="8.37" ry="8.37" fill="#ada7ff" filter="url(#outer-glow-10)"/>
    <rect x="199.81" y="291.36" width="26.38" height="45.25" rx="8.37" ry="8.37" fill="#ada7ff" filter="url(#outer-glow-11)"/>
    <rect x="232.07" y="291.91" width="26.38" height="45.25" rx="8.37" ry="8.37" fill="#ada7ff" filter="url(#outer-glow-12)"/>
    <rect x="264.34" y="291.91" width="26.38" height="45.25" rx="8.37" ry="8.37" fill="#ada7ff" filter="url(#outer-glow-13)"/>
  </g>
  <g>
    <rect x="62.68" y="171.05" width="300.65" height="59.65" rx="12.56" ry="12.56" fill="#060738"/>
    <rect x="70.76" y="178.25" width="26.38" height="45.25" rx="8.37" ry="8.37" fill="#6c61ff" filter="url(#outer-glow-14)"/>
    <rect x="103.02" y="178.25" width="26.38" height="45.25" rx="8.37" ry="8.37" fill="#6c61ff" filter="url(#outer-glow-15)"/>
    <rect x="135.29" y="178.25" width="26.38" height="45.25" rx="8.37" ry="8.37" fill="#6c61ff" filter="url(#outer-glow-16)"/>
  </g>
</svg>